{
.appVersion = "3260";
.formatVersion = 3;
DisplayStrings = (
IXix
);
axes = (
{
name = Weight;
tag = wght;
},
{
name = Width;
tag = wdth;
}
);
date = "2024-09-19 17:54:18 +0000";
familyName = "NeonSky Stencil";
featurePrefixes = (
{
automatic = 1;
code = "languagesystem DFLT dflt;

languagesystem latn dflt;
languagesystem latn NLD;
";
name = Languagesystems;
}
);
features = (
{
automatic = 1;
code = "feature locl;
feature subs;
feature sinf;
feature sups;
feature numr;
feature dnom;
feature frac;
feature lnum;
feature pnum;
feature tnum;
feature onum;
feature case;
feature salt;
";
tag = aalt;
},
{
automatic = 1;
code = "lookup ccmp_Other_1 {
	@CombiningTopAccents = [acutecomb circumflexcomb dieresiscomb dotaccentcomb gravecomb ringcomb tildecomb];
	lookupflag UseMarkFilteringSet @CombiningTopAccents;
	sub i' @CombiningTopAccents by idotless;
	sub j' @CombiningTopAccents by jdotless;
} ccmp_Other_1;
";
tag = ccmp;
},
{
automatic = 1;
code = "script latn;
language NLD;
lookup locl_latn_0 {
	sub iacute j' by jacute;
	sub Iacute J' by Jacute;
} locl_latn_0;
";
tag = locl;
},
{
automatic = 1;
code = "sub zero by zeroinferior;
sub one by oneinferior;
sub two by twoinferior;
sub three by threeinferior;
sub four by fourinferior;
sub five by fiveinferior;
sub six by sixinferior;
sub seven by seveninferior;
sub eight by eightinferior;
sub nine by nineinferior;
";
tag = subs;
},
{
automatic = 1;
code = "sub zero by zeroinferior;
sub one by oneinferior;
sub two by twoinferior;
sub three by threeinferior;
sub four by fourinferior;
sub five by fiveinferior;
sub six by sixinferior;
sub seven by seveninferior;
sub eight by eightinferior;
sub nine by nineinferior;
";
tag = sinf;
},
{
automatic = 1;
code = "sub zero by zerosuperior;
sub one by onesuperior;
sub two by twosuperior;
sub three by threesuperior;
sub four by foursuperior;
sub five by fivesuperior;
sub six by sixsuperior;
sub seven by sevensuperior;
sub eight by eightsuperior;
sub nine by ninesuperior;
";
tag = sups;
},

glyphs = (
{
color = 3;
glyphname = A;
kernLeft = LCH;
kernRight = A;
lastChange = "2024-11-25 00:42:05 +0000";
layers = (
{
anchors = (
{
name = ogonek;
pos = (109,0);
},
{
name = top;
pos = (380,595);
}
);
annotations = (
{
pos = (210.582,673.485);
type = Arrow;
},
{
pos = (246,677);
text = "50";
type = Text;
}
);
guides = (
{
angle = 214.992;
pos = (80,540);
}
);
layerId = m01;
shapes = (
{
closed = 1;
nodes = (
(80,580,l),
(180,650,l),
(180,700,l),
(15,580,l)
);
},
{
closed = 1;
nodes = (
(180,27,l),
(180,121,l),
(334,-10,l),
(334,60,l),
(180,205,l),
(180,610,l),
(80,540,l),
(80,-30,l)
);
},
{
closed = 1;
nodes = (
(513,538,l),
(578,608,l),
(220,608,l),
(220,538,l)
);
},
{
closed = 1;
nodes = (
(461,-10,l),
(597,82,l),
(597,367,l),
(515,419,l),
(282,419,l),
(217,349,l),
(497,349,l),
(497,60,l),
(374,60,l),
(374,-10,l)
);
}
);
width = 630;
},
{
anchors = (
{
name = ogonek;
pos = (139,0);
},
{
name = top;
pos = (440,605);
}
);
annotations = (
{
pos = (286,661);
type = Arrow;
},
{
pos = (349.219,670.455);
text = "80";
type = Text;
}
);
guides = (
{
angle = 203.6294;
pos = (260,590);
}
);
layerId = m002;
shapes = (
{
closed = 1;
nodes = (
(100,550,l),
(260,620,l),
(260,700,l),
(19,550,l)
);
},
{
closed = 1;
nodes = (
(260,41,l),
(260,93,l),
(404,-10,l),
(404,100,l),
(260,235,l),
(260,580,l),
(100,510,l),
(100,-30,l)
);
},
{
closed = 1;
nodes = (
(611,523,l),
(703,623,l),
(290,623,l),
(290,523,l)
);
},
{
closed = 1;
nodes = (
(554,-10,l),
(707,93,l),
(707,371,l),
(607,434,l),
(384,434,l),
(292,334,l),
(547,334,l),
(547,90,l),
(434,90,l),
(434,-10,l)
);
}
);
width = 740;
},
{
anchors = (
{
name = ogonek;
pos = (119,0);
},
{
name = top;
pos = (450,595);
}
);
annotations = (
{
pos = (210.582,679.545);
type = Arrow;
},
{
pos = (247,684);
text = "50";
type = Text;
}
);
guides = (
{
angle = 36.0274;
pos = (180,650);
}
);
layerId = m004;
shapes = (
{
closed = 1;
nodes = (
(80,580,l),
(180,650,l),
(180,700,l),
(15,580,l)
);
},
{
closed = 1;
nodes = (
(180,27,l),
(180,148,l),
(385,-10,l),
(385,70,l),
(180,235,l),
(180,612,l),
(80,539,l),
(80,-30,l)
);
},
{
closed = 1;
nodes = (
(673,538,l),
(738,608,l),
(230,608,l),
(230,538,l)
);
},
{
closed = 1;
nodes = (
(621,-10,l),
(757,82,l),
(757,357,l),
(675,409,l),
(332,409,l),
(267,339,l),
(657,339,l),
(657,60,l),
(435,60,l),
(435,-10,l)
);
}
);
width = 790;
},
{
anchors = (
{
name = ogonek;
pos = (73,0);
},
{
name = top;
pos = (286,595);
}
);
annotations = (
{
pos = (120,686);
type = Arrow;
},
{
pos = (154,690);
text = "40";
type = Text;
}
);
guides = (
{
angle = 44.6441;
pos = (60,568);
}
);
layerId = m005;
shapes = (
{
closed = 1;
nodes = (
(60,620,l),
(100,660,l),
(100,700,l),
(19,620,l)
);
},
{
closed = 1;
nodes = (
(100,0,l),
(100,127,l),
(228,-10,l),
(228,40,l),
(100,178,l),
(100,620,l),
(60,580,l),
(60,-30,l)
);
},
{
closed = 1;
nodes = (
(467,558,l),
(495,588,l),
(150,588,l),
(150,558,l)
);
},
{
closed = 1;
nodes = (
(486,-10,l),
(517,23,l),
(517,339,l),
(475,369,l),
(188,369,l),
(160,339,l),
(477,339,l),
(477,20,l),
(278,20,l),
(278,-10,l)
);
}
);
width = 550;
},
{
anchors = (
{
name = ogonek;
pos = (76,0);
},
{
name = top;
pos = (366,595);
}
);
annotations = (
{
pos = (123.461,681.061);
type = Arrow;
},
{
pos = (158,685);
text = "40";
type = Text;
}
);
guides = (
{
angle = 44.6441;
pos = (60,555);
}
);
layerId = m006;
shapes = (
{
closed = 1;
nodes = (
(60,620,l),
(100,660,l),
(100,700,l),
(19,620,l)
);
},
{
closed = 1;
nodes = (
(100,0,l),
(100,171,l),
(262,-10,l),
(262,40,l),
(100,221,l),
(100,620,l),
(60,580,l),
(60,-30,l)
);
},
{
closed = 1;
nodes = (
(637,558,l),
(665,588,l),
(160,588,l),
(160,558,l)
);
},
{
closed = 1;
nodes = (
(656,-10,l),
(687,23,l),
(687,339,l),
(645,369,l),
(248,369,l),
(220,339,l),
(647,339,l),
(647,20,l),
(322,20,l),
(322,-10,l)
);
}
);
width = 720;
}
);
unicode = 65;
},
{
color = 3;
glyphname = AE;
kernLeft = LCH;
kernRight = E;
lastChange = "2024-11-23 22:59:48 +0000";
layers = (
{
layerId = m01;
shapes = (
{
closed = 1;
nodes = (
(180,27,l),
(180,103,l),
(325,-10,l),
(325,60,l),
(180,205,l),
(180,700,l),
(15,580,l),
(80,580,l),
(80,-30,l)
);
},
{
closed = 1;
nodes = (
(461,-10,l),
(597,66,l),
(597,367,l),
(515,419,l),
(282,419,l),
(217,349,l),
(497,349,l),
(497,60,l),
(365,60,l),
(365,-10,l)
);
},
{
closed = 1;
nodes = (
(778,-10,l),
(953,147,l),
(953,275,l),
(853,275,l),
(853,174,l),
(726,60,l),
(638,60,l),
(540,-10,l)
);
},
{
closed = 1;
nodes = (
(953,425,l),
(953,593,l),
(904,643,l),
(220,643,l),
(220,573,l),
(853,573,l),
(853,425,l)
);
},
{
closed = 1;
nodes = (
(1011,315,l),
(1076,385,l),
(718,385,l),
(653,315,l)
);
}
);
width = 1104;
},
{
layerId = m002;
shapes = (
{
closed = 1;
nodes = (
(260,23,l),
(260,50,l),
(404,-25,l),
(404,75,l),
(260,220,l),
(260,715,l),
(19,565,l),
(100,565,l),
(100,-69,l)
);
},
{
closed = 1;
nodes = (
(569,-25,l),
(677,79,l),
(677,371,l),
(577,434,l),
(384,434,l),
(312,334,l),
(517,334,l),
(517,75,l),
(444,75,l),
(444,-25,l)
);
},
{
closed = 1;
nodes = (
(844,-25,l),
(1033,145,l),
(1033,260,l),
(873,260,l),
(873,176,l),
(760,75,l),
(722,75,l),
(625,-25,l)
);
},
{
closed = 1;
nodes = (
(1033,440,l),
(1033,595,l),
(971,658,l),
(307,658,l),
(307,558,l),
(873,558,l),
(873,440,l)
);
},
{
closed = 1;
nodes = (
(1079,300,l),
(1171,400,l),
(830,400,l),
(735,300,l)
);
}
);
width = 1204;
},
{
layerId = m004;
shapes = (
{
closed = 1;
nodes = (
(180,27,l),
(180,155,l),
(355,-10,l),
(355,60,l),
(180,265,l),
(180,700,l),
(15,580,l),
(80,580,l),
(80,-30,l)
);
},
{
closed = 1;
nodes = (
(629,-10,l),
(737,61,l),
(737,367,l),
(655,419,l),
(322,419,l),
(257,349,l),
(637,349,l),
(637,60,l),
(405,60,l),
(405,-10,l)
);
},
{
closed = 1;
nodes = (
(1048,-10,l),
(1263,147,l),
(1263,275,l),
(1163,275,l),
(1163,174,l),
(996,60,l),
(830,60,l),
(740,-10,l)
);
},
{
closed = 1;
nodes = (
(1263,425,l),
(1263,593,l),
(1214,643,l),
(230,643,l),
(230,573,l),
(1163,573,l),
(1163,425,l)
);
},
{
closed = 1;
nodes = (
(1401,315,l),
(1466,385,l),
(908,385,l),
(843,315,l)
);
}
);
width = 1494;
},
{
layerId = m005;
shapes = (
{
closed = 1;
nodes = (
(100,0,l),
(100,126,l),
(272,-10,l),
(272,20,l),
(100,173,l),
(100,700,l),
(19,620,l),
(60,620,l),
(60,-30,l)
);
},
{
closed = 1;
nodes = (
(477,-10,l),
(517,28,l),
(517,319,l),
(477,359,l),
(198,359,l),
(170,329,l),
(477,329,l),
(477,20,l),
(322,20,l),
(322,-10,l)
);
},
{
closed = 1;
nodes = (
(754,-10,l),
(873,133,l),
(873,275,l),
(833,275,l),
(833,148,l),
(730,20,l),
(568,20,l),
(539,-10,l)
);
},
{
closed = 1;
nodes = (
(873,405,l),
(873,588,l),
(838,623,l),
(150,623,l),
(150,593,l),
(833,593,l),
(833,405,l)
);
},
{
closed = 1;
nodes = (
(995,325,l),
(1023,355,l),
(644,355,l),
(616,325,l)
);
}
);
width = 1064;
},
{
layerId = m006;
shapes = (
{
closed = 1;
nodes = (
(100,0,l),
(100,185,l),
(272,-10,l),
(272,20,l),
(100,228,l),
(100,700,l),
(19,620,l),
(60,620,l),
(60,-30,l)
);
},
{
closed = 1;
nodes = (
(597,-10,l),
(637,31,l),
(637,349,l),
(597,389,l),
(268,389,l),
(240,359,l),
(597,359,l),
(597,20,l),
(322,20,l),
(322,-10,l)
);
},
{
closed = 1;
nodes = (
(974,-10,l),
(1133,113,l),
(1133,305,l),
(1093,305,l),
(1093,128,l),
(950,20,l),
(698,20,l),
(679,-10,l)
);
},
{
closed = 1;
nodes = (
(1133,435,l),
(1133,588,l),
(1098,623,l),
(160,623,l),
(160,593,l),
(1093,593,l),
(1093,435,l)
);
},
{
closed = 1;
nodes = (
(1355,355,l),
(1383,385,l),
(824,385,l),
(796,355,l)
);
}
);
width = 1414;
},
{
associatedMasterId = m01;
layerId = "07875443-4844-484F-AFE0-622B47D5E719";
name = "Nov 23, 24 at 17:43";
shapes = (
{
closed = 1;
nodes = (
(461,-10,l),
(597,82,l),
(597,367,l),
(515,419,l),
(282,419,l),
(217,349,l),
(497,349,l),
(497,60,l),
(335,60,l),
(198,205,l),
(148,205,l),
(148,135,l),
(293,-10,l)
);
},
{
closed = 1;
nodes = (
(180,27,l),
(180,700,l),
(130,700,l),
(15,580,l),
(80,580,l),
(80,-30,l)
);
},
{
closed = 1;
nodes = (
(853,573,l),
(853,174,l),
(726,60,l),
(640,60,l),
(543,135,l),
(506,135,l),
(506,67,l),
(606,-10,l),
(778,-10,l),
(953,147,l),
(953,593,l),
(904,643,l),
(168,643,l),
(168,573,l)
);
},
{
closed = 1;
nodes = (
(1011,315,l),
(1076,385,l),
(718,385,l),
(653,315,l)
);
}
);
width = 1104;
}
);
metricLeft = A;
metricRight = E;
unicode = 198;
},
{
color = 1;
glyphname = B;
kernLeft = B;
kernRight = B;
lastChange = "2024-11-23 23:41:01 +0000";
layers = (
{
backgroundImage = {
imagePath = "../reference/@Celes/uppercase/B.png";
locked = 1;
pos = (-160,-118);
scale = (14,14);
};
guides = (
{
angle = 45.6511;
pos = (433,593);
}
);
layerId = m01;
shapes = (
{
closed = 1;
nodes = (
(276,-10,l),
(380,-10,l),
(517,170,l),
(467,170,l),
(333,70,l),
(352,70,l),
(168,264,l),
(35,264,l)
);
},
{
closed = 1;
nodes = (
(30,316,l),
(433,700,l),
(433,641,l),
(172,374,l),
(333,374,l),
(333,499,l),
(433,601,l),
(433,374,l),
(643,374,l),
(578,304,l),
(30,304,l)
);
}
);
width = 660;
},
{
backgroundImage = {
imagePath = "../reference/@Celes/uppercase/B.png";
locked = 1;
scale = (14,14);
};
guides = (
{
angle = 39.228;
pos = (553,558);
}
);
layerId = m002;
shapes = (
{
closed = 1;
nodes = (
(308,-10,l),
(529,-10,l),
(689,215,l),
(584,215,l),
(391,60,l),
(483,60,l),
(292,244,l),
(57,244,l)
);
},
{
closed = 1;
nodes = (
(30,318,l),
(553,700,l),
(553,623,l),
(248,374,l),
(393,374,l),
(393,452,l),
(553,583,l),
(553,374,l),
(763,374,l),
(671,274,l),
(30,274,l)
);
}
);
width = 780;
},
{
backgroundImage = {
imagePath = "../reference/@Celes/uppercase/B.png";
locked = 1;
pos = (-30,0);
scale = (14,14);
};
guides = (
{
angle = 38.2684;
pos = (523,581);
}
);
layerId = m004;
shapes = (
{
closed = 1;
nodes = (
(278,-10,l),
(579,-10,l),
(739,170,l),
(689,170,l),
(560,80,l),
(348,80,l),
(173,254,l),
(38,254,l)
);
},
{
closed = 1;
nodes = (
(31,318,l),
(523,700,l),
(523,633,l),
(182,364,l),
(423,364,l),
(423,514,l),
(523,593,l),
(523,364,l),
(813,364,l),
(748,294,l),
(31,294,l)
);
}
);
width = 830;
},
{
backgroundImage = {
imagePath = "../reference/@Celes/uppercase/B.png";
locked = 1;
pos = (-60,0);
scale = (14,14);
};
layerId = m005;
shapes = (
{
closed = 1;
nodes = (
(262,-10,l),
(332,-10,l),
(484,190,l),
(470,190,l),
(295,22,l),
(298,22,l),
(91,238,l),
(40,238,l)
);
},
{
closed = 1;
nodes = (
(30,311,l),
(373,700,l),
(373,646,l),
(76,308,l),
(333,308,l),
(333,548,l),
(373,593,l),
(373,308,l),
(560,308,l),
(532,278,l),
(30,278,l)
);
}
);
width = 580;
},
{
backgroundImage = {
imagePath = "../reference/@Celes/uppercase/B.png";
locked = 1;
pos = (40,0);
scale = (14,14);
};
layerId = m006;
shapes = (
{
closed = 1;
nodes = (
(262,-10,l),
(582,-10,l),
(734,190,l),
(710,190,l),
(563,23,l),
(290,23,l),
(98,234,l),
(48,234,l)
);
},
{
closed = 1;
nodes = (
(30,311,l),
(473,700,l),
(473,650,l),
(76,304,l),
(433,304,l),
(433,561,l),
(473,596,l),
(473,304,l),
(770,304,l),
(742,274,l),
(30,274,l)
);
}
);
width = 790;
}
);
unicode = 66;
},
{
color = 1;
glyphname = C;
kernLeft = C;
kernRight = RCH;
lastChange = "2024-11-24 06:26:30 +0000";
layers = (
{
anchors = (
{
name = ogonek;
pos = (310,0);
},
{
name = top;
pos = (241,580);
}
);
backgroundImage = {
imagePath = "../reference/@Celes/uppercase/C.png";
locked = 1;
pos = (-239,-114);
scale = (14,14);
};
guides = (
{
angle = 32.2756;
pos = (329,246);
}
);
layerId = m01;
shapes = (
{
closed = 1;
nodes = (
(329,303,l),
(429,366,l),
(429,610,l),
(329,547,l),
(329,373,l),
(100,373,l),
(35,303,l)
);
},
{
closed = 1;
nodes = (
(242,83,l),
(110,201,l),
(110,263,l),
(35,263,l),
(35,139,l),
(242,-10,l)
);
},
{
closed = 1;
nodes = (
(429,47,l),
(429,326,l),
(329,263,l),
(329,114,l),
(282,83,l),
(282,-10,l)
);
},
{
closed = 1;
nodes = (
(318,580,l),
(429,650,l),
(429,700,l),
(239,580,l)
);
}
);
width = 470;
},
{
anchors = (
{
name = ogonek;
pos = (353,0);
},
{
name = top;
pos = (281,580);
}
);
backgroundImage = {
imagePath = "../reference/@Celes/uppercase/C.png";
locked = 1;
pos = (-40,0);
scale = (14,14);
};
guides = (
{
angle = 198.9704;
pos = (519,283);
}
);
layerId = m002;
shapes = (
{
closed = 1;
nodes = (
(359,288,l),
(519,343,l),
(519,580,l),
(359,525,l),
(359,388,l),
(115,388,l),
(35,288,l)
);
},
{
closed = 1;
nodes = (
(284,122,l),
(170,204,l),
(170,258,l),
(35,258,l),
(35,136,l),
(284,-10,l)
);
},
{
closed = 1;
nodes = (
(519,42,l),
(519,303,l),
(359,248,l),
(359,155,l),
(314,122,l),
(314,-10,l)
);
},
{
closed = 1;
nodes = (
(359,565,l),
(519,620,l),
(519,700,l),
(204,565,l)
);
}
);
width = 560;
},
{
anchors = (
{
name = ogonek;
pos = (399,0);
},
{
name = top;
pos = (341,580);
}
);
backgroundImage = {
imagePath = "../reference/@Celes/uppercase/C.png";
locked = 1;
scale = (14,14);
};
guides = (
{
angle = 208.4858;
pos = (479,263);
}
);
layerId = m004;
shapes = (
{
closed = 1;
nodes = (
(479,303,l),
(579,357,l),
(579,610,l),
(479,556,l),
(479,373,l),
(100,373,l),
(34,303,l)
);
},
{
closed = 1;
nodes = (
(317,87,l),
(110,201,l),
(110,263,l),
(35,263,l),
(35,139,l),
(317,-10,l)
);
},
{
closed = 1;
nodes = (
(579,59,l),
(579,317,l),
(479,263,l),
(479,112,l),
(367,87,l),
(367,-10,l)
);
},
{
closed = 1;
nodes = (
(450,580,l),
(579,650,l),
(579,700,l),
(349,580,l)
);
}
);
width = 620;
},
{
anchors = (
{
name = ogonek;
pos = (269,0);
},
{
name = top;
pos = (251,580);
}
);
backgroundImage = {
imagePath = "../reference/@Celes/uppercase/C.png";
locked = 1;
pos = (-90,0);
scale = (14,14);
};
guides = (
{
angle = 38.941;
pos = (339,256);
}
);
layerId = m005;
shapes = (
{
closed = 1;
nodes = (
(339,313,l),
(379,345,l),
(379,620,l),
(339,588,l),
(339,343,l),
(80,343,l),
(45,313,l)
);
},
{
closed = 1;
nodes = (
(216,31,l),
(70,158,l),
(70,273,l),
(30,273,l),
(30,141,l),
(216,-10,l)
);
},
{
closed = 1;
nodes = (
(379,36,l),
(379,305,l),
(339,273,l),
(339,62,l),
(266,31,l),
(266,-10,l)
);
},
{
closed = 1;
nodes = (
(329,620,l),
(379,660,l),
(379,700,l),
(280,620,l)
);
}
);
width = 420;
},
{
anchors = (
{
name = ogonek;
pos = (359,0);
},
{
name = top;
pos = (331,580);
}
);
backgroundImage = {
imagePath = "../reference/@Celes/uppercase/C.png";
locked = 1;
pos = (-10,0);
scale = (14,14);
};
guides = (
{
angle = 23.2729;
pos = (499,251);
}
);
layerId = m006;
shapes = (
{
closed = 1;
nodes = (
(499,313,l),
(539,330,l),
(539,620,l),
(499,603,l),
(499,343,l),
(70,343,l),
(33,313,l)
);
},
{
closed = 1;
nodes = (
(287,33,l),
(70,169,l),
(70,273,l),
(30,273,l),
(30,141,l),
(287,-10,l)
);
},
{
closed = 1;
nodes = (
(539,56,l),
(539,290,l),
(499,273,l),
(499,77,l),
(347,33,l),
(347,-10,l)
);
},
{
closed = 1;
nodes = (
(446,620,l),
(539,660,l),
(539,700,l),
(353,620,l)
);
}
);
width = 580;
}
);
unicode = 67;
},
{
color = 1;
glyphname = D;
kernLeft = D;
kernRight = D;
lastChange = "2024-11-24 04:53:47 +0000";
layers = (
{
anchors = (
{
name = top;
pos = (336,600);
}
);
backgroundImage = {
imagePath = "../reference/@Celes/uppercase/D.png";
locked = 1;
pos = (-40,0);
scale = (14,14);
};
layerId = m01;
shapes = (
{
closed = 1;
nodes = (
(210,80,l),
(135,163,l),
(135,417,l),
(250,587,l),
(250,690,l),
(35,414,l),
(35,133,l),
(210,-10,l)
);
},
{
closed = 1;
nodes = (
(430,587,l),
(536,489,l),
(536,616,l),
(430,690,l)
);
},
{
closed = 1;
nodes = (
(390,100,l),
(390,700,l),
(290,700,l),
(290,100,l)
);
},
{
closed = 1;
nodes = (
(250,60,l),
(250,-10,l),
(435,-10,l),
(500,60,l)
);
}
);
width = 570;
},
{
anchors = (
{
name = top;
pos = (386,600);
}
);
backgroundImage = {
imagePath = "../reference/@Celes/uppercase/D.png";
locked = 1;
pos = (-10,0);
scale = (14,14);
};
layerId = m002;
shapes = (
{
closed = 1;
nodes = (
(246,86,l),
(195,165,l),
(195,416,l),
(280,564,l),
(280,690,l),
(35,415,l),
(35,131,l),
(246,-10,l)
);
},
{
closed = 1;
nodes = (
(500,566,l),
(616,393,l),
(616,575,l),
(500,690,l)
);
},
{
closed = 1;
nodes = (
(470,106,l),
(470,700,l),
(310,700,l),
(310,106,l)
);
},
{
closed = 1;
nodes = (
(276,76,l),
(276,-10,l),
(504,-10,l),
(595,76,l)
);
}
);
width = 650;
},
{
anchors = (
{
name = top;
pos = (416,600);
}
);
backgroundImage = {
imagePath = "../reference/@Celes/uppercase/D.png";
locked = 1;
pos = (30,0);
scale = (14,14);
};
layerId = m004;
shapes = (
{
closed = 1;
nodes = (
(239,78,l),
(135,163,l),
(135,417,l),
(320,609,l),
(320,690,l),
(35,414,l),
(35,133,l),
(239,-10,l)
);
},
{
closed = 1;
nodes = (
(520,617,l),
(696,456,l),
(696,573,l),
(520,690,l)
);
},
{
closed = 1;
nodes = (
(470,100,l),
(470,700,l),
(370,700,l),
(370,100,l)
);
},
{
closed = 1;
nodes = (
(289,60,l),
(289,-10,l),
(595,-10,l),
(660,60,l)
);
}
);
width = 730;
},
{
anchors = (
{
name = top;
pos = (306,600);
}
);
backgroundImage = {
imagePath = "../reference/@Celes/uppercase/D.png";
locked = 1;
pos = (-70,0);
scale = (14,14);
};
layerId = m005;
shapes = (
{
closed = 1;
nodes = (
(165,30,l),
(75,153,l),
(75,413,l),
(240,639,l),
(240,690,l),
(35,409,l),
(35,138,l),
(165,-10,l)
);
},
{
closed = 1;
nodes = (
(380,634,l),
(476,522,l),
(476,567,l),
(380,690,l)
);
},
{
closed = 1;
nodes = (
(330,60,l),
(330,700,l),
(290,700,l),
(290,60,l)
);
},
{
closed = 1;
nodes = (
(215,20,l),
(215,-10,l),
(399,-10,l),
(427,20,l)
);
}
);
width = 510;
},
{
anchors = (
{
name = top;
pos = (386,600);
}
);
backgroundImage = {
imagePath = "../reference/@Celes/uppercase/D.png";
locked = 1;
pos = (10,0);
scale = (14,14);
};
layerId = m006;
shapes = (
{
closed = 1;
nodes = (
(215,30,l),
(75,153,l),
(75,403,l),
(310,635,l),
(310,690,l),
(35,409,l),
(35,138,l),
(215,-10,l)
);
},
{
closed = 1;
nodes = (
(470,645,l),
(656,502,l),
(656,547,l),
(470,690,l)
);
},
{
closed = 1;
nodes = (
(410,60,l),
(410,700,l),
(370,700,l),
(370,60,l)
);
},
{
closed = 1;
nodes = (
(275,20,l),
(275,-10,l),
(589,-10,l),
(617,20,l)
);
}
);
width = 690;
}
);
unicode = 68;
},
{
color = 3;
glyphname = Eth;
kernLeft = D;
lastChange = "2024-11-23 23:16:42 +0000";
layers = (
{
layerId = m01;
shapes = (
{
locked = 1;
ref = D;
},
{
closed = 1;
nodes = (
(454,305,l),
(519,375,l),
(245,375,l),
(180,305,l)
);
},
{
closed = 1;
nodes = (
(390,415,l),
(390,375,l),
(290,375,l),
(290,415,l)
);
},
{
closed = 1;
nodes = (
(390,305,l),
(390,265,l),
(290,265,l),
(290,305,l)
);
}
);
width = 570;
},
{
layerId = m002;
shapes = (
{
locked = 1;
ref = D;
},
{
closed = 1;
nodes = (
(491,286,l),
(573,386,l),
(286,386,l),
(217,286,l)
);
},
{
closed = 1;
nodes = (
(470,416,l),
(470,386,l),
(310,386,l),
(310,416,l)
);
},
{
closed = 1;
nodes = (
(470,286,l),
(470,256,l),
(310,256,l),
(310,286,l)
);
}
);
width = 650;
},
{
layerId = m004;
shapes = (
{
locked = 1;
ref = D;
},
{
closed = 1;
nodes = (
(574,305,l),
(639,375,l),
(245,375,l),
(180,305,l)
);
},
{
closed = 1;
nodes = (
(470,415,l),
(470,375,l),
(370,375,l),
(370,415,l)
);
},
{
closed = 1;
nodes = (
(470,305,l),
(470,265,l),
(370,265,l),
(370,305,l)
);
}
);
width = 730;
},
{
layerId = m005;
shapes = (
{
locked = 1;
ref = D;
},
{
closed = 1;
nodes = (
(448,325,l),
(476,355,l),
(211,355,l),
(183,325,l)
);
},
{
closed = 1;
nodes = (
(330,395,l),
(330,355,l),
(290,355,l),
(290,395,l)
);
},
{
closed = 1;
nodes = (
(330,325,l),
(330,285,l),
(290,285,l),
(290,325,l)
);
}
);
width = 510;
},
{
layerId = m006;
shapes = (
{
locked = 1;
ref = D;
},
{
closed = 1;
nodes = (
(568,325,l),
(596,355,l),
(211,355,l),
(183,325,l)
);
},
{
closed = 1;
nodes = (
(410,395,l),
(410,355,l),
(370,355,l),
(370,395,l)
);
},
{
closed = 1;
nodes = (
(410,325,l),
(410,285,l),
(370,285,l),
(370,325,l)
);
}
);
width = 690;
}
);
metricLeft = D;
metricRight = D;
unicode = 208;
},
{
color = 1;
glyphname = E;
kernLeft = E;
kernRight = E;
lastChange = "2024-11-24 00:02:18 +0000";
layers = (
{
anchors = (
{
name = top;
pos = (321,572);
}
);
backgroundImage = {
imagePath = "../reference/@Celes/uppercase/E.png";
locked = 1;
pos = (40,0);
scale = (14,14);
};
guides = (
{
angle = 45;
pos = (202,643);
}
);
layerId = m01;
shapes = (
{
closed = 1;
nodes = (
(324,-10,l),
(499,147,l),
(499,275,l),
(399,275,l),
(399,174,l),
(272,60,l),
(164,60,l),
(52,135,l),
(52,67,l),
(152,-10,l)
);
},
{
closed = 1;
nodes = (
(85,573,l),
(162,650,l),
(162,700,l),
(35,573,l)
);
},
{
closed = 1;
nodes = (
(557,315,l),
(622,385,l),
(264,385,l),
(199,315,l)
);
},
{
closed = 1;
nodes = (
(499,593,l),
(450,643,l),
(195,643,l),
(125,573,l),
(399,573,l),
(399,425,l),
(499,425,l)
);
}
);
width = 650;
},
{
anchors = (
{
name = top;
pos = (351,602);
}
);
backgroundImage = {
imagePath = "../reference/@Celes/uppercase/E.png";
locked = 1;
pos = (70,0);
scale = (14,14);
};
guides = (
{
angle = 40.0159;
pos = (270,643);
}
);
layerId = m002;
shapes = (
{
closed = 1;
nodes = (
(390,-10,l),
(579,145,l),
(579,270,l),
(419,270,l),
(419,176,l),
(306,90,l),
(176,90,l),
(52,150,l),
(52,64,l),
(168,-10,l)
);
},
{
closed = 1;
nodes = (
(130,543,l),
(222,620,l),
(222,700,l),
(35,543,l)
);
},
{
closed = 1;
nodes = (
(625,300,l),
(717,400,l),
(276,400,l),
(184,300,l)
);
},
{
closed = 1;
nodes = (
(579,580,l),
(517,643,l),
(289,643,l),
(170,543,l),
(419,543,l),
(419,430,l),
(579,430,l)
);
}
);
width = 750;
},
{
anchors = (
{
name = top;
pos = (371,572);
}
);
backgroundImage = {
imagePath = "../reference/@Celes/uppercase/E.png";
locked = 1;
pos = (130,0);
scale = (14,14);
};
guides = (
{
angle = 37.2522;
pos = (266,643);
}
);
layerId = m004;
shapes = (
{
closed = 1;
nodes = (
(464,-10,l),
(639,147,l),
(639,275,l),
(539,275,l),
(539,174,l),
(412,60,l),
(186,60,l),
(52,135,l),
(52,67,l),
(152,-10,l)
);
},
{
closed = 1;
nodes = (
(101,573,l),
(202,650,l),
(202,700,l),
(35,573,l)
);
},
{
closed = 1;
nodes = (
(717,315,l),
(782,385,l),
(294,385,l),
(229,315,l)
);
},
{
closed = 1;
nodes = (
(639,593,l),
(590,643,l),
(253,643,l),
(161,573,l),
(539,573,l),
(539,425,l),
(639,425,l)
);
}
);
width = 810;
},
{
anchors = (
{
name = top;
pos = (291,572);
}
);
backgroundImage = {
imagePath = "../reference/@Celes/uppercase/E.png";
locked = 1;
pos = (10,0);
scale = (14,14);
};
guides = (
{
angle = 48.4893;
pos = (156,613);
}
);
layerId = m005;
shapes = (
{
closed = 1;
nodes = (
(280,-10,l),
(439,123,l),
(439,285,l),
(399,285,l),
(399,138,l),
(256,20,l),
(133,20,l),
(42,95,l),
(42,54,l),
(125,-10,l)
);
},
{
closed = 1;
nodes = (
(70,613,l),
(112,660,l),
(112,700,l),
(35,613,l)
);
},
{
closed = 1;
nodes = (
(511,325,l),
(539,355,l),
(250,355,l),
(222,325,l)
);
},
{
closed = 1;
nodes = (
(439,608,l),
(404,643,l),
(147,643,l),
(120,613,l),
(399,613,l),
(399,395,l),
(439,395,l)
);
}
);
width = 580;
},
{
anchors = (
{
name = top;
pos = (391,572);
}
);
backgroundImage = {
imagePath = "../reference/@Celes/uppercase/E.png";
locked = 1;
pos = (110,0);
scale = (14,14);
};
guides = (
{
angle = 52.3996;
pos = (174,622);
}
);
layerId = m006;
shapes = (
{
closed = 1;
nodes = (
(430,-10,l),
(589,123,l),
(589,285,l),
(549,285,l),
(549,138,l),
(406,20,l),
(133,20,l),
(42,95,l),
(42,54,l),
(125,-10,l)
);
},
{
closed = 1;
nodes = (
(66,613,l),
(102,660,l),
(102,700,l),
(35,613,l)
);
},
{
closed = 1;
nodes = (
(711,325,l),
(739,355,l),
(250,355,l),
(222,325,l)
);
},
{
closed = 1;
nodes = (
(589,608,l),
(554,643,l),
(149,643,l),
(126,613,l),
(549,613,l),
(549,395,l),
(589,395,l)
);
}
);
width = 770;
}
);
unicode = 69;
},
{
color = 3;
glyphname = F;
kernLeft = LCH;
kernRight = F;
lastChange = "2024-11-24 00:55:57 +0000";
layers = (
{
guides = (
{
angle = 32.8285;
pos = (201,609);
}
);
layerId = m01;
shapes = (
{
closed = 1;
nodes = (
(92,579,l),
(201,649,l),
(201,699,l),
(15,579,l)
);
},
{
closed = 1;
nodes = (
(201,30,l),
(201,609,l),
(101,544,l),
(101,-30,l)
);
},
{
closed = 1;
nodes = (
(503,398,l),
(394,480,l),
(241,480,l),
(241,410,l),
(376,410,l),
(503,348,l)
);
}
);
width = 530;
},
{
guides = (
{
angle = 203.6294;
pos = (281,565);
}
);
layerId = m002;
shapes = (
{
closed = 1;
nodes = (
(121,550,l),
(281,620,l),
(281,700,l),
(15,550,l)
);
},
{
closed = 1;
nodes = (
(281,66,l),
(281,580,l),
(121,510,l),
(121,-30,l)
);
},
{
closed = 1;
nodes = (
(583,411,l),
(458,505,l),
(311,505,l),
(311,405,l),
(416,405,l),
(583,323,l)
);
}
);
width = 610;
},
{
guides = (
{
angle = 29.0546;
pos = (231,607);
}
);
layerId = m004;
shapes = (
{
closed = 1;
nodes = (
(105,579,l),
(231,649,l),
(231,699,l),
(15,579,l)
);
},
{
closed = 1;
nodes = (
(231,30,l),
(231,609,l),
(131,553,l),
(131,-30,l)
);
},
{
closed = 1;
nodes = (
(663,398,l),
(514,480,l),
(281,480,l),
(281,410,l),
(496,410,l),
(663,348,l)
);
}
);
width = 690;
},
{
guides = (
{
angle = 39.8056;
pos = (111,605);
}
);
layerId = m005;
shapes = (
{
closed = 1;
nodes = (
(63,620,l),
(111,660,l),
(111,700,l),
(15,620,l)
);
},
{
closed = 1;
nodes = (
(111,0,l),
(111,620,l),
(71,587,l),
(71,-30,l)
);
},
{
closed = 1;
nodes = (
(423,392,l),
(335,460,l),
(161,460,l),
(161,430,l),
(325,430,l),
(423,367,l)
);
}
);
width = 450;
},
{
guides = (
{
angle = 39.8056;
pos = (111,600);
}
);
layerId = m006;
shapes = (
{
closed = 1;
nodes = (
(63,620,l),
(111,660,l),
(111,700,l),
(15,620,l)
);
},
{
closed = 1;
nodes = (
(111,0,l),
(111,620,l),
(71,587,l),
(71,-30,l)
);
},
{
closed = 1;
nodes = (
(593,392,l),
(445,460,l),
(171,460,l),
(171,430,l),
(435,430,l),
(593,367,l)
);
}
);
width = 620;
}
);
unicode = 70;
},
{
color = 1;
glyphname = G;
kernLeft = D;
kernRight = G;
lastChange = "2024-11-24 01:02:26 +0000";
layers = (
{
backgroundImage = {
imagePath = "../reference/@Celes/uppercase/G.png";
locked = 1;
pos = (-191,-115);
scale = (14,14);
};
layerId = m01;
shapes = (
{
closed = 1;
nodes = (
(136,454,l),
(269,630,l),
(397,630,l),
(462,700,l),
(241,700,l),
(38,454,l)
);
},
{
closed = 1;
nodes = (
(329,-10,l),
(329,92,l),
(329,92,l),
(138,215,l),
(138,414,l),
(38,414,l),
(38,163,l),
(329,-10,l)
);
},
{
closed = 1;
nodes = (
(525,300,l),
(590,370,l),
(347,370,l),
(282,300,l)
);
},
{
closed = 1;
nodes = (
(369,-10,l),
(469,-10,l),
(469,260,l),
(369,260,l)
);
}
);
width = 600;
},
{
backgroundImage = {
imagePath = "../reference/@Celes/uppercase/G.png";
locked = 1;
pos = (-252,-1);
scale = (14,14);
};
layerId = m002;
shapes = (
{
closed = 1;
nodes = (
(198,427,l),
(318,600,l),
(525,600,l),
(617,700,l),
(253,700,l),
(38,427,l)
);
},
{
closed = 1;
nodes = (
(399,-10,l),
(399,120,l),
(399,120,l),
(198,217,l),
(198,397,l),
(38,397,l),
(38,161,l),
(399,-10,l)
);
},
{
closed = 1;
nodes = (
(633,285,l),
(725,385,l),
(399,385,l),
(307,285,l)
);
},
{
closed = 1;
nodes = (
(429,-10,l),
(589,-10,l),
(589,255,l),
(429,255,l)
);
}
);
width = 740;
},
{
backgroundImage = {
imagePath = "../reference/@Celes/uppercase/G.png";
locked = 1;
pos = (-98,-11);
scale = (14,14);
};
layerId = m004;
shapes = (
{
closed = 1;
nodes = (
(138,449,l),
(289,630,l),
(597,630,l),
(662,700,l),
(261,700,l),
(38,449,l)
);
},
{
closed = 1;
nodes = (
(449,-10,l),
(449,60,l),
(357,60,l),
(138,215,l),
(138,409,l),
(38,409,l),
(38,163,l),
(317,-10,l)
);
},
{
closed = 1;
nodes = (
(705,320,l),
(770,390,l),
(377,390,l),
(312,320,l)
);
},
{
closed = 1;
nodes = (
(499,-10,l),
(599,-10,l),
(599,280,l),
(499,280,l)
);
}
);
width = 780;
},
{
backgroundImage = {
imagePath = "../reference/@Celes/uppercase/G.png";
locked = 1;
pos = (-92,3);
scale = (14,14);
};
layerId = m005;
shapes = (
{
closed = 1;
nodes = (
(78,449,l),
(232,670,l),
(401,670,l),
(429,700,l),
(218,700,l),
(38,449,l)
);
},
{
closed = 1;
nodes = (
(319,-10,l),
(319,20,l),
(269,20,l),
(78,184,l),
(78,409,l),
(38,409,l),
(38,169,l),
(250,-10,l)
);
},
{
closed = 1;
nodes = (
(499,320,l),
(527,350,l),
(283,350,l),
(255,320,l)
);
},
{
closed = 1;
nodes = (
(369,-10,l),
(409,-10,l),
(409,280,l),
(369,280,l)
);
}
);
width = 550;
},
{
backgroundImage = {
imagePath = "../reference/@Celes/uppercase/G.png";
locked = 1;
pos = (31,-134);
scale = (14,14);
};
layerId = m006;
shapes = (
{
closed = 1;
nodes = (
(78,451,l),
(262,670,l),
(561,670,l),
(589,700,l),
(248,700,l),
(38,451,l)
);
},
{
closed = 1;
nodes = (
(439,-10,l),
(439,20,l),
(292,20,l),
(78,184,l),
(78,411,l),
(38,411,l),
(38,169,l),
(280,-10,l)
);
},
{
closed = 1;
nodes = (
(719,320,l),
(747,350,l),
(323,350,l),
(295,320,l)
);
},
{
closed = 1;
nodes = (
(499,-10,l),
(539,-10,l),
(539,280,l),
(499,280,l)
);
}
);
width = 770;
}
);
unicode = 71;
},
{
color = 3;
glyphname = H;
kernLeft = LCH;
kernRight = H;
lastChange = "2024-11-24 01:06:00 +0000";
layers = (
{
guides = (
{
angle = 48.4732;
pos = (201,509);
},
{
angle = 48.4609;
pos = (248,337);
}
);
layerId = m01;
shapes = (
{
closed = 1;
nodes = (
(201,486,l),
(201,700,l),
(15,579,l),
(101,579,l),
(101,373,l)
);
},
{
closed = 1;
nodes = (
(201,40,l),
(201,323,l),
(535,700,l),
(426,700,l),
(101,333,l),
(101,-30,l)
);
},
{
closed = 1;
nodes = (
(525,148,l),
(525,371,l),
(445,407,l),
(316,407,l),
(254,337,l),
(425,337,l),
(425,164,l),
(341,32,l),
(341,-20,l)
);
}
);
width = 560;
},
{
guides = (
{
angle = 38.8731;
pos = (281,556);
},
{
angle = 220.3395;
pos = (464,422);
}
);
layerId = m002;
shapes = (
{
closed = 1;
nodes = (
(281,553,l),
(281,700,l),
(16,549,l),
(121,549,l),
(121,424,l)
);
},
{
closed = 1;
nodes = (
(281,80,l),
(281,362,l),
(679,700,l),
(513,700,l),
(121,384,l),
(121,-32,l)
);
},
{
closed = 1;
nodes = (
(655,146,l),
(655,397,l),
(554,442,l),
(416,442,l),
(298,342,l),
(495,342,l),
(495,165,l),
(411,79,l),
(411,-30,l)
);
}
);
width = 690;
},
{
guides = (
{
angle = 33.1225;
pos = (231,513);
},
{
angle = 34.4501;
pos = (397,427);
}
);
layerId = m004;
shapes = (
{
closed = 1;
nodes = (
(231,499,l),
(231,700,l),
(15,579,l),
(131,579,l),
(131,434,l)
);
},
{
closed = 1;
nodes = (
(231,40,l),
(231,357,l),
(731,700,l),
(600,700,l),
(131,394,l),
(131,-30,l)
);
},
{
closed = 1;
nodes = (
(735,148,l),
(735,371,l),
(655,427,l),
(373,427,l),
(271,357,l),
(635,357,l),
(635,164,l),
(511,32,l),
(511,-20,l)
);
}
);
width = 770;
},
{
guides = (
{
angle = 45.4483;
pos = (121,481);
},
{
angle = 46.2806;
pos = (193,387);
}
);
layerId = m005;
shapes = (
{
closed = 1;
nodes = (
(121,459,l),
(121,700,l),
(24,619,l),
(81,619,l),
(81,418,l)
);
},
{
closed = 1;
nodes = (
(121,0,l),
(121,357,l),
(449,700,l),
(398,700,l),
(81,378,l),
(81,-30,l)
);
},
{
closed = 1;
nodes = (
(445,130,l),
(445,361,l),
(411,387,l),
(190,387,l),
(161,357,l),
(405,357,l),
(405,139,l),
(297,10,l),
(297,-20,l)
);
}
);
width = 480;
},
{
guides = (
{
angle = 212.7843;
pos = (121,466);
},
{
angle = 32.805;
pos = (213,397);
}
);
layerId = m006;
shapes = (
{
closed = 1;
nodes = (
(121,462,l),
(121,700,l),
(24,619,l),
(81,619,l),
(81,436,l)
);
},
{
closed = 1;
nodes = (
(121,0,l),
(121,379,l),
(619,700,l),
(553,700,l),
(81,396,l),
(81,-30,l)
);
},
{
closed = 1;
nodes = (
(645,150,l),
(645,371,l),
(611,397,l),
(189,397,l),
(142,367,l),
(605,367,l),
(605,159,l),
(447,10,l),
(447,-20,l)
);
}
);
width = 680;
}
);
unicode = 72;
},
{
color = 1;
glyphname = I;
kernLeft = LCH;
kernRight = RCH;
lastChange = "2024-11-24 00:21:27 +0000";
layers = (
{
anchors = (
{
name = top;
pos = (155,600);
}
);
backgroundImage = {
imagePath = "../reference/@Celes/uppercase/I.png";
locked = 1;
pos = (-170,0);
scale = (14,14);
};
guides = (
{
angle = 34.992;
pos = (125,553);
}
);
layerId = m01;
shapes = (
{
closed = 1;
nodes = (
(225,650,l),
(225,700,l),
(15,580,l),
(125,580,l)
);
},
{
closed = 1;
nodes = (
(125,540,l),
(125,-30,l),
(225,30,l),
(225,610,l)
);
}
);
width = 270;
},
{
anchors = (
{
name = top;
pos = (215,620);
}
);
backgroundImage = {
imagePath = "../reference/@Celes/uppercase/I.png";
locked = 1;
pos = (-110,0);
scale = (14,14);
};
guides = (
{
angle = 23.6294;
pos = (315,589);
}
);
layerId = m002;
shapes = (
{
closed = 1;
nodes = (
(315,620,l),
(315,700,l),
(21,550,l),
(155,550,l)
);
},
{
closed = 1;
nodes = (
(155,510,l),
(155,-30,l),
(315,66,l),
(315,580,l)
);
}
);
width = 370;
},
{
anchors = (
{
name = top;
pos = (205,600);
}
);
backgroundImage = {
imagePath = "../reference/@Celes/uppercase/I.png";
locked = 1;
pos = (-120,0);
scale = (14,14);
};
guides = (
{
angle = 26.5651;
pos = (275,585);
}
);
layerId = m004;
shapes = (
{
closed = 1;
nodes = (
(275,650,l),
(275,700,l),
(35,580,l),
(135,580,l)
);
},
{
closed = 1;
nodes = (
(175,560,l),
(175,-30,l),
(275,30,l),
(275,610,l)
);
}
);
width = 380;
},
{
anchors = (
{
name = top;
pos = (85,600);
}
);
backgroundImage = {
imagePath = "../reference/@Celes/uppercase/I.png";
locked = 1;
pos = (-240,0);
scale = (14,14);
};
guides = (
{
angle = 35.0594;
pos = (125,630);
}
);
layerId = m005;
shapes = (
{
closed = 1;
nodes = (
(125,660,l),
(125,700,l),
(11,620,l),
(68,620,l)
);
},
{
closed = 1;
nodes = (
(85,592,l),
(85,-30,l),
(125,0,l),
(125,620,l)
);
}
);
width = 190;
},
{
anchors = (
{
name = top;
pos = (195,600);
}
);
backgroundImage = {
imagePath = "../reference/@Celes/uppercase/I.png";
locked = 1;
pos = (-130,0);
scale = (14,14);
};
guides = (
{
angle = 22.4098;
pos = (235,585);
}
);
layerId = m006;
shapes = (
{
closed = 1;
nodes = (
(235,660,l),
(235,700,l),
(41,620,l),
(137,620,l)
);
},
{
closed = 1;
nodes = (
(195,604,l),
(195,-30,l),
(235,0,l),
(235,620,l)
);
}
);
width = 340;
}
);
unicode = 73;
},
{
color = 3;
glyphname = J;
kernLeft = J;
kernRight = J;
lastChange = "2024-11-24 01:07:17 +0000";
layers = (
{
anchors = (
{
name = top;
pos = (197,600);
}
);
guides = (
{
angle = 214.992;
pos = (135,522);
}
);
layerId = m01;
shapes = (
{
closed = 1;
nodes = (
(135,580,l),
(235,650,l),
(235,700,l),
(25,580,l)
);
},
{
closed = 1;
nodes = (
(235,390,l),
(235,610,l),
(135,540,l),
(135,390,l)
);
},
{
closed = 1;
nodes = (
(467,-10,l),
(580,131,l),
(530,131,l),
(429,60,l),
(303,60,l),
(235,182,l),
(235,240,l),
(135,240,l),
(135,137,l),
(225,-10,l)
);
},
{
closed = 1;
nodes = (
(302,280,l),
(367,350,l),
(94,350,l),
(29,280,l)
);
}
);
width = 600;
},
{
anchors = (
{
name = top;
pos = (277,620);
}
);
guides = (
{
angle = 203.6294;
pos = (325,523);
}
);
layerId = m002;
shapes = (
{
closed = 1;
nodes = (
(165,550,l),
(325,620,l),
(325,700,l),
(31,550,l)
);
},
{
closed = 1;
nodes = (
(325,395,l),
(325,580,l),
(165,510,l),
(165,395,l)
);
},
{
closed = 1;
nodes = (
(586,-10,l),
(722,156,l),
(617,156,l),
(516,90,l),
(405,90,l),
(325,182,l),
(325,235,l),
(165,235,l),
(165,136,l),
(284,-10,l)
);
},
{
closed = 1;
nodes = (
(380,265,l),
(472,365,l),
(136,365,l),
(44,265,l)
);
}
);
width = 750;
},
{
anchors = (
{
name = top;
pos = (277,600);
}
);
guides = (
{
angle = 26.5651;
pos = (315,538);
}
);
layerId = m004;
shapes = (
{
closed = 1;
nodes = (
(175,580,l),
(315,650,l),
(315,700,l),
(75,580,l)
);
},
{
closed = 1;
nodes = (
(315,390,l),
(315,610,l),
(215,560,l),
(215,390,l)
);
},
{
closed = 1;
nodes = (
(687,-10,l),
(800,151,l),
(750,151,l),
(649,60,l),
(413,60,l),
(315,182,l),
(315,240,l),
(215,240,l),
(215,137,l),
(335,-10,l)
);
},
{
closed = 1;
nodes = (
(412,280,l),
(477,350,l),
(104,350,l),
(39,280,l)
);
}
);
width = 820;
},
{
anchors = (
{
name = top;
pos = (167,600);
}
);
guides = (
{
angle = 35.0594;
pos = (175,564);
}
);
layerId = m005;
shapes = (
{
closed = 1;
nodes = (
(118,620,l),
(175,660,l),
(175,700,l),
(61,620,l)
);
},
{
closed = 1;
nodes = (
(175,360,l),
(175,620,l),
(135,592,l),
(135,360,l)
);
},
{
closed = 1;
nodes = (
(420,-10,l),
(527,131,l),
(502,131,l),
(403,20,l),
(243,20,l),
(175,153,l),
(175,250,l),
(135,250,l),
(135,140,l),
(215,-10,l)
);
},
{
closed = 1;
nodes = (
(276,290,l),
(304,320,l),
(50,320,l),
(22,290,l)
);
}
);
width = 550;
},
{
anchors = (
{
name = top;
pos = (217,600);
}
);
guides = (
{
angle = 27.451;
pos = (225,567);
}
);
layerId = m006;
shapes = (
{
closed = 1;
nodes = (
(148,620,l),
(225,660,l),
(225,700,l),
(71,620,l)
);
},
{
closed = 1;
nodes = (
(225,360,l),
(225,620,l),
(185,599,l),
(185,360,l)
);
},
{
closed = 1;
nodes = (
(590,-10,l),
(727,151,l),
(702,151,l),
(573,20,l),
(343,20,l),
(225,153,l),
(225,250,l),
(185,250,l),
(185,140,l),
(315,-10,l)
);
},
{
closed = 1;
nodes = (
(376,290,l),
(404,320,l),
(50,320,l),
(22,290,l)
);
}
);
width = 750;
}
);
unicode = 74;
},
{
color = 3;
glyphname = K;
kernLeft = K;
kernRight = K;
lastChange = "2024-11-24 01:10:07 +0000";
layers = (
{
guides = (
{
angle = 56.6935;
pos = (235,529);
},
{
angle = -21.8014;
pos = (303,236);
}
);
layerId = m01;
shapes = (
{
closed = 1;
nodes = (
(235,496,l),
(235,700,l),
(25,580,l),
(135,580,l),
(135,344,l)
);
},
{
closed = 1;
nodes = (
(403,240,l),
(581,318,l),
(581,500,l),
(492,570,l),
(317,570,l),
(135,293,l),
(185,293,l),
(342,500,l),
(481,500,l),
(481,356,l),
(303,280,l)
);
},
{
closed = 1;
nodes = (
(303,240,l),
(303,99,l),
(427,-30,l),
(477,-30,l),
(403,107,l),
(403,200,l)
);
}
);
width = 610;
},
{
guides = (
{
angle = 54.5287;
pos = (325,552);
}
);
layerId = m002;
shapes = (
{
closed = 1;
nodes = (
(325,543,l),
(325,700,l),
(31,550,l),
(165,550,l),
(165,318,l)
);
},
{
closed = 1;
nodes = (
(543,210,l),
(761,289,l),
(761,513,l),
(656,595,l),
(398,595,l),
(165,268,l),
(275,268,l),
(449,495,l),
(601,495,l),
(601,335,l),
(383,280,l)
);
},
{
closed = 1;
nodes = (
(383,240,l),
(383,102,l),
(521,-30,l),
(626,-30,l),
(543,113,l),
(543,170,l)
);
}
);
width = 790;
},
{
guides = (
{
angle = 52.6961;
pos = (265,490);
}
);
layerId = m004;
shapes = (
{
closed = 1;
nodes = (
(265,445,l),
(265,700,l),
(25,580,l),
(165,580,l),
(165,313,l)
);
},
{
closed = 1;
nodes = (
(543,238,l),
(841,327,l),
(841,553,l),
(752,620,l),
(437,620,l),
(165,263,l),
(244,263,l),
(462,550,l),
(741,550,l),
(741,377,l),
(443,298,l)
);
},
{
closed = 1;
nodes = (
(443,258,l),
(443,139,l),
(637,-30,l),
(687,-30,l),
(543,147,l),
(543,198,l)
);
}
);
width = 870;
},
{
guides = (
{
angle = 58.7173;
pos = (135,429);
}
);
layerId = m005;
shapes = (
{
closed = 1;
nodes = (
(135,429,l),
(135,700,l),
(21,620,l),
(95,620,l),
(95,363,l)
);
},
{
closed = 1;
nodes = (
(303,240,l),
(481,340,l),
(481,514,l),
(441,550,l),
(239,550,l),
(95,313,l),
(135,313,l),
(264,520,l),
(441,520,l),
(441,359,l),
(263,260,l)
);
},
{
closed = 1;
nodes = (
(263,220,l),
(263,104,l),
(368,-30,l),
(394,-30,l),
(303,104,l),
(303,200,l)
);
}
);
width = 510;
},
{
guides = (
{
angle = 52.0284;
pos = (175,445);
}
);
layerId = m006;
shapes = (
{
closed = 1;
nodes = (
(175,414,l),
(175,700,l),
(21,620,l),
(135,620,l),
(135,363,l)
);
},
{
closed = 1;
nodes = (
(443,251,l),
(741,414,l),
(741,564,l),
(701,600,l),
(359,600,l),
(135,313,l),
(173,313,l),
(374,570,l),
(701,570,l),
(701,436,l),
(403,271,l)
);
},
{
closed = 1;
nodes = (
(403,231,l),
(403,130,l),
(578,-30,l),
(604,-30,l),
(443,154,l),
(443,211,l)
);
}
);
width = 770;
}
);
unicode = 75;
},
{
color = 1;
glyphname = L;
kernLeft = L;
kernRight = L;
lastChange = "2024-11-24 01:12:28 +0000";
layers = (
{
backgroundImage = {
imagePath = "../reference/@Celes/uppercase/L.png";
locked = 1;
pos = (-130,0);
scale = (14,14);
};
guides = (
{
angle = 34.992;
pos = (142,544);
}
);
layerId = m01;
shapes = (
{
closed = 1;
nodes = (
(242,650,l),
(242,700,l),
(32,580,l),
(142,580,l)
);
},
{
closed = 1;
nodes = (
(242,324,l),
(242,610,l),
(142,540,l),
(142,324,l)
);
},
{
closed = 1;
nodes = (
(272,214,l),
(337,284,l),
(103,284,l),
(38,214,l)
);
},
{
closed = 1;
nodes = (
(280,70,l),
(242,70,l),
(242,174,l),
(142,174,l),
(142,70,l),
(93,70,l),
(28,0,l),
(280,0,l)
);
},
{
closed = 1;
nodes = (
(310,0,l),
(404,95,l),
(310,95,l)
);
}
);
width = 420;
},
{
backgroundImage = {
imagePath = "../reference/@Celes/uppercase/L.png";
locked = 1;
pos = (-80,0);
scale = (14,14);
};
guides = (
{
angle = 23.6294;
pos = (322,548);
}
);
layerId = m002;
shapes = (
{
closed = 1;
nodes = (
(322,620,l),
(322,700,l),
(28,550,l),
(162,550,l)
);
},
{
closed = 1;
nodes = (
(322,339,l),
(322,580,l),
(162,510,l),
(162,339,l)
);
},
{
closed = 1;
nodes = (
(360,209,l),
(452,309,l),
(135,309,l),
(43,209,l)
);
},
{
closed = 1;
nodes = (
(378,100,l),
(322,100,l),
(322,179,l),
(162,179,l),
(162,100,l),
(125,100,l),
(33,0,l),
(378,0,l)
);
},
{
closed = 1;
nodes = (
(408,0,l),
(560,148,l),
(408,148,l)
);
}
);
width = 580;
},
{
backgroundImage = {
imagePath = "../reference/@Celes/uppercase/L.png";
locked = 1;
scale = (14,14);
};
guides = (
{
angle = 27.5528;
pos = (372,625);
}
);
layerId = m004;
shapes = (
{
closed = 1;
nodes = (
(372,650,l),
(372,700,l),
(142,580,l),
(237,580,l)
);
},
{
closed = 1;
nodes = (
(372,324,l),
(372,610,l),
(272,558,l),
(272,324,l)
);
},
{
closed = 1;
nodes = (
(492,214,l),
(557,284,l),
(133,284,l),
(68,214,l)
);
},
{
closed = 1;
nodes = (
(452,70,l),
(372,70,l),
(372,174,l),
(272,174,l),
(272,70,l),
(93,70,l),
(28,0,l),
(452,0,l)
);
},
{
closed = 1;
nodes = (
(502,0,l),
(624,95,l),
(502,95,l)
);
}
);
width = 640;
},
{
backgroundImage = {
imagePath = "../reference/@Celes/uppercase/L.png";
locked = 1;
pos = (-180,0);
scale = (14,14);
};
guides = (
{
angle = 35.0594;
pos = (162,638);
}
);
layerId = m005;
shapes = (
{
closed = 1;
nodes = (
(162,660,l),
(162,700,l),
(48,620,l),
(105,620,l)
);
},
{
closed = 1;
nodes = (
(162,324,l),
(162,620,l),
(122,592,l),
(122,324,l)
);
},
{
closed = 1;
nodes = (
(216,254,l),
(244,284,l),
(69,284,l),
(41,254,l)
);
},
{
closed = 1;
nodes = (
(215,30,l),
(162,30,l),
(162,214,l),
(122,214,l),
(122,30,l),
(59,30,l),
(31,0,l),
(215,0,l)
);
},
{
closed = 1;
nodes = (
(245,0,l),
(301,55,l),
(245,55,l)
);
}
);
width = 330;
},
{
backgroundImage = {
imagePath = "../reference/@Celes/uppercase/L.png";
locked = 1;
pos = (-50,0);
scale = (14,14);
};
guides = (
{
angle = 27.451;
pos = (292,630);
}
);
layerId = m006;
shapes = (
{
closed = 1;
nodes = (
(292,660,l),
(292,700,l),
(138,620,l),
(213,620,l)
);
},
{
closed = 1;
nodes = (
(292,324,l),
(292,620,l),
(252,599,l),
(252,324,l)
);
},
{
closed = 1;
nodes = (
(426,254,l),
(454,284,l),
(129,284,l),
(101,254,l)
);
},
{
closed = 1;
nodes = (
(406,30,l),
(292,30,l),
(292,214,l),
(252,214,l),
(252,30,l),
(59,30,l),
(31,0,l),
(406,0,l)
);
},
{
closed = 1;
nodes = (
(446,0,l),
(545,55,l),
(446,55,l)
);
}
);
width = 560;
}
);
unicode = 76;
},
{
color = 1;
glyphname = M;
kernLeft = M;
kernRight = M;
lastChange = "2024-11-24 01:13:27 +0000";
layers = (
{
backgroundImage = {
imagePath = "../reference/@Celes/uppercase/M.png";
locked = 1;
pos = (-74,-109);
scale = (14,14);
};
guides = (
{
angle = 47.1211;
pos = (329,35);
},
{
angle = 34.992;
pos = (139,535);
}
);
layerId = m01;
shapes = (
{
closed = 1;
nodes = (
(892,0,l),
(957,70,l),
(896,70,l),
(682,560,l),
(608,560,l),
(533,490,l),
(603,490,l),
(812,0,l)
);
},
{
closed = 1;
nodes = (
(239,110,l),
(239,610,l),
(139,540,l),
(139,110,l)
);
},
{
closed = 1;
nodes = (
(239,650,l),
(239,700,l),
(29,580,l),
(139,580,l)
);
},
{
closed = 1;
nodes = (
(632,0,l),
(697,70,l),
(636,70,l),
(422,560,l),
(348,560,l),
(273,490,l),
(343,490,l),
(552,0,l)
);
},
{
closed = 1;
nodes = (
(90,70,l),
(25,0,l),
(310,0,l),
(375,70,l)
);
}
);
width = 980;
},
{
backgroundImage = {
imagePath = "../reference/@Celes/uppercase/M.png";
locked = 1;
pos = (-24,-109);
scale = (14,14);
};
guides = (
{
angle = 47.1211;
pos = (379,35);
},
{
angle = 23.6294;
pos = (319,561);
}
);
layerId = m002;
shapes = (
{
closed = 1;
nodes = (
(1100,0,l),
(1192,100,l),
(1110,100,l),
(856,575,l),
(766,575,l),
(659,475,l),
(729,475,l),
(978,0,l)
);
},
{
closed = 1;
nodes = (
(319,130,l),
(319,580,l),
(159,510,l),
(159,130,l)
);
},
{
closed = 1;
nodes = (
(319,620,l),
(319,700,l),
(25,550,l),
(159,550,l)
);
},
{
closed = 1;
nodes = (
(750,0,l),
(842,100,l),
(760,100,l),
(516,575,l),
(453,575,l),
(346,475,l),
(389,475,l),
(628,0,l)
);
},
{
closed = 1;
nodes = (
(122,100,l),
(30,0,l),
(378,0,l),
(470,100,l)
);
}
);
width = 1220;
},
{
backgroundImage = {
imagePath = "../reference/@Celes/uppercase/M.png";
locked = 1;
pos = (106,-109);
scale = (14,14);
};
guides = (
{
angle = 25.641;
pos = (309,576);
}
);
layerId = m004;
shapes = (
{
closed = 1;
nodes = (
(1252,0,l),
(1317,70,l),
(1206,70,l),
(872,560,l),
(748,560,l),
(673,490,l),
(793,490,l),
(1122,0,l)
);
},
{
closed = 1;
nodes = (
(309,110,l),
(309,610,l),
(209,562,l),
(209,110,l)
);
},
{
closed = 1;
nodes = (
(309,650,l),
(309,700,l),
(59,580,l),
(163,580,l)
);
},
{
closed = 1;
nodes = (
(872,0,l),
(937,70,l),
(836,70,l),
(532,560,l),
(418,560,l),
(343,490,l),
(453,490,l),
(752,0,l)
);
},
{
closed = 1;
nodes = (
(90,70,l),
(25,0,l),
(490,0,l),
(555,70,l)
);
}
);
width = 1380;
},
{
backgroundImage = {
imagePath = "../reference/@Celes/uppercase/M.png";
locked = 1;
pos = (-124,-109);
scale = (14,14);
};
guides = (
{
angle = 35.0594;
pos = (159,599);
}
);
layerId = m005;
shapes = (
{
closed = 1;
nodes = (
(846,0,l),
(874,30,l),
(814,30,l),
(600,560,l),
(523,560,l),
(491,530,l),
(565,530,l),
(774,0,l)
);
},
{
closed = 1;
nodes = (
(159,70,l),
(159,620,l),
(119,592,l),
(119,70,l)
);
},
{
closed = 1;
nodes = (
(159,660,l),
(159,700,l),
(45,620,l),
(102,620,l)
);
},
{
closed = 1;
nodes = (
(586,0,l),
(614,30,l),
(554,30,l),
(340,560,l),
(263,560,l),
(231,530,l),
(305,530,l),
(514,0,l)
);
},
{
closed = 1;
nodes = (
(56,30,l),
(28,0,l),
(244,0,l),
(272,30,l)
);
}
);
width = 900;
},
{
backgroundImage = {
imagePath = "../reference/@Celes/uppercase/M.png";
locked = 1;
pos = (26,-109);
scale = (14,14);
};
guides = (
{
angle = 24.6916;
pos = (219,580);
}
);
layerId = m006;
shapes = (
{
closed = 1;
nodes = (
(1166,0,l),
(1194,30,l),
(1059,30,l),
(745,560,l),
(633,560,l),
(601,530,l),
(715,530,l),
(1024,0,l)
);
},
{
closed = 1;
nodes = (
(219,70,l),
(219,620,l),
(179,602,l),
(179,70,l)
);
},
{
closed = 1;
nodes = (
(219,660,l),
(219,700,l),
(45,620,l),
(133,620,l)
);
},
{
closed = 1;
nodes = (
(856,0,l),
(884,30,l),
(749,30,l),
(435,560,l),
(323,560,l),
(291,530,l),
(405,530,l),
(714,0,l)
);
},
{
closed = 1;
nodes = (
(56,30,l),
(28,0,l),
(374,0,l),
(402,30,l)
);
}
);
width = 1220;
}
);
unicode = 77;
},
{
color = 1;
glyphname = N;
kernLeft = N;
kernRight = N;
lastChange = "2024-11-25 00:40:07 +0000";
layers = (
{
anchors = (
{
name = top;
pos = (397,595);
}
);
annotations = (
{
pos = (620,-24);
text = " contrast";
type = Text;
},
{
angle = -56.39173;
pos = (621,50);
type = Arrow;
}
);
backgroundImage = {
imagePath = "../reference/@Celes/uppercase/N.png";
locked = 1;
pos = (100,0);
scale = (14,14);
};
guides = (
{
angle = 120.198;
pos = (267,110);
},
{
angle = -58.4419;
pos = (561,630);
}
);
layerId = m01;
shapes = (
{
closed = 1;
nodes = (
(267,466,l),
(267,700,l),
(127,700,l),
(174,650,l),
(173,466,l)
);
},
{
closed = 1;
nodes = (
(450,-10,l),
(450,100,l),
(397,100,l),
(249,356,l),
(347,356,l),
(404,426,l),
(87,426,l),
(25,356,l),
(171,356,l),
(384,-10,l)
);
},
{
closed = 1;
nodes = (
(267,30,l),
(267,111,l),
(167,283,l),
(167,-30,l)
);
},
{
closed = 1;
nodes = (
(662,119,l),
(662,376,l),
(463,700,l),
(362,700,l),
(562,336,l),
(562,156,l),
(490,100,l),
(490,-10,l)
);
},
{
closed = 1;
nodes = (
(657,630,l),
(703,700,l),
(503,700,l),
(546,630,l)
);
}
);
width = 730;
},
{
anchors = (
{
name = top;
pos = (504,605);
}
);
annotations = (
{
pos = (620,-24);
text = " contrast";
type = Text;
},
{
angle = -56.39173;
pos = (621,50);
type = Arrow;
}
);
backgroundImage = {
imagePath = "../reference/@Celes/uppercase/N.png";
locked = 1;
pos = (150,0);
scale = (14,14);
};
guides = (
{
angle = 120.5297;
pos = (347,110);
},
{
angle = 122.9052;
pos = (725,700);
}
);
layerId = m002;
shapes = (
{
closed = 1;
nodes = (
(347,471,l),
(347,700,l),
(135,700,l),
(193,609,l),
(193,471,l)
);
},
{
closed = 1;
nodes = (
(642,-10,l),
(642,130,l),
(490,130,l),
(356,341,l),
(436,341,l),
(517,441,l),
(119,441,l),
(30,341,l),
(204,341,l),
(411,-10,l)
);
},
{
closed = 1;
nodes = (
(347,28,l),
(347,28,l),
(187,299,l),
(187,-30,l)
);
},
{
closed = 1;
nodes = (
(832,-10,l),
(832,377,l),
(623,700,l),
(490,700,l),
(672,335,l),
(672,130,l),
(672,130,l),
(672,-10,l)
);
},
{
closed = 1;
nodes = (
(818,615,l),
(883,700,l),
(663,700,l),
(718,615,l)
);
}
);
width = 910;
},
{
anchors = (
{
name = top;
pos = (514,595);
}
);
annotations = (
{
pos = (620,-24);
text = " contrast";
type = Text;
},
{
angle = -56.39173;
pos = (621,50);
type = Arrow;
}
);
backgroundImage = {
imagePath = "../reference/@Celes/uppercase/N.png";
locked = 1;
pos = (210,0);
scale = (14,14);
};
guides = (
{
angle = 123.2425;
pos = (317,172);
},
{
angle = 128.0947;
pos = (668,700);
}
);
layerId = m004;
shapes = (
{
closed = 1;
nodes = (
(317,486,l),
(317,700,l),
(137,700,l),
(222,620,l),
(222,486,l)
);
},
{
closed = 1;
nodes = (
(574,-10,l),
(574,100,l),
(487,100,l),
(317,376,l),
(457,376,l),
(514,446,l),
(87,446,l),
(25,376,l),
(221,376,l),
(474,-10,l)
);
},
{
closed = 1;
nodes = (
(317,30,l),
(317,149,l),
(217,302,l),
(217,-30,l)
);
},
{
closed = 1;
nodes = (
(872,119,l),
(872,376,l),
(618,700,l),
(524,700,l),
(772,336,l),
(772,197,l),
(624,100,l),
(624,-10,l)
);
},
{
closed = 1;
nodes = (
(887,630,l),
(933,700,l),
(658,700,l),
(713,630,l)
);
}
);
width = 960;
},
{
anchors = (
{
name = top;
pos = (354,595);
}
);
annotations = (
{
pos = (620,-24);
text = " contrast";
type = Text;
},
{
angle = -56.39173;
pos = (621,50);
type = Arrow;
}
);
backgroundImage = {
imagePath = "../reference/@Celes/uppercase/N.png";
locked = 1;
pos = (50,0);
scale = (14,14);
};
guides = (
{
angle = 115.7278;
pos = (187,223);
},
{
angle = 114.106;
pos = (483,700);
}
);
layerId = m005;
shapes = (
{
closed = 1;
nodes = (
(187,446,l),
(187,700,l),
(126,700,l),
(147,675,l),
(147,446,l)
);
},
{
closed = 1;
nodes = (
(390,-10,l),
(390,34,l),
(352,34,l),
(189,376,l),
(280,376,l),
(304,406,l),
(53,406,l),
(27,376,l),
(147,376,l),
(333,-10,l)
);
},
{
closed = 1;
nodes = (
(187,0,l),
(187,213,l),
(147,296,l),
(147,-30,l)
);
},
{
closed = 1;
nodes = (
(582,107,l),
(582,367,l),
(433,700,l),
(390,700,l),
(542,363,l),
(542,114,l),
(440,34,l),
(440,-10,l)
);
},
{
closed = 1;
nodes = (
(600,660,l),
(628,700,l),
(473,700,l),
(490,660,l)
);
}
);
width = 660;
},
{
anchors = (
{
name = top;
pos = (484,595);
}
);
annotations = (
{
pos = (620,-24);
text = " contrast";
type = Text;
},
{
angle = -56.39173;
pos = (621,50);
type = Arrow;
}
);
backgroundImage = {
imagePath = "../reference/@Celes/uppercase/N.png";
locked = 1;
pos = (180,0);
scale = (14,14);
};
guides = (
{
angle = 124.249;
pos = (237,240);
},
{
angle = 120.5366;
pos = (685,700);
}
);
layerId = m006;
shapes = (
{
closed = 1;
nodes = (
(237,436,l),
(237,700,l),
(176,700,l),
(197,675,l),
(197,436,l)
);
},
{
closed = 1;
nodes = (
(566,-10,l),
(566,25,l),
(482,25,l),
(247,366,l),
(410,366,l),
(434,396,l),
(53,396,l),
(27,366,l),
(197,366,l),
(453,-10,l)
);
},
{
closed = 1;
nodes = (
(237,0,l),
(237,227,l),
(197,286,l),
(197,-30,l)
);
},
{
closed = 1;
nodes = (
(812,107,l),
(812,383,l),
(625,700,l),
(573,700,l),
(772,363,l),
(772,114,l),
(626,25,l),
(626,-10,l)
);
},
{
closed = 1;
nodes = (
(830,660,l),
(858,700,l),
(665,700,l),
(688,660,l)
);
}
);
width = 890;
}
);
unicode = 78;
},
{
color = 1;
glyphname = O;
kernLeft = O;
kernRight = O;
lastChange = "2024-11-25 00:42:01 +0000";
layers = (
{
anchors = (
{
name = top;
pos = (239,595);
}
);
backgroundImage = {
imagePath = "../reference/@Celes/uppercase/O.png";
locked = 1;
pos = (-283,-119);
scale = (14,14);
};
guides = (
{
angle = 270;
pos = (142,358);
}
);
layerId = m01;
shapes = (
{
closed = 1;
nodes = (
(448,120,l),
(448,556,l),
(278,700,l),
(118,700,l),
(42,629,l),
(209,629,l),
(348,496,l),
(348,172,l)
);
},
{
closed = 1;
nodes = (
(271,60,l),
(142,200,l),
(142,516,l),
(42,569,l),
(42,152,l),
(190,-10,l),
(368,-10,l),
(448,60,l)
);
}
);
width = 490;
},
{
anchors = (
{
name = top;
pos = (319,605);
}
);
backgroundImage = {
imagePath = "../reference/@Celes/uppercase/O.png";
locked = 1;
pos = (-253,-119);
scale = (14,14);
};
guides = (
{
angle = 270;
pos = (202,336);
}
);
layerId = m002;
shapes = (
{
closed = 1;
nodes = (
(548,154,l),
(548,558,l),
(363,710,l),
(132,710,l),
(42,610,l),
(263,610,l),
(388,494,l),
(388,224,l)
);
},
{
closed = 1;
nodes = (
(319,90,l),
(202,202,l),
(202,469,l),
(42,553,l),
(42,150,l),
(202,-10,l),
(456,-10,l),
(548,90,l)
);
}
);
width = 590;
},
{
anchors = (
{
name = top;
pos = (329,595);
}
);
backgroundImage = {
imagePath = "../reference/@Celes/uppercase/O.png";
locked = 1;
pos = (-193,-119);
scale = (14,14);
};
guides = (
{
angle = 270;
pos = (142,356);
}
);
layerId = m004;
shapes = (
{
closed = 1;
nodes = (
(628,122,l),
(628,556,l),
(458,700,l),
(118,700,l),
(42,630,l),
(389,630,l),
(528,506,l),
(528,177,l)
);
},
{
closed = 1;
nodes = (
(271,60,l),
(142,200,l),
(142,512,l),
(42,582,l),
(42,152,l),
(190,-10,l),
(548,-10,l),
(628,60,l)
);
}
);
width = 670;
},
{
anchors = (
{
name = top;
pos = (209,595);
}
);
backgroundImage = {
imagePath = "../reference/@Celes/uppercase/O.png";
locked = 1;
pos = (-313,-119);
scale = (14,14);
};
guides = (
{
angle = 270;
pos = (82,382);
}
);
layerId = m005;
shapes = (
{
closed = 1;
nodes = (
(388,69,l),
(388,580,l),
(249,700,l),
(84,700,l),
(49,670,l),
(218,670,l),
(348,555,l),
(348,106,l)
);
},
{
closed = 1;
nodes = (
(209,20,l),
(82,160,l),
(82,604,l),
(42,625,l),
(42,137,l),
(176,-10,l),
(352,-10,l),
(388,20,l)
);
}
);
width = 430;
},
{
anchors = (
{
name = top;
pos = (299,595);
}
);
backgroundImage = {
imagePath = "../reference/@Celes/uppercase/O.png";
locked = 1;
pos = (-223,-119);
scale = (14,14);
};
guides = (
{
angle = 270;
pos = (82,372);
}
);
layerId = m006;
shapes = (
{
closed = 1;
nodes = (
(578,67,l),
(578,572,l),
(430,700,l),
(84,700,l),
(49,670,l),
(408,670,l),
(538,555,l),
(538,105,l)
);
},
{
closed = 1;
nodes = (
(201,20,l),
(82,153,l),
(82,590,l),
(42,624,l),
(42,137,l),
(176,-10,l),
(542,-10,l),
(578,20,l)
);
}
);
width = 620;
}
);
unicode = 79;
},
{
color = 3;
glyphname = Oslash;
kernLeft = O;
kernRight = O;
lastChange = "2024-11-24 07:22:34 +0000";
layers = (
{
associatedMasterId = m005;
layerId = "4401E2F1-6DCF-42BE-BE24-AC5BBE4ECBB3";
name = "Nov 24, 24 at 02:22";
shapes = (
{
closed = 1;
nodes = (
(85,-30,l),
(381,710,l),
(343,710,l),
(47,-30,l)
);
},
{
ref = O;
}
);
width = 430;
},
{
attr = {
axisRules = (
{
min = 300;
},
{
}
);
};
guides = (
{
angle = 138.5035;
pos = (283,573);
},
{
angle = -47.7875;
pos = (146,130);
},
{
angle = 132.3512;
pos = (109,24);
},
{
angle = -40.8043;
pos = (319,680);
},
{
angle = 270;
pos = (112,382);
},
{
angle = 90;
pos = (318,331);
},
{
angle = 68.1986;
pos = (195,340);
},
{
angle = 68.1986;
pos = (233,340);
}
);
layerId = m005;
name = "wg100, wd100";
shapes = (
{
closed = 1;
nodes = (
(315,545,l),
(315,545,l),
(287,569,l),
(122,156,l),
(122,156,l),
(148,127,l)
);
},
{
closed = 1;
nodes = (
(85,-30,l),
(107,26,l),
(81,55,l),
(47,-30,l)
);
},
{
closed = 1;
nodes = (
(381,710,l),
(343,710,l),
(328,672,l),
(356,648,l)
);
},
{
locked = 1;
ref = O;
}
);
width = 430;
},
{
associatedMasterId = m006;
layerId = "C676BB00-1649-4C7E-A1D8-2117ED93DD9B";
name = "Nov 24, 24 at 02:22";
shapes = (
{
closed = 1;
nodes = (
(37,-30,l),
(75,-30,l),
(571,710,l),
(533,710,l)
);
},
{
ref = O;
}
);
width = 620;
},
{
attr = {
axisRules = (
{
min = 300;
},
{
}
);
};
guides = (
{
angle = -48.1798;
pos = (142,127);
},
{
angle = 138.5035;
pos = (473,573);
},
{
angle = -40.8554;
pos = (504,676);
},
{
angle = 132.3512;
pos = (109,24);
},
{
angle = 270;
pos = (112,372);
},
{
angle = 90;
pos = (508,330);
},
{
angle = 56.1672;
pos = (285,340);
},
{
angle = 56.1672;
pos = (323,340);
}
);
layerId = m006;
name = "wg100, wd200";
shapes = (
{
closed = 1;
nodes = (
(477,570,l),
(477,570,l),
(453,590,l),
(142,127,l),
(142,127,l),
(164,102,l)
);
},
{
closed = 1;
nodes = (
(75,-30,l),
(110,23,l),
(88,47,l),
(37,-30,l)
);
},
{
closed = 1;
nodes = (
(571,710,l),
(533,710,l),
(508,673,l),
(532,652,l)
);
},
{
locked = 1;
ref = O;
}
);
width = 620;
},
{
associatedMasterId = m01;
layerId = "72723CAB-51D0-4B03-9C3C-563475EA560A";
name = "Nov 24, 24 at 02:22";
shapes = (
{
closed = 1;
nodes = (
(50,-30,l),
(150,-30,l),
(440,720,l),
(340,720,l)
);
},
{
ref = O;
}
);
width = 490;
},
{
attr = {
axisRules = (
{
min = 300;
},
{
}
);
};
guides = (
{
angle = 136.2637;
pos = (279,523);
},
{
angle = -47.3416;
pos = (207,170);
},
{
angle = -40.2666;
pos = (363,658);
},
{
angle = 132.4142;
pos = (116,31);
},
{
angle = 270;
pos = (172,358);
},
{
angle = 90;
pos = (318,334);
},
{
angle = 250.1872;
pos = (182,335);
},
{
angle = 70.3959;
pos = (302,335);
}
);
layerId = m01;
name = "wg500, wd100";
shapes = (
{
closed = 1;
nodes = (
(318,380,l),
(318,486,l),
(257,544,l),
(172,307,l),
(172,208,l),
(233,142,l)
);
},
{
closed = 1;
nodes = (
(172,-30,l),
(172,-30,l),
(85,65,l),
(50,-30,l)
);
},
{
closed = 1;
nodes = (
(432,700,l),
(313,700,l),
(313,700,l),
(405,623,l)
);
},
{
locked = 1;
ref = O;
}
);
width = 490;
},
{
associatedMasterId = m004;
layerId = "9F2C89A4-22B4-404B-B665-00D258ECB6DB";
name = "Nov 24, 24 at 02:22";
shapes = (
{
closed = 1;
nodes = (
(10,-30,l),
(110,-30,l),
(650,720,l),
(550,720,l)
);
},
{
ref = O;
}
);
width = 670;
},
{
attr = {
axisRules = (
{
min = 300;
},
{
}
);
};
guides = (
{
angle = -47.3416;
pos = (207,170);
},
{
angle = 138.2643;
pos = (459,528);
},
{
angle = -40.2666;
pos = (543,668);
},
{
angle = 132.4142;
pos = (116,31);
},
{
angle = 270;
pos = (172,356);
},
{
angle = 90;
pos = (498,342);
},
{
angle = 54.2461;
pos = (280,345);
},
{
angle = 54.2461;
pos = (380,345);
}
);
layerId = m004;
name = "wg500, wd200";
shapes = (
{
closed = 1;
nodes = (
(491,499,l),
(491,499,l),
(430,554,l),
(177,202,l),
(177,202,l),
(233,141,l)
);
},
{
closed = 1;
nodes = (
(110,-30,l),
(137,8,l),
(81,69,l),
(10,-30,l)
);
},
{
closed = 1;
nodes = (
(650,720,l),
(550,720,l),
(524,684,l),
(586,631,l)
);
},
{
locked = 1;
ref = O;
}
);
width = 670;
},
{
associatedMasterId = m002;
layerId = "D764ED15-FF51-4547-8ED1-572B3604834C";
name = "Nov 24, 24 at 02:22";
shapes = (
{
closed = 1;
nodes = (
(44,-60,l),
(204,-60,l),
(566,750,l),
(406,750,l)
);
},
{
ref = O;
}
);
width = 490;
},
{
attr = {
axisRules = (
{
min = 300;
},
{
}
);
};
guides = (
{
angle = 137.1387;
pos = (326,512);
},
{
angle = -43.7492;
pos = (261,186);
},
{
angle = 135;
pos = (122,30);
},
{
angle = -39.4073;
pos = (456,674);
},
{
angle = 270;
pos = (232,336);
},
{
angle = 90;
pos = (358,359);
},
{
angle = 65.9195;
pos = (225,345);
},
{
angle = 65.9195;
pos = (385,345);
}
);
layerId = m002;
name = "wg900, wd100";
shapes = (
{
closed = 1;
nodes = (
(358,285,l),
(358,482,l),
(307,529,l),
(232,360,l),
(232,214,l),
(298,151,l)
);
},
{
closed = 1;
nodes = (
(206,-54,l),
(206,-54,l),
(96,56,l),
(47,-54,l)
);
},
{
closed = 1;
nodes = (
(566,750,l),
(406,750,l),
(395,724,l),
(512,628,l)
);
},
{
locked = 1;
ref = O;
}
);
width = 590;
}
);
unicode = 216;
},
{
color = 3;
glyphname = OE;
kernLeft = O;
kernRight = E;
lastChange = "2024-11-24 07:49:42 +0000";
layers = (
{
layerId = m01;
shapes = (
{
closed = 1;
nodes = (
(677,-10,l),
(812,147,l),
(812,275,l),
(712,275,l),
(712,174,l),
(625,60,l),
(547,60,l),
(468,184,l),
(468,600,l),
(368,700,l),
(128,700,l),
(52,630,l),
(299,630,l),
(368,560,l),
(368,171,l),
(505,-10,l)
);
},
{
closed = 1;
nodes = (
(355,-10,l),
(397,60,l),
(271,60,l),
(142,200,l),
(142,531,l),
(42,595,l),
(42,152,l),
(190,-10,l)
);
},
{
closed = 1;
nodes = (
(870,315,l),
(935,385,l),
(617,385,l),
(552,315,l)
);
},
{
closed = 1;
nodes = (
(812,425,l),
(812,650,l),
(763,700,l),
(545,700,l),
(487,630,l),
(712,630,l),
(712,425,l)
);
}
);
width = 963;
},
{
layerId = m002;
shapes = (
{
closed = 1;
nodes = (
(775,-25,l),
(992,146,l),
(992,270,l),
(832,270,l),
(832,175,l),
(701,75,l),
(638,75,l),
(548,194,l),
(548,615,l),
(384,715,l),
(132,715,l),
(42,615,l),
(274,615,l),
(388,558,l),
(388,202,l),
(572,-25,l)
);
},
{
closed = 1;
nodes = (
(399,-25,l),
(455,75,l),
(289,75,l),
(202,202,l),
(202,518,l),
(42,579,l),
(42,150,l),
(172,-25,l)
);
},
{
closed = 1;
nodes = (
(1038,300,l),
(1130,400,l),
(781,400,l),
(682,300,l)
);
},
{
closed = 1;
nodes = (
(992,430,l),
(992,652,l),
(930,715,l),
(651,715,l),
(576,615,l),
(832,615,l),
(832,430,l)
);
}
);
width = 1163;
},
{
layerId = m004;
shapes = (
{
closed = 1;
nodes = (
(927,-10,l),
(1092,147,l),
(1092,275,l),
(992,275,l),
(992,174,l),
(875,60,l),
(709,60,l),
(628,137,l),
(628,550,l),
(488,700,l),
(118,700,l),
(42,630,l),
(419,630,l),
(528,510,l),
(528,104,l),
(675,-10,l)
);
},
{
closed = 1;
nodes = (
(500,-10,l),
(546,60,l),
(271,60,l),
(142,200,l),
(142,537,l),
(42,586,l),
(42,152,l),
(190,-10,l)
);
},
{
closed = 1;
nodes = (
(1210,315,l),
(1275,385,l),
(777,385,l),
(712,315,l)
);
},
{
closed = 1;
nodes = (
(1092,425,l),
(1092,650,l),
(1003,700,l),
(694,700,l),
(628,630,l),
(992,630,l),
(992,425,l)
);
}
);
width = 1303;
},
{
layerId = m005;
shapes = (
{
closed = 1;
nodes = (
(604,10,l),
(722,122,l),
(722,305,l),
(682,305,l),
(682,132,l),
(581,40,l),
(456,40,l),
(408,105,l),
(408,595,l),
(297,700,l),
(71,700,l),
(42,670,l),
(271,670,l),
(368,583,l),
(368,95,l),
(448,10,l)
);
},
{
closed = 1;
nodes = (
(333,10,l),
(360,40,l),
(209,40,l),
(82,181,l),
(82,611,l),
(42,645,l),
(42,157,l),
(176,10,l)
);
},
{
closed = 1;
nodes = (
(814,345,l),
(842,375,l),
(513,375,l),
(485,345,l)
);
},
{
closed = 1;
nodes = (
(722,415,l),
(722,665,l),
(687,700,l),
(419,700,l),
(391,670,l),
(682,670,l),
(682,415,l)
);
}
);
width = 883;
},
{
layerId = m006;
shapes = (
{
closed = 1;
nodes = (
(904,10,l),
(1032,122,l),
(1032,305,l),
(992,305,l),
(992,132,l),
(881,40,l),
(666,40,l),
(558,109,l),
(558,595,l),
(467,700,l),
(79,700,l),
(42,670,l),
(441,670,l),
(518,583,l),
(518,90,l),
(658,10,l)
);
},
{
closed = 1;
nodes = (
(513,10,l),
(539,40,l),
(209,40,l),
(82,181,l),
(82,613,l),
(42,630,l),
(42,157,l),
(176,10,l)
);
},
{
closed = 1;
nodes = (
(1164,345,l),
(1192,375,l),
(723,375,l),
(695,345,l)
);
},
{
closed = 1;
nodes = (
(1032,415,l),
(1032,665,l),
(997,700,l),
(601,700,l),
(569,670,l),
(992,670,l),
(992,415,l)
);
}
);
width = 1223;
}
);
metricLeft = O;
metricRight = E;
unicode = 338;
},
{
color = 1;
glyphname = P;
kernLeft = P;
kernRight = P;
lastChange = "2024-11-24 01:34:42 +0000";
layers = (
{
backgroundImage = {
imagePath = "../reference/@Celes/uppercase/P.png";
locked = 1;
pos = (-185,-116);
scale = (14,14);
};
guides = (
{
angle = 214.992;
pos = (99,521);
}
);
layerId = m01;
shapes = (
{
closed = 1;
nodes = (
(99,580,l),
(199,650,l),
(199,700,l),
(25,580,l)
);
},
{
closed = 1;
nodes = (
(293,-10,l),
(293,70,l),
(293,70,l),
(199,224,l),
(199,610,l),
(99,540,l),
(99,183,l),
(237,-10,l)
);
},
{
closed = 1;
nodes = (
(433,-10,l),
(433,417,l),
(465,449,l),
(465,519,l),
(333,444,l),
(333,-10,l)
);
},
{
closed = 1;
nodes = (
(500,-10,l),
(662,135,l),
(662,404,l),
(505,519,l),
(505,449,l),
(562,375,l),
(562,151,l),
(473,70,l),
(473,70,l),
(473,-10,l)
);
}
);
width = 690;
},
{
backgroundImage = {
imagePath = "../reference/@Celes/uppercase/P.png";
locked = 1;
pos = (-140,0);
scale = (14,14);
};
guides = (
{
angle = 203.6294;
pos = (279,565);
}
);
layerId = m002;
shapes = (
{
closed = 1;
nodes = (
(119,550,l),
(279,620,l),
(279,700,l),
(27,550,l)
);
},
{
closed = 1;
nodes = (
(363,-10,l),
(363,100,l),
(363,100,l),
(279,225,l),
(279,580,l),
(119,510,l),
(119,182,l),
(279,-10,l)
);
},
{
closed = 1;
nodes = (
(553,-10,l),
(553,406,l),
(574,425,l),
(574,525,l),
(393,438,l),
(393,-10,l)
);
},
{
closed = 1;
nodes = (
(583,-10,l),
(802,133,l),
(802,406,l),
(604,525,l),
(604,425,l),
(642,345,l),
(642,137,l),
(583,100,l),
(583,100,l),
(583,-10,l)
);
}
);
width = 840;
},
{
backgroundImage = {
imagePath = "../reference/@Celes/uppercase/P.png";
locked = 1;
pos = (-70,0);
scale = (14,14);
};
guides = (
{
angle = 30.4655;
pos = (229,586);
}
);
layerId = m004;
shapes = (
{
closed = 1;
nodes = (
(110,580,l),
(229,650,l),
(229,700,l),
(25,580,l)
);
},
{
closed = 1;
nodes = (
(403,-10,l),
(403,60,l),
(328,60,l),
(229,224,l),
(229,610,l),
(129,551,l),
(129,183,l),
(251,-10,l)
);
},
{
closed = 1;
nodes = (
(553,-10,l),
(553,395,l),
(617,447,l),
(617,527,l),
(453,422,l),
(453,-10,l)
);
},
{
closed = 1;
nodes = (
(707,-10,l),
(872,135,l),
(872,424,l),
(667,527,l),
(667,447,l),
(772,367,l),
(772,135,l),
(696,60,l),
(603,60,l),
(603,-10,l)
);
}
);
width = 900;
},
{
backgroundImage = {
imagePath = "../reference/@Celes/uppercase/P.png";
locked = 1;
pos = (-240,0);
scale = (14,14);
};
guides = (
{
angle = 42.2737;
pos = (119,603);
}
);
layerId = m005;
shapes = (
{
closed = 1;
nodes = (
(75,620,l),
(119,660,l),
(119,700,l),
(31,620,l)
);
},
{
closed = 1;
nodes = (
(256,-10,l),
(256,30,l),
(256,30,l),
(119,134,l),
(119,620,l),
(79,584,l),
(79,109,l),
(256,-10,l)
);
},
{
closed = 1;
nodes = (
(346,-10,l),
(346,394,l),
(413,458,l),
(413,498,l),
(306,409,l),
(306,-10,l)
);
},
{
closed = 1;
nodes = (
(396,-10,l),
(582,80,l),
(582,393,l),
(463,498,l),
(463,458,l),
(542,365,l),
(542,90,l),
(396,30,l),
(396,30,l),
(396,-10,l)
);
}
);
width = 620;
},
{
backgroundImage = {
imagePath = "../reference/@Celes/uppercase/P.png";
locked = 1;
pos = (-120,0);
scale = (14,14);
};
guides = (
{
angle = 28.393;
pos = (169,605);
}
);
layerId = m006;
shapes = (
{
closed = 1;
nodes = (
(95,620,l),
(169,660,l),
(169,700,l),
(21,620,l)
);
},
{
closed = 1;
nodes = (
(406,-10,l),
(406,20,l),
(293,20,l),
(169,211,l),
(169,620,l),
(129,598,l),
(129,186,l),
(260,-10,l)
);
},
{
closed = 1;
nodes = (
(506,-10,l),
(506,369,l),
(608,467,l),
(608,507,l),
(466,390,l),
(466,-10,l)
);
},
{
closed = 1;
nodes = (
(683,-10,l),
(832,119,l),
(832,393,l),
(668,507,l),
(668,467,l),
(792,365,l),
(792,129,l),
(678,20,l),
(566,20,l),
(566,-10,l)
);
}
);
width = 880;
}
);
unicode = 80;
},
{
color = 3;
glyphname = Q;
kernLeft = Q;
kernRight = RCH;
lastChange = "2024-11-24 01:36:14 +0000";
layers = (
{
guides = (
{
angle = 214.992;
pos = (393,531);
}
);
layerId = m01;
shapes = (
{
closed = 1;
nodes = (
(393,580,l),
(493,650,l),
(493,700,l),
(314,580,l)
);
},
{
closed = 1;
nodes = (
(493,30,l),
(493,610,l),
(393,540,l),
(393,-30,l)
);
},
{
closed = 1;
nodes = (
(130,410,l),
(299,410,l),
(353,385,l),
(353,454,l),
(296,480,l),
(119,480,l),
(30,399,l),
(30,267,l),
(130,210,l)
);
},
{
closed = 1;
nodes = (
(130,-20,l),
(271,80,l),
(270,214,l),
(170,280,l),
(170,280,l),
(170,210,l),
(170,210,l),
(171,90,l),
(80,-20,l)
);
}
);
width = 540;
},
{
guides = (
{
angle = 203.6294;
pos = (613,566);
}
);
layerId = m002;
shapes = (
{
closed = 1;
nodes = (
(453,550,l),
(613,620,l),
(613,700,l),
(356,550,l)
);
},
{
closed = 1;
nodes = (
(613,66,l),
(613,580,l),
(453,510,l),
(453,-30,l)
);
},
{
closed = 1;
nodes = (
(180,395,l),
(346,395,l),
(423,363,l),
(423,472,l),
(369,495,l),
(163,495,l),
(30,401,l),
(30,264,l),
(180,195,l)
);
},
{
closed = 1;
nodes = (
(199,-20,l),
(361,77,l),
(360,216,l),
(210,295,l),
(210,295,l),
(210,195,l),
(210,195,l),
(211,91,l),
(93,-20,l)
);
}
);
width = 660;
},
{
guides = (
{
angle = 28.7203;
pos = (673,555);
}
);
layerId = m004;
shapes = (
{
closed = 1;
nodes = (
(545,580,l),
(673,650,l),
(673,700,l),
(454,580,l)
);
},
{
closed = 1;
nodes = (
(673,30,l),
(673,610,l),
(573,555,l),
(573,-30,l)
);
},
{
closed = 1;
nodes = (
(130,410,l),
(397,410,l),
(523,373,l),
(523,443,l),
(404,480,l),
(119,480,l),
(30,399,l),
(30,267,l),
(130,210,l)
);
},
{
closed = 1;
nodes = (
(195,-20,l),
(376,100,l),
(375,214,l),
(311,280,l),
(180,280,l),
(180,210,l),
(275,210,l),
(276,110,l),
(145,-20,l)
);
}
);
width = 720;
},
{
guides = (
{
angle = 41.3194;
pos = (443,595);
}
);
layerId = m005;
shapes = (
{
closed = 1;
nodes = (
(397,620,l),
(443,660,l),
(443,700,l),
(352,620,l)
);
},
{
closed = 1;
nodes = (
(443,0,l),
(443,620,l),
(403,585,l),
(403,-30,l)
);
},
{
closed = 1;
nodes = (
(80,430,l),
(291,430,l),
(353,379,l),
(353,410,l),
(296,460,l),
(73,460,l),
(40,428,l),
(40,264,l),
(80,230,l)
);
},
{
closed = 1;
nodes = (
(123,-20,l),
(256,88,l),
(255,230,l),
(216,260,l),
(130,260,l),
(130,230,l),
(216,230,l),
(216,96,l),
(98,-20,l)
);
}
);
width = 490;
},
{
guides = (
{
angle = 31.4119;
pos = (623,601);
}
);
layerId = m006;
shapes = (
{
closed = 1;
nodes = (
(557,620,l),
(623,660,l),
(623,700,l),
(492,620,l)
);
},
{
closed = 1;
nodes = (
(623,0,l),
(623,620,l),
(583,596,l),
(583,-30,l)
);
},
{
closed = 1;
nodes = (
(80,430,l),
(411,430,l),
(523,375,l),
(523,407,l),
(426,460,l),
(73,460,l),
(40,428,l),
(40,264,l),
(80,230,l)
);
},
{
closed = 1;
nodes = (
(153,-20,l),
(316,88,l),
(315,230,l),
(281,260,l),
(140,260,l),
(140,230,l),
(276,230,l),
(276,107,l),
(128,-20,l)
);
}
);
width = 670;
}
);
unicode = 81;
},
{
color = 1;
glyphname = R;
kernLeft = LCH;
kernRight = R;
lastChange = "2024-11-24 01:45:37 +0000";
layers = (
{
backgroundImage = {
imagePath = "../reference/@Celes/uppercase/R.png";
locked = 1;
pos = (-263,-157);
scale = (14,14);
};
guides = (
{
angle = 214.992;
pos = (95,505);
},
{
angle = 21.1317;
pos = (370,235);
}
);
layerId = m01;
shapes = (
{
closed = 1;
nodes = (
(95,580,l),
(195,650,l),
(195,700,l),
(15,580,l)
);
},
{
closed = 1;
nodes = (
(195,30,l),
(195,610,l),
(95,540,l),
(95,-30,l)
);
},
{
closed = 1;
nodes = (
(371,446,l),
(371,509,l),
(235,426,l),
(235,357,l)
);
},
{
closed = 1;
nodes = (
(551,237,l),
(551,437,l),
(411,509,l),
(411,446,l),
(451,426,l),
(451,266,l),
(418,254,l),
(418,184,l)
);
},
{
closed = 1;
nodes = (
(378,242,l),
(278,200,l),
(278,32,l),
(378,-10,l)
);
},
{
closed = 1;
nodes = (
(448,-10,l),
(540,60,l),
(418,60,l),
(418,-10,l)
);
}
);
width = 590;
},
{
backgroundImage = {
imagePath = "../reference/@Celes/uppercase/R.png";
locked = 1;
pos = (-10,0);
scale = (14,14);
};
guides = (
{
angle = 203.6294;
pos = (275,570);
},
{
angle = 33.6901;
pos = (515,287);
}
);
layerId = m002;
shapes = (
{
closed = 1;
nodes = (
(115,550,l),
(275,620,l),
(275,700,l),
(16,550,l)
);
},
{
closed = 1;
nodes = (
(275,66,l),
(275,580,l),
(115,510,l),
(115,-30,l)
);
},
{
closed = 1;
nodes = (
(412,394,l),
(412,494,l),
(305,462,l),
(305,351,l)
);
},
{
closed = 1;
nodes = (
(691,230,l),
(691,412,l),
(442,494,l),
(442,394,l),
(531,355,l),
(531,298,l),
(498,276,l),
(498,176,l)
);
},
{
closed = 1;
nodes = (
(468,261,l),
(308,172,l),
(308,57,l),
(468,-12,l)
);
},
{
closed = 1;
nodes = (
(581,-10,l),
(676,90,l),
(498,90,l),
(498,-10,l)
);
}
);
width = 730;
},
{
backgroundImage = {
imagePath = "../reference/@Celes/uppercase/R.png";
locked = 1;
pos = (20,0);
scale = (14,14);
};
guides = (
{
angle = 28.6105;
pos = (235,558);
},
{
angle = 17.8254;
pos = (560,251);
}
);
layerId = m004;
shapes = (
{
closed = 1;
nodes = (
(107,580,l),
(235,650,l),
(235,700,l),
(15,580,l)
);
},
{
closed = 1;
nodes = (
(235,30,l),
(235,610,l),
(135,555,l),
(135,-30,l)
);
},
{
closed = 1;
nodes = (
(492,410,l),
(492,480,l),
(285,436,l),
(285,366,l)
);
},
{
closed = 1;
nodes = (
(801,267,l),
(801,414,l),
(542,480,l),
(542,410,l),
(701,375,l),
(701,296,l),
(568,253,l),
(568,183,l)
);
},
{
closed = 1;
nodes = (
(518,240,l),
(418,205,l),
(418,32,l),
(518,-10,l)
);
},
{
closed = 1;
nodes = (
(744,-10,l),
(810,60,l),
(568,60,l),
(568,-10,l)
);
}
);
width = 850;
},
{
backgroundImage = {
imagePath = "../reference/@Celes/uppercase/R.png";
locked = 1;
pos = (-50,0);
scale = (14,14);
};
guides = (
{
angle = 41.0091;
pos = (125,606);
},
{
angle = 22.751;
pos = (395,246);
}
);
layerId = m005;
shapes = (
{
closed = 1;
nodes = (
(79,620,l),
(125,660,l),
(125,700,l),
(33,620,l)
);
},
{
closed = 1;
nodes = (
(125,0,l),
(125,620,l),
(85,585,l),
(85,-30,l)
);
},
{
closed = 1;
nodes = (
(309,455,l),
(309,490,l),
(175,406,l),
(175,371,l)
);
},
{
closed = 1;
nodes = (
(481,248,l),
(481,430,l),
(359,490,l),
(359,455,l),
(441,415,l),
(441,265,l),
(348,226,l),
(348,196,l)
);
},
{
closed = 1;
nodes = (
(298,209,l),
(258,191,l),
(258,24,l),
(298,-10,l)
);
},
{
closed = 1;
nodes = (
(428,-10,l),
(456,20,l),
(348,20,l),
(348,-10,l)
);
}
);
width = 520;
},
{
backgroundImage = {
imagePath = "../reference/@Celes/uppercase/R.png";
locked = 1;
pos = (90,0);
scale = (14,14);
};
guides = (
{
angle = 29.3961;
pos = (175,608);
},
{
angle = 18.2459;
pos = (555,240);
}
);
layerId = m006;
shapes = (
{
closed = 1;
nodes = (
(104,620,l),
(175,660,l),
(175,700,l),
(33,620,l)
);
},
{
closed = 1;
nodes = (
(175,0,l),
(175,620,l),
(135,597,l),
(135,-30,l)
);
},
{
closed = 1;
nodes = (
(436,445,l),
(436,480,l),
(235,399,l),
(235,362,l)
);
},
{
closed = 1;
nodes = (
(731,268,l),
(731,430,l),
(496,480,l),
(496,445,l),
(691,399,l),
(691,285,l),
(518,228,l),
(518,198,l)
);
},
{
closed = 1;
nodes = (
(458,210,l),
(418,195,l),
(418,24,l),
(458,-10,l)
);
},
{
closed = 1;
nodes = (
(718,-10,l),
(746,20,l),
(518,20,l),
(518,-10,l)
);
}
);
width = 770;
}
);
unicode = 82;
},
{
color = 1;
glyphname = S;
kernLeft = LCH;
kernRight = S;
lastChange = "2024-11-24 01:48:28 +0000";
layers = (
{
anchors = (
{
name = top;
pos = (342,600);
}
);
backgroundImage = {
imagePath = "../reference/@Celes/uppercase/S.png";
locked = 1;
pos = (-253,-128);
scale = (14,14);
};
guides = (
{
angle = 214.992;
pos = (105,514);
}
);
layerId = m01;
shapes = (
{
closed = 1;
nodes = (
(105,580,l),
(205,650,l),
(205,700,l),
(15,580,l)
);
},
{
closed = 1;
nodes = (
(205,30,l),
(205,610,l),
(105,540,l),
(105,-30,l)
);
},
{
closed = 1;
nodes = (
(384,410,l),
(384,480,l),
(245,421,l),
(245,344,l)
);
},
{
closed = 1;
nodes = (
(597,107,l),
(597,407,l),
(424,480,l),
(424,410,l),
(497,371,l),
(497,134,l),
(404,30,l),
(404,-20,l)
);
}
);
width = 630;
},
{
anchors = (
{
name = top;
pos = (466,600);
}
);
backgroundImage = {
imagePath = "../reference/@Celes/uppercase/S.png";
pos = (30,0);
scale = (14,14);
};
guides = (
{
angle = 203.6294;
pos = (285,542);
}
);
layerId = m002;
shapes = (
{
closed = 1;
nodes = (
(125,550,l),
(285,620,l),
(285,700,l),
(15,550,l)
);
},
{
closed = 1;
nodes = (
(285,66,l),
(285,580,l),
(125,510,l),
(125,-30,l)
);
},
{
closed = 1;
nodes = (
(470,395,l),
(470,495,l),
(315,441,l),
(315,323,l)
);
},
{
closed = 1;
nodes = (
(737,103,l),
(737,410,l),
(500,495,l),
(500,395,l),
(577,351,l),
(577,135,l),
(484,64,l),
(484,-30,l)
);
}
);
width = 770;
},
{
anchors = (
{
name = top;
pos = (480,600);
}
);
backgroundImage = {
imagePath = "../reference/@Celes/uppercase/S.png";
pos = (100,0);
scale = (14,14);
};
guides = (
{
angle = 27.5528;
pos = (245,561);
}
);
layerId = m004;
shapes = (
{
closed = 1;
nodes = (
(111,580,l),
(245,650,l),
(245,700,l),
(15,580,l)
);
},
{
closed = 1;
nodes = (
(245,30,l),
(245,610,l),
(145,558,l),
(145,-30,l)
);
},
{
closed = 1;
nodes = (
(505,410,l),
(505,480,l),
(295,402,l),
(295,326,l)
);
},
{
closed = 1;
nodes = (
(817,87,l),
(817,407,l),
(555,480,l),
(555,410,l),
(717,364,l),
(717,114,l),
(534,30,l),
(534,-20,l)
);
}
);
width = 850;
},
{
anchors = (
{
name = top;
pos = (292,560);
}
);
backgroundImage = {
imagePath = "../reference/@Celes/uppercase/S.png";
pos = (-70,0);
scale = (14,14);
};
guides = (
{
angle = 38.941;
pos = (125,615);
}
);
layerId = m005;
shapes = (
{
closed = 1;
nodes = (
(75,620,l),
(125,660,l),
(125,700,l),
(26,620,l)
);
},
{
closed = 1;
nodes = (
(125,0,l),
(125,620,l),
(85,588,l),
(85,-30,l)
);
},
{
closed = 1;
nodes = (
(297,426,l),
(297,456,l),
(175,362,l),
(175,331,l)
);
},
{
closed = 1;
nodes = (
(497,95,l),
(497,396,l),
(347,456,l),
(347,426,l),
(457,375,l),
(457,109,l),
(337,5,l),
(337,-20,l)
);
}
);
width = 520;
},
{
anchors = (
{
name = top;
pos = (422,560);
}
);
backgroundImage = {
imagePath = "../reference/@Celes/uppercase/S.png";
pos = (60,0);
scale = (14,14);
};
guides = (
{
angle = 28.2319;
pos = (175,596);
}
);
layerId = m006;
shapes = (
{
closed = 1;
nodes = (
(100,620,l),
(175,660,l),
(175,700,l),
(26,620,l)
);
},
{
closed = 1;
nodes = (
(175,0,l),
(175,620,l),
(135,599,l),
(135,-30,l)
);
},
{
closed = 1;
nodes = (
(453,449,l),
(453,479,l),
(235,377,l),
(235,347,l)
);
},
{
closed = 1;
nodes = (
(737,109,l),
(737,426,l),
(513,479,l),
(513,449,l),
(697,396,l),
(697,129,l),
(507,5,l),
(507,-20,l)
);
}
);
width = 760;
}
);
unicode = 83;
},
{
color = 3;
glyphname = Germandbls;
kernLeft = LCH;
kernRight = Y;
lastChange = "2024-11-24 07:59:26 +0000";
layers = (
{
guides = (
{
angle = 38.1161;
pos = (472,404);
},
{
angle = 35.2176;
pos = (85,538);
}
);
layerId = m01;
shapes = (
{
closed = 1;
nodes = (
(85,580,l),
(185,650,l),
(185,700,l),
(15,580,l)
);
},
{
closed = 1;
nodes = (
(185,30,l),
(185,610,l),
(85,539,l),
(85,-30,l)
);
},
{
closed = 1;
nodes = (
(545,500,l),
(545,642,l),
(473,700,l),
(225,700,l),
(225,630,l),
(445,630,l),
(445,521,l),
(299,388,l),
(299,307,l)
);
},
{
closed = 1;
nodes = (
(498,-20,l),
(573,64,l),
(573,317,l),
(517,377,l),
(438,377,l),
(348,307,l),
(473,307,l),
(473,50,l),
(405,50,l),
(252,118,l),
(252,68,l),
(389,-20,l)
);
}
);
width = 610;
},
{
guides = (
{
angle = 33.1003;
pos = (487,355);
},
{
angle = 23.6294;
pos = (215,566);
}
);
layerId = m002;
shapes = (
{
closed = 1;
nodes = (
(55,550,l),
(215,620,l),
(215,700,l),
(-32,550,l)
);
},
{
closed = 1;
nodes = (
(215,66,l),
(215,580,l),
(55,510,l),
(55,-30,l)
);
},
{
closed = 1;
nodes = (
(645,498,l),
(645,630,l),
(558,700,l),
(266,700,l),
(266,600,l),
(475,600,l),
(475,523,l),
(329,390,l),
(329,292,l)
);
},
{
closed = 1;
nodes = (
(586,-20,l),
(673,78,l),
(673,319,l),
(604,392,l),
(544,392,l),
(390,292,l),
(513,292,l),
(513,80,l),
(451,80,l),
(292,170,l),
(292,84,l),
(436,-20,l)
);
}
);
width = 610;
},
{
guides = (
{
angle = 26.5651;
pos = (472,349);
},
{
angle = 35.2176;
pos = (85,587);
}
);
layerId = m004;
shapes = (
{
closed = 1;
nodes = (
(-15,580,l),
(85,650,l),
(85,700,l),
(-85,580,l)
);
},
{
closed = 1;
nodes = (
(85,30,l),
(85,610,l),
(-15,540,l),
(-15,-30,l)
);
},
{
closed = 1;
nodes = (
(675,490,l),
(675,642,l),
(603,700,l),
(135,700,l),
(135,630,l),
(575,630,l),
(575,541,l),
(269,358,l),
(269,287,l)
);
},
{
closed = 1;
nodes = (
(628,-20,l),
(703,64,l),
(703,287,l),
(647,357,l),
(488,357,l),
(348,287,l),
(603,287,l),
(603,50,l),
(365,50,l),
(182,168,l),
(182,118,l),
(349,-20,l)
);
}
);
width = 610;
},
{
guides = (
{
angle = 39.2291;
pos = (412,422);
},
{
angle = 43.2643;
pos = (105,618);
}
);
layerId = m005;
shapes = (
{
closed = 1;
nodes = (
(63,620,l),
(105,660,l),
(105,700,l),
(20,620,l)
);
},
{
closed = 1;
nodes = (
(105,0,l),
(105,620,l),
(65,582,l),
(65,-30,l)
);
},
{
closed = 1;
nodes = (
(465,506,l),
(465,666,l),
(425,700,l),
(155,700,l),
(155,670,l),
(425,670,l),
(425,521,l),
(258,382,l),
(258,337,l)
);
},
{
closed = 1;
nodes = (
(471,-20,l),
(513,23,l),
(513,322,l),
(471,367,l),
(345,367,l),
(308,337,l),
(473,337,l),
(473,10,l),
(347,10,l),
(202,81,l),
(202,56,l),
(329,-20,l)
);
}
);
width = 550;
},
{
guides = (
{
angle = 25.2584;
pos = (557,387);
},
{
angle = 30.6507;
pos = (155,606);
}
);
layerId = m006;
shapes = (
{
closed = 1;
nodes = (
(88,620,l),
(155,660,l),
(155,700,l),
(20,620,l)
);
},
{
closed = 1;
nodes = (
(155,0,l),
(155,620,l),
(115,596,l),
(115,-30,l)
);
},
{
closed = 1;
nodes = (
(725,506,l),
(725,666,l),
(685,700,l),
(215,700,l),
(215,670,l),
(685,670,l),
(685,521,l),
(388,382,l),
(388,347,l)
);
},
{
closed = 1;
nodes = (
(731,-20,l),
(773,13,l),
(773,342,l),
(741,377,l),
(536,377,l),
(472,347,l),
(733,347,l),
(733,10,l),
(467,10,l),
(322,101,l),
(322,76,l),
(449,-20,l)
);
}
);
width = 810;
}
);
unicode = 7838;
},
{
color = 1;
glyphname = T;
kernLeft = T;
kernRight = RCH;
lastChange = "2024-11-24 01:49:01 +0000";
layers = (
{
backgroundImage = {
imagePath = "../reference/@Celes/uppercase/T.png";
locked = 1;
pos = (-324,-131);
scale = (14,14);
};
guides = (
{
angle = 214.992;
pos = (310,549);
}
);
layerId = m01;
shapes = (
{
closed = 1;
nodes = (
(310,580,l),
(410,650,l),
(410,700,l),
(231,580,l)
);
},
{
closed = 1;
nodes = (
(410,30,l),
(410,610,l),
(310,540,l),
(310,-30,l)
);
},
{
closed = 1;
nodes = (
(172,410,l),
(270,410,l),
(270,480,l),
(154,480,l),
(28,366,l),
(28,316,l)
);
}
);
width = 450;
},
{
backgroundImage = {
imagePath = "../reference/@Celes/uppercase/T.png";
locked = 1;
pos = (-294,-131);
scale = (14,14);
};
guides = (
{
angle = 203.6294;
pos = (540,585);
}
);
layerId = m002;
shapes = (
{
closed = 1;
nodes = (
(380,550,l),
(540,620,l),
(540,700,l),
(283,550,l)
);
},
{
closed = 1;
nodes = (
(540,66,l),
(540,580,l),
(380,510,l),
(380,-30,l)
);
},
{
closed = 1;
nodes = (
(215,395,l),
(350,395,l),
(350,495,l),
(168,495,l),
(28,378,l),
(28,283,l)
);
}
);
width = 580;
},
{
backgroundImage = {
imagePath = "../reference/@Celes/uppercase/T.png";
locked = 1;
pos = (-214,-131);
scale = (14,14);
};
guides = (
{
angle = 28.7203;
pos = (630,585);
}
);
layerId = m004;
shapes = (
{
closed = 1;
nodes = (
(502,580,l),
(630,650,l),
(630,700,l),
(411,580,l)
);
},
{
closed = 1;
nodes = (
(630,30,l),
(630,610,l),
(530,555,l),
(530,-30,l)
);
},
{
closed = 1;
nodes = (
(212,410,l),
(480,410,l),
(480,480,l),
(194,480,l),
(28,366,l),
(28,316,l)
);
}
);
width = 670;
},
{
backgroundImage = {
imagePath = "../reference/@Celes/uppercase/T.png";
locked = 1;
pos = (-324,-131);
scale = (14,14);
};
guides = (
{
angle = 41.3194;
pos = (380,611);
}
);
layerId = m005;
shapes = (
{
closed = 1;
nodes = (
(334,620,l),
(380,660,l),
(380,700,l),
(289,620,l)
);
},
{
closed = 1;
nodes = (
(380,0,l),
(380,620,l),
(340,585,l),
(340,-30,l)
);
},
{
closed = 1;
nodes = (
(161,430,l),
(290,430,l),
(290,460,l),
(145,460,l),
(28,358,l),
(28,332,l)
);
}
);
width = 420;
},
{
backgroundImage = {
imagePath = "../reference/@Celes/uppercase/T.png";
locked = 1;
pos = (-204,-131);
scale = (14,14);
};
guides = (
{
angle = 29.5695;
pos = (600,602);
}
);
layerId = m006;
shapes = (
{
closed = 1;
nodes = (
(530,620,l),
(600,660,l),
(600,700,l),
(459,620,l)
);
},
{
closed = 1;
nodes = (
(600,0,l),
(600,620,l),
(560,597,l),
(560,-30,l)
);
},
{
closed = 1;
nodes = (
(211,430,l),
(500,430,l),
(500,460,l),
(195,460,l),
(28,358,l),
(28,332,l)
);
}
);
width = 640;
}
);
unicode = 84;
},
{
color = 1;
glyphname = U;
kernLeft = O;
kernRight = O;
lastChange = "2024-11-24 01:58:32 +0000";
layers = (
{
anchors = (
{
name = top;
pos = (334,600);
}
);
backgroundImage = {
imagePath = "../reference/@Celes/uppercase/U.png";
locked = 1;
pos = (-227,-123);
scale = (14,14);
};
guides = (
{
angle = 215.5377;
pos = (200,606);
}
);
layerId = m01;
shapes = (
{
closed = 1;
nodes = (
(127,580,l),
(225,650,l),
(225,700,l),
(30,580,l)
);
},
{
closed = 1;
nodes = (
(249,60,l),
(149,210,l),
(149,481,l),
(225,548,l),
(225,610,l),
(49,484,l),
(49,159,l),
(249,-10,l)
);
},
{
closed = 1;
nodes = (
(444,-10,l),
(625,230,l),
(625,316,l),
(525,316,l),
(525,235,l),
(400,60,l),
(289,60,l),
(289,-10,l)
);
},
{
closed = 1;
nodes = (
(388,273,l),
(388,700,l),
(288,594,l),
(288,213,l)
);
},
{
closed = 1;
nodes = (
(625,356,l),
(625,426,l),
(428,426,l),
(428,356,l)
);
},
{
closed = 1;
nodes = (
(625,466,l),
(480,700,l),
(428,700,l),
(428,630,l),
(428,630,l),
(525,466,l)
);
}
);
width = 660;
},
{
anchors = (
{
name = top;
pos = (444,620);
}
);
backgroundImage = {
imagePath = "../reference/@Celes/uppercase/U.png";
locked = 1;
pos = (-177,-123);
scale = (14,14);
};
guides = (
{
angle = 30.2824;
pos = (305,581);
}
);
layerId = m002;
shapes = (
{
closed = 1;
nodes = (
(168,550,l),
(305,630,l),
(305,710,l),
(31,550,l)
);
},
{
closed = 1;
nodes = (
(360,90,l),
(229,221,l),
(229,441,l),
(305,499,l),
(305,590,l),
(69,452,l),
(69,168,l),
(360,-10,l)
);
},
{
closed = 1;
nodes = (
(613,-10,l),
(805,221,l),
(805,311,l),
(645,311,l),
(645,236,l),
(530,90,l),
(390,90,l),
(390,-10,l)
);
},
{
closed = 1;
nodes = (
(518,269,l),
(518,700,l),
(358,581,l),
(358,173,l)
);
},
{
closed = 1;
nodes = (
(805,341,l),
(805,441,l),
(548,441,l),
(548,341,l)
);
},
{
closed = 1;
nodes = (
(805,471,l),
(645,700,l),
(548,700,l),
(548,639,l),
(548,639,l),
(645,471,l)
);
}
);
width = 840;
},
{
anchors = (
{
name = top;
pos = (444,600);
}
);
backgroundImage = {
imagePath = "../reference/@Celes/uppercase/U.png";
locked = 1;
pos = (-117,-123);
scale = (14,14);
};
guides = (
{
angle = 27.951;
pos = (275,531);
}
);
layerId = m004;
shapes = (
{
closed = 1;
nodes = (
(124,580,l),
(275,660,l),
(275,710,l),
(30,580,l)
);
},
{
closed = 1;
nodes = (
(316,60,l),
(149,200,l),
(149,429,l),
(275,536,l),
(275,620,l),
(49,460,l),
(49,149,l),
(316,-10,l)
);
},
{
closed = 1;
nodes = (
(654,-10,l),
(875,230,l),
(875,326,l),
(774,326,l),
(775,235,l),
(610,60,l),
(366,60,l),
(366,-10,l)
);
},
{
closed = 1;
nodes = (
(498,233,l),
(498,670,l),
(398,630,l),
(398,173,l)
);
},
{
closed = 1;
nodes = (
(875,366,l),
(875,436,l),
(548,436,l),
(548,366,l)
);
},
{
closed = 1;
nodes = (
(875,476,l),
(718,670,l),
(548,670,l),
(548,600,l),
(626,600,l),
(775,476,l)
);
}
);
width = 910;
},
{
anchors = (
{
name = top;
pos = (294,600);
}
);
backgroundImage = {
imagePath = "../reference/@Celes/uppercase/U.png";
locked = 1;
pos = (-267,-123);
scale = (14,14);
};
guides = (
{
angle = 40.3331;
pos = (155,559);
}
);
layerId = m005;
shapes = (
{
closed = 1;
nodes = (
(96,620,l),
(155,670,l),
(155,710,l),
(49,620,l)
);
},
{
closed = 1;
nodes = (
(190,41,l),
(79,194,l),
(79,517,l),
(155,582,l),
(155,630,l),
(39,532,l),
(39,173,l),
(190,-10,l)
);
},
{
closed = 1;
nodes = (
(416,-10,l),
(555,178,l),
(555,286,l),
(515,286,l),
(515,183,l),
(396,20,l),
(240,20,l),
(240,-10,l)
);
},
{
closed = 1;
nodes = (
(318,221,l),
(318,700,l),
(278,661,l),
(278,197,l)
);
},
{
closed = 1;
nodes = (
(555,326,l),
(555,356,l),
(368,356,l),
(368,326,l)
);
},
{
closed = 1;
nodes = (
(555,396,l),
(429,700,l),
(368,700,l),
(368,670,l),
(408,670,l),
(515,396,l)
);
}
);
width = 590;
},
{
anchors = (
{
name = top;
pos = (424,600);
}
);
backgroundImage = {
imagePath = "../reference/@Celes/uppercase/U.png";
locked = 1;
pos = (-137,-123);
scale = (14,14);
};
guides = (
{
angle = 25.7307;
pos = (205,590);
}
);
layerId = m006;
shapes = (
{
closed = 1;
nodes = (
(122,630,l),
(235,670,l),
(235,710,l),
(39,630,l)
);
},
{
closed = 1;
nodes = (
(274,30,l),
(89,194,l),
(89,474,l),
(235,590,l),
(235,630,l),
(49,485,l),
(49,173,l),
(274,-10,l)
);
},
{
closed = 1;
nodes = (
(606,-10,l),
(815,208,l),
(815,346,l),
(775,346,l),
(775,213,l),
(586,20,l),
(334,20,l),
(334,-10,l)
);
},
{
closed = 1;
nodes = (
(448,221,l),
(448,670,l),
(408,630,l),
(408,197,l)
);
},
{
closed = 1;
nodes = (
(815,386,l),
(815,416,l),
(508,416,l),
(508,386,l)
);
},
{
closed = 1;
nodes = (
(815,456,l),
(627,670,l),
(508,670,l),
(508,640,l),
(606,640,l),
(775,456,l)
);
}
);
width = 850;
}
);
unicode = 85;
},
{
color = 1;
glyphname = V;
kernLeft = N;
kernRight = V;
lastChange = "2024-11-24 02:04:46 +0000";
layers = (
{
backgroundImage = {
imagePath = "../reference/@Celes/uppercase/V.png";
locked = 1;
pos = (-224,-130);
scale = (14,14);
};
guides = (
{
angle = 214.992;
pos = (130,507);
}
);
layerId = m01;
shapes = (
{
closed = 1;
nodes = (
(130,580,l),
(230,650,l),
(230,700,l),
(71,580,l)
);
},
{
closed = 1;
nodes = (
(230,393,l),
(230,610,l),
(130,540,l),
(130,393,l)
);
},
{
closed = 1;
nodes = (
(266,283,l),
(331,353,l),
(90,353,l),
(25,283,l)
);
},
{
closed = 1;
nodes = (
(230,30,l),
(230,243,l),
(130,243,l),
(130,-30,l)
);
},
{
closed = 1;
nodes = (
(632,204,l),
(327,644,l),
(270,644,l),
(270,574,l),
(518,196,l),
(397,70,l),
(397,-10,l)
);
},
{
closed = 1;
nodes = (
(357,-10,l),
(357,60,l),
(261,60,l),
(326,-10,l)
);
}
);
width = 660;
},
{
backgroundImage = {
imagePath = "../reference/@Celes/uppercase/V.png";
locked = 1;
pos = (50,0);
scale = (14,14);
};
guides = (
{
angle = 203.6294;
pos = (310,544);
}
);
layerId = m002;
shapes = (
{
closed = 1;
nodes = (
(150,550,l),
(310,620,l),
(310,700,l),
(63,550,l)
);
},
{
closed = 1;
nodes = (
(310,398,l),
(310,580,l),
(150,510,l),
(150,398,l)
);
},
{
closed = 1;
nodes = (
(364,268,l),
(456,368,l),
(122,368,l),
(30,268,l)
);
},
{
closed = 1;
nodes = (
(310,66,l),
(310,238,l),
(150,238,l),
(150,-30,l)
);
},
{
closed = 1;
nodes = (
(833,267,l),
(429,644,l),
(340,644,l),
(340,544,l),
(657,267,l),
(554,140,l),
(554,-10,l)
);
},
{
closed = 1;
nodes = (
(524,-10,l),
(524,90,l),
(386,90,l),
(478,-10,l)
);
}
);
width = 860;
},
{
backgroundImage = {
imagePath = "../reference/@Celes/uppercase/V.png";
locked = 1;
pos = (100,0);
scale = (14,14);
};
guides = (
{
angle = 31.0906;
pos = (270,574);
}
);
layerId = m004;
shapes = (
{
closed = 1;
nodes = (
(154,580,l),
(270,650,l),
(270,700,l),
(71,580,l)
);
},
{
closed = 1;
nodes = (
(270,393,l),
(270,610,l),
(170,550,l),
(170,393,l)
);
},
{
closed = 1;
nodes = (
(366,283,l),
(431,353,l),
(90,353,l),
(25,283,l)
);
},
{
closed = 1;
nodes = (
(270,30,l),
(270,243,l),
(170,243,l),
(170,-30,l)
);
},
{
closed = 1;
nodes = (
(912,281,l),
(377,644,l),
(320,644,l),
(320,574,l),
(788,267,l),
(645,90,l),
(645,-10,l)
);
},
{
closed = 1;
nodes = (
(595,-10,l),
(595,60,l),
(401,60,l),
(466,-10,l)
);
}
);
width = 930;
},
{
backgroundImage = {
imagePath = "../reference/@Celes/uppercase/V.png";
locked = 1;
pos = (-40,0);
scale = (14,14);
};
guides = (
{
angle = 225;
pos = (160,617);
}
);
layerId = m005;
shapes = (
{
closed = 1;
nodes = (
(120,620,l),
(160,660,l),
(160,700,l),
(80,620,l)
);
},
{
closed = 1;
nodes = (
(160,373,l),
(160,620,l),
(120,580,l),
(120,373,l)
);
},
{
closed = 1;
nodes = (
(220,303,l),
(248,333,l),
(56,333,l),
(28,303,l)
);
},
{
closed = 1;
nodes = (
(160,0,l),
(160,263,l),
(120,263,l),
(120,-30,l)
);
},
{
closed = 1;
nodes = (
(578,278,l),
(247,647,l),
(210,647,l),
(210,629,l),
(524,277,l),
(380,50,l),
(380,-10,l)
);
},
{
closed = 1;
nodes = (
(330,-10,l),
(330,20,l),
(254,20,l),
(282,-10,l)
);
}
);
width = 600;
},
{
backgroundImage = {
imagePath = "../reference/@Celes/uppercase/V.png";
locked = 1;
pos = (110,0);
scale = (14,14);
};
guides = (
{
angle = 32.4123;
pos = (230,597);
}
);
layerId = m006;
shapes = (
{
closed = 1;
nodes = (
(167,620,l),
(230,660,l),
(230,700,l),
(104,620,l)
);
},
{
closed = 1;
nodes = (
(230,373,l),
(230,620,l),
(190,595,l),
(190,373,l)
);
},
{
closed = 1;
nodes = (
(360,303,l),
(388,333,l),
(56,333,l),
(28,303,l)
);
},
{
closed = 1;
nodes = (
(230,0,l),
(230,263,l),
(190,263,l),
(190,-30,l)
);
},
{
closed = 1;
nodes = (
(858,278,l),
(316,627,l),
(290,627,l),
(290,603,l),
(800,273,l),
(603,40,l),
(603,-10,l)
);
},
{
closed = 1;
nodes = (
(543,-10,l),
(543,20,l),
(404,20,l),
(432,-10,l)
);
}
);
width = 880;
}
);
unicode = 86;
},
{
color = 1;
glyphname = W;
kernLeft = LCH;
kernRight = RCH;
lastChange = "2024-11-24 02:08:24 +0000";
layers = (
{
anchors = (
{
name = top;
pos = (372,600);
}
);
backgroundImage = {
imagePath = "../reference/@Celes/uppercase/W.png";
locked = 1;
pos = (-218,-110);
scale = (14,14);
};
guides = (
{
angle = 214.992;
pos = (85,528);
}
);
layerId = m01;
shapes = (
{
closed = 1;
nodes = (
(85,580,l),
(185,650,l),
(185,700,l),
(15,580,l)
);
},
{
closed = 1;
nodes = (
(185,30,l),
(185,610,l),
(85,540,l),
(85,-30,l)
);
},
{
closed = 1;
nodes = (
(416,56,l),
(416,700,l),
(366,700,l),
(261,580,l),
(316,580,l),
(316,-20,l)
);
},
{
closed = 1;
nodes = (
(276,-20,l),
(276,70,l),
(206,70,l),
(276,-20,l)
);
},
{
closed = 1;
nodes = (
(649,76,l),
(649,700,l),
(599,700,l),
(494,580,l),
(549,580,l),
(549,-20,l)
);
},
{
closed = 1;
nodes = (
(509,-20,l),
(509,70,l),
(439,70,l),
(509,-20,l)
);
}
);
width = 690;
},
{
anchors = (
{
name = top;
pos = (472,620);
}
);
backgroundImage = {
imagePath = "../reference/@Celes/uppercase/W.png";
locked = 1;
pos = (70,0);
scale = (14,14);
};
guides = (
{
angle = 203.6294;
pos = (265,555);
}
);
layerId = m002;
shapes = (
{
closed = 1;
nodes = (
(105,550,l),
(265,620,l),
(265,700,l),
(18,550,l)
);
},
{
closed = 1;
nodes = (
(265,66,l),
(265,580,l),
(105,510,l),
(105,-30,l)
);
},
{
closed = 1;
nodes = (
(546,69,l),
(546,700,l),
(448,700,l),
(317,550,l),
(386,550,l),
(386,-20,l)
);
},
{
closed = 1;
nodes = (
(361,-20,l),
(361,100,l),
(274,100,l),
(361,-20,l)
);
},
{
closed = 1;
nodes = (
(829,90,l),
(829,700,l),
(731,700,l),
(600,550,l),
(669,550,l),
(669,-20,l)
);
},
{
closed = 1;
nodes = (
(644,-20,l),
(644,100,l),
(557,100,l),
(644,-20,l)
);
}
);
width = 870;
},
{
anchors = (
{
name = top;
pos = (532,600);
}
);
backgroundImage = {
imagePath = "../reference/@Celes/uppercase/W.png";
locked = 1;
pos = (180,0);
scale = (14,14);
};
guides = (
{
angle = 29.7449;
pos = (225,562);
}
);
layerId = m004;
shapes = (
{
closed = 1;
nodes = (
(103,580,l),
(225,650,l),
(225,700,l),
(15,580,l)
);
},
{
closed = 1;
nodes = (
(225,30,l),
(225,610,l),
(125,553,l),
(125,-30,l)
);
},
{
closed = 1;
nodes = (
(576,56,l),
(576,700,l),
(526,700,l),
(371,580,l),
(476,580,l),
(476,-20,l)
);
},
{
closed = 1;
nodes = (
(426,-20,l),
(426,50,l),
(286,50,l),
(341,-20,l)
);
},
{
closed = 1;
nodes = (
(929,76,l),
(929,700,l),
(879,700,l),
(704,580,l),
(829,580,l),
(829,-20,l)
);
},
{
closed = 1;
nodes = (
(779,-20,l),
(779,50,l),
(639,50,l),
(694,-20,l)
);
}
);
width = 980;
},
{
anchors = (
{
name = top;
pos = (332,600);
}
);
backgroundImage = {
imagePath = "../reference/@Celes/uppercase/W.png";
locked = 1;
pos = (-20,0);
scale = (14,14);
};
guides = (
{
angle = 40.1009;
pos = (115,589);
}
);
layerId = m005;
shapes = (
{
closed = 1;
nodes = (
(68,620,l),
(115,660,l),
(115,700,l),
(20,620,l)
);
},
{
closed = 1;
nodes = (
(115,0,l),
(115,620,l),
(75,586,l),
(75,-30,l)
);
},
{
closed = 1;
nodes = (
(346,26,l),
(346,700,l),
(343,700,l),
(253,620,l),
(306,620,l),
(306,-20,l)
);
},
{
closed = 1;
nodes = (
(256,-20,l),
(256,10,l),
(176,10,l),
(200,-20,l)
);
},
{
closed = 1;
nodes = (
(579,29,l),
(579,700,l),
(576,700,l),
(486,620,l),
(539,620,l),
(539,-20,l)
);
},
{
closed = 1;
nodes = (
(489,-20,l),
(489,10,l),
(409,10,l),
(433,-20,l)
);
}
);
width = 620;
},
{
anchors = (
{
name = top;
pos = (472,600);
}
);
backgroundImage = {
imagePath = "../reference/@Celes/uppercase/W.png";
locked = 1;
pos = (-10,0);
scale = (14,14);
};
guides = (
{
angle = 30.6507;
pos = (155,595);
}
);
layerId = m006;
shapes = (
{
closed = 1;
nodes = (
(88,620,l),
(155,660,l),
(155,700,l),
(20,620,l)
);
},
{
closed = 1;
nodes = (
(155,0,l),
(155,620,l),
(115,596,l),
(115,-30,l)
);
},
{
closed = 1;
nodes = (
(496,26,l),
(496,700,l),
(493,700,l),
(353,620,l),
(456,620,l),
(456,-20,l)
);
},
{
closed = 1;
nodes = (
(396,-20,l),
(396,10,l),
(286,10,l),
(310,-20,l)
);
},
{
closed = 1;
nodes = (
(839,29,l),
(839,700,l),
(836,700,l),
(696,620,l),
(799,620,l),
(799,-20,l)
);
},
{
closed = 1;
nodes = (
(739,-20,l),
(739,10,l),
(629,10,l),
(653,-20,l)
);
}
);
width = 880;
}
);
unicode = 87;
},
{
color = 1;
glyphname = X;
kernLeft = X;
kernRight = X;
lastChange = "2024-11-25 08:59:13 +0000";
layers = (
{
backgroundImage = {
imagePath = "../reference/@Celes/uppercase/X.png";
locked = 1;
pos = (-260,-139);
scale = (14,14);
};
layerId = m01;
shapes = (
{
closed = 1;
nodes = (
(159,498,l),
(159,700,l),
(29,498,l)
);
},
{
closed = 1;
nodes = (
(440,190,l),
(199,700,l),
(199,508,l),
(440,-10,l)
);
},
{
closed = 1;
nodes = (
(581,200,l),
(480,200,l),
(480,-10,l)
);
},
{
closed = 1;
nodes = (
(44,-10,l),
(229,196,l),
(229,298,l),
(44,110,l),
(44,-10,l)
);
}
);
width = 610;
},
{
backgroundImage = {
imagePath = "../reference/@Celes/uppercase/X.png";
locked = 1;
pos = (-10,0);
scale = (14,14);
};
layerId = m002;
shapes = (
{
closed = 1;
nodes = (
(217,470,l),
(217,700,l),
(37,470,l)
);
},
{
closed = 1;
nodes = (
(632,230,l),
(247,700,l),
(247,470,l),
(632,-10,l)
);
},
{
closed = 1;
nodes = (
(785,240,l),
(662,240,l),
(662,-10,l)
);
},
{
closed = 1;
nodes = (
(74,-10,l),
(326,163,l),
(326,317,l),
(74,127,l),
(74,-10,l)
);
}
);
width = 820;
},
{
backgroundImage = {
imagePath = "../reference/@Celes/uppercase/X.png";
locked = 1;
pos = (60,0);
scale = (14,14);
};
layerId = m004;
shapes = (
{
closed = 1;
nodes = (
(195,560,l),
(195,700,l),
(29,560,l)
);
},
{
closed = 1;
nodes = (
(642,140,l),
(245,700,l),
(245,570,l),
(642,-10,l)
);
},
{
closed = 1;
nodes = (
(821,150,l),
(692,150,l),
(692,-10,l)
);
},
{
closed = 1;
nodes = (
(94,-10,l),
(338,254,l),
(338,334,l),
(44,60,l),
(44,-10,l)
);
}
);
width = 850;
},
{
backgroundImage = {
imagePath = "../reference/@Celes/uppercase/X.png";
locked = 1;
pos = (-90,0);
scale = (14,14);
};
layerId = m005;
shapes = (
{
closed = 1;
nodes = (
(121,630,l),
(121,700,l),
(60,630,l)
);
},
{
closed = 1;
nodes = (
(430,60,l),
(151,700,l),
(151,619,l),
(430,-10,l)
);
},
{
closed = 1;
nodes = (
(509,80,l),
(460,80,l),
(460,-10,l)
);
},
{
closed = 1;
nodes = (
(34,-10,l),
(230,259,l),
(230,310,l),
(34,34,l),
(34,-10,l)
);
}
);
width = 540;
},
{
backgroundImage = {
imagePath = "../reference/@Celes/uppercase/X.png";
locked = 1;
pos = (50,0);
scale = (14,14);
};
layerId = m006;
shapes = (
{
closed = 1;
nodes = (
(157,635,l),
(157,700,l),
(40,635,l)
);
},
{
closed = 1;
nodes = (
(632,45,l),
(197,700,l),
(197,635,l),
(632,-10,l)
);
},
{
closed = 1;
nodes = (
(789,45,l),
(672,45,l),
(672,-10,l)
);
},
{
closed = 1;
nodes = (
(62,-10,l),
(310,253,l),
(310,294,l),
(34,19,l),
(34,-10,l)
);
}
);
width = 820;
}
);
unicode = 88;
},
{
color = 3;
glyphname = Y;
kernLeft = LCH;
kernRight = Y;
lastChange = "2024-11-24 02:14:58 +0000";
layers = (
{
anchors = (
{
name = top;
pos = (309,600);
}
);
guides = (
{
angle = 34.992;
pos = (85,526);
}
);
layerId = m01;
shapes = (
{
closed = 1;
nodes = (
(185,650,l),
(185,700,l),
(15,580,l),
(85,580,l)
);
},
{
closed = 1;
nodes = (
(545,500,l),
(545,642,l),
(473,700,l),
(353,700,l),
(279,630,l),
(445,630,l),
(445,428,l)
);
},
{
closed = 1;
nodes = (
(185,610,l),
(85,540,l),
(85,-30,l),
(185,30,l)
);
},
{
closed = 1;
nodes = (
(225,395,l),
(453,264,l),
(453,50,l),
(405,50,l),
(252,118,l),
(252,68,l),
(389,-20,l),
(478,-20,l),
(553,64,l),
(553,270,l),
(225,463,l)
);
}
);
width = 580;
},
{
anchors = (
{
name = top;
pos = (419,620);
}
);
guides = (
{
angle = 23.6294;
pos = (265,569);
}
);
layerId = m002;
shapes = (
{
closed = 1;
nodes = (
(265,620,l),
(265,700,l),
(18,550,l),
(105,550,l)
);
},
{
closed = 1;
nodes = (
(715,478,l),
(715,630,l),
(628,700,l),
(459,700,l),
(345,600,l),
(555,600,l),
(555,425,l)
);
},
{
closed = 1;
nodes = (
(265,580,l),
(105,510,l),
(105,-30,l),
(265,66,l)
);
},
{
closed = 1;
nodes = (
(295,370,l),
(563,260,l),
(563,80,l),
(509,80,l),
(352,175,l),
(352,89,l),
(516,-20,l),
(636,-20,l),
(723,78,l),
(723,301,l),
(295,487,l)
);
}
);
width = 750;
},
{
anchors = (
{
name = top;
pos = (449,600);
}
);
guides = (
{
angle = 29.7449;
pos = (225,561);
}
);
layerId = m004;
shapes = (
{
closed = 1;
nodes = (
(225,650,l),
(225,700,l),
(15,580,l),
(103,580,l)
);
},
{
closed = 1;
nodes = (
(815,480,l),
(815,642,l),
(743,700,l),
(493,700,l),
(409,630,l),
(715,630,l),
(715,409,l)
);
},
{
closed = 1;
nodes = (
(225,610,l),
(125,553,l),
(125,-30,l),
(225,30,l)
);
},
{
closed = 1;
nodes = (
(275,396,l),
(723,214,l),
(723,50,l),
(575,50,l),
(392,168,l),
(392,118,l),
(559,-20,l),
(748,-20,l),
(823,64,l),
(823,260,l),
(275,477,l)
);
}
);
width = 850;
},
{
anchors = (
{
name = top;
pos = (279,600);
}
);
guides = (
{
angle = 43.2643;
pos = (105,617);
}
);
layerId = m005;
shapes = (
{
closed = 1;
nodes = (
(105,660,l),
(105,700,l),
(20,620,l),
(63,620,l)
);
},
{
closed = 1;
nodes = (
(495,484,l),
(495,663,l),
(463,690,l),
(276,690,l),
(245,660,l),
(455,660,l),
(455,447,l)
);
},
{
closed = 1;
nodes = (
(105,620,l),
(65,582,l),
(65,-30,l),
(105,0,l)
);
},
{
closed = 1;
nodes = (
(155,434,l),
(463,268,l),
(463,10,l),
(377,10,l),
(232,101,l),
(232,76,l),
(358,-20,l),
(465,-20,l),
(503,15,l),
(503,287,l),
(155,466,l)
);
}
);
width = 540;
},
{
anchors = (
{
name = top;
pos = (399,600);
}
);
guides = (
{
angle = 30.6507;
pos = (155,590);
}
);
layerId = m006;
shapes = (
{
closed = 1;
nodes = (
(155,660,l),
(155,700,l),
(20,620,l),
(88,620,l)
);
},
{
closed = 1;
nodes = (
(745,454,l),
(745,673,l),
(713,700,l),
(356,700,l),
(325,670,l),
(705,670,l),
(705,426,l)
);
},
{
closed = 1;
nodes = (
(155,620,l),
(115,596,l),
(115,-30,l),
(155,0,l)
);
},
{
closed = 1;
nodes = (
(216,427,l),
(713,235,l),
(713,10,l),
(537,10,l),
(352,131,l),
(352,106,l),
(518,-20,l),
(715,-20,l),
(753,15,l),
(753,257,l),
(216,463,l)
);
}
);
width = 790;
}
);
unicode = 89;
},
{
color = 3;
glyphname = Z;
kernLeft = Z;
kernRight = Z;
lastChange = "2024-11-24 02:31:34 +0000";
layers = (
{
anchors = (
{
name = top;
pos = (370,600);
}
);
guides = (
{
angle = 63.435;
pos = (526,459);
}
);
layerId = m01;
shapes = (
{
closed = 1;
nodes = (
(466,630,l),
(501,700,l),
(184,700,l),
(119,630,l)
);
},
{
closed = 1;
nodes = (
(252,-10,l),
(606,700,l),
(541,700,l),
(221,60,l),
(167,60,l),
(167,-10,l)
);
},
{
closed = 1;
nodes = (
(127,241,l),
(27,241,l),
(27,51,l),
(127,-10,l)
);
},
{
closed = 1;
nodes = (
(127,281,l),
(210,389,l),
(345,389,l),
(380,459,l),
(194,459,l),
(27,281,l)
);
},
{
closed = 1;
nodes = (
(531,110,l),
(531,459,l),
(526,459,l),
(431,269,l),
(431,110,l)
);
},
{
closed = 1;
nodes = (
(588,0,l),
(653,70,l),
(385,70,l),
(320,0,l)
);
}
);
width = 680;
},
{
anchors = (
{
name = top;
pos = (434,600);
}
);
guides = (
{
angle = 62.2453;
pos = (506,600);
},
{
angle = 63.1773;
pos = (654,480);
}
);
layerId = m002;
shapes = (
{
closed = 1;
nodes = (
(506,600,l),
(559,700,l),
(196,700,l),
(104,600,l)
);
},
{
closed = 1;
nodes = (
(365,-10,l),
(724,700,l),
(599,700,l),
(278,90,l),
(217,90,l),
(217,-10,l)
);
},
{
closed = 1;
nodes = (
(187,250,l),
(27,250,l),
(27,47,l),
(187,-10,l)
);
},
{
closed = 1;
nodes = (
(187,280,l),
(254,380,l),
(390,380,l),
(443,480,l),
(201,480,l),
(27,280,l)
);
},
{
closed = 1;
nodes = (
(713,130,l),
(713,480,l),
(654,480,l),
(553,280,l),
(553,130,l)
);
},
{
closed = 1;
nodes = (
(746,0,l),
(838,100,l),
(507,100,l),
(415,0,l)
);
}
);
width = 870;
},
{
anchors = (
{
name = top;
pos = (509,600);
}
);
guides = (
{
angle = 54.5301;
pos = (728,433);
}
);
layerId = m004;
shapes = (
{
closed = 1;
nodes = (
(689,630,l),
(739,700,l),
(184,700,l),
(119,630,l)
);
},
{
closed = 1;
nodes = (
(372,-10,l),
(876,700,l),
(779,700,l),
(323,60,l),
(177,60,l),
(177,-10,l)
);
},
{
closed = 1;
nodes = (
(127,251,l),
(27,251,l),
(27,61,l),
(127,-10,l)
);
},
{
closed = 1;
nodes = (
(127,291,l),
(240,389,l),
(517,389,l),
(567,459,l),
(194,459,l),
(27,291,l)
);
},
{
closed = 1;
nodes = (
(813,110,l),
(813,459,l),
(747,459,l),
(713,402,l),
(713,110,l)
);
},
{
closed = 1;
nodes = (
(928,0,l),
(993,70,l),
(585,70,l),
(520,0,l)
);
}
);
width = 1020;
},
{
anchors = (
{
name = top;
pos = (350,600);
}
);
guides = (
{
angle = 61.86;
pos = (509,650);
},
{
angle = 62.1218;
pos = (453,344);
}
);
layerId = m005;
shapes = (
{
closed = 1;
nodes = (
(510,650,l),
(526,680,l),
(180,680,l),
(152,650,l)
);
},
{
closed = 1;
nodes = (
(233,-10,l),
(598,680,l),
(566,680,l),
(213,20,l),
(127,20,l),
(127,-10,l)
);
},
{
closed = 1;
nodes = (
(77,245,l),
(37,245,l),
(37,31,l),
(77,-10,l)
);
},
{
closed = 1;
nodes = (
(77,285,l),
(195,409,l),
(381,409,l),
(397,439,l),
(180,439,l),
(37,285,l)
);
},
{
closed = 1;
nodes = (
(493,70,l),
(493,406,l),
(493,406,l),
(453,330,l),
(453,70,l)
);
},
{
closed = 1;
nodes = (
(582,0,l),
(610,30,l),
(381,30,l),
(353,0,l)
);
}
);
width = 640;
},
{
anchors = (
{
name = top;
pos = (510,600);
}
);
guides = (
{
angle = 54.0294;
pos = (705,650);
},
{
angle = 53.8002;
pos = (707,459);
}
);
layerId = m006;
shapes = (
{
closed = 1;
nodes = (
(720,650,l),
(742,680,l),
(140,680,l),
(112,650,l)
);
},
{
closed = 1;
nodes = (
(323,-10,l),
(828,680,l),
(782,680,l),
(303,20,l),
(137,20,l),
(137,-10,l)
);
},
{
closed = 1;
nodes = (
(77,245,l),
(37,245,l),
(37,22,l),
(77,-10,l)
);
},
{
closed = 1;
nodes = (
(77,285,l),
(195,439,l),
(567,439,l),
(589,469,l),
(180,469,l),
(37,285,l)
);
},
{
closed = 1;
nodes = (
(734,70,l),
(734,469,l),
(714,469,l),
(694,436,l),
(694,70,l)
);
},
{
closed = 1;
nodes = (
(902,0,l),
(930,30,l),
(491,30,l),
(463,0,l)
);
}
);
width = 960;
}
);
unicode = 90;
},
{
color = 1;
glyphname = a;
kernLeft = a;
kernRight = a;
lastChange = "2024-11-25 00:42:52 +0000";
layers = (
{
anchors = (
{
name = ogonek;
pos = (402,0);
},
{
name = top;
pos = (373,380);
}
);
backgroundImage = {
imagePath = "../reference/@Celes/lowercase/a.png";
locked = 1;
pos = (-221,-362);
scale = (14,14);
};
guides = (
{
angle = 214.992;
pos = (133,323);
},
{
angle = 49.1402;
pos = (147,-100);
}
);
layerId = m01;
shapes = (
{
closed = 1;
nodes = (
(133,370,l),
(233,440,l),
(233,490,l),
(68,370,l)
);
},
{
closed = 1;
nodes = (
(233,0,l),
(233,72,l),
(327,-20,l),
(327,50,l),
(233,180,l),
(233,400,l),
(133,330,l),
(133,-116,l)
);
},
{
closed = 1;
nodes = (
(60,-200,l),
(93,-159,l),
(93,-39,l),
(10,-200,l)
);
},
{
closed = 1;
nodes = (
(526,373,l),
(591,443,l),
(273,443,l),
(273,373,l)
);
},
{
closed = 1;
nodes = (
(429,-20,l),
(568,63,l),
(568,259,l),
(491,311,l),
(362,311,l),
(297,241,l),
(468,241,l),
(468,50,l),
(367,50,l),
(367,-20,l)
);
}
);
width = 610;
},
{
anchors = (
{
name = ogonek;
pos = (502,0);
},
{
name = top;
pos = (443,380);
}
);
backgroundImage = {
imagePath = "../reference/@Celes/lowercase/a.png";
locked = 1;
pos = (80,0);
scale = (14,14);
};
guides = (
{
angle = 203.6294;
pos = (303,393);
},
{
angle = 42.3912;
pos = (194,-100);
}
);
layerId = m002;
shapes = (
{
closed = 1;
nodes = (
(143,340,l),
(303,410,l),
(303,490,l),
(62,340,l)
);
},
{
closed = 1;
nodes = (
(303,-1,l),
(303,69,l),
(424,-10,l),
(424,100,l),
(303,214,l),
(303,370,l),
(143,300,l),
(143,-147,l)
);
},
{
closed = 1;
nodes = (
(85,-200,l),
(113,-170,l),
(113,-19,l),
(2,-200,l)
);
},
{
closed = 1;
nodes = (
(634,358,l),
(726,458,l),
(333,458,l),
(333,358,l)
);
},
{
closed = 1;
nodes = (
(555,-10,l),
(688,79,l),
(688,253,l),
(594,316,l),
(454,316,l),
(362,216,l),
(528,216,l),
(528,90,l),
(454,90,l),
(454,-10,l)
);
}
);
width = 750;
},
{
anchors = (
{
name = ogonek;
pos = (462,0);
},
{
name = top;
pos = (493,380);
}
);
backgroundImage = {
imagePath = "../reference/@Celes/lowercase/a.png";
locked = 1;
pos = (160,0);
scale = (14,14);
};
guides = (
{
angle = 32.9694;
pos = (253,373);
},
{
angle = 47.5415;
pos = (162,-100);
}
);
layerId = m004;
shapes = (
{
closed = 1;
nodes = (
(145,370,l),
(253,440,l),
(253,490,l),
(68,370,l)
);
},
{
closed = 1;
nodes = (
(253,0,l),
(253,116,l),
(384,-10,l),
(384,70,l),
(253,215,l),
(253,400,l),
(153,335,l),
(153,-110,l)
);
},
{
closed = 1;
nodes = (
(70,-200,l),
(103,-167,l),
(103,-41,l),
(20,-200,l)
);
},
{
closed = 1;
nodes = (
(746,373,l),
(811,443,l),
(303,443,l),
(303,373,l)
);
},
{
closed = 1;
nodes = (
(675,-10,l),
(788,76,l),
(788,239,l),
(711,291,l),
(442,291,l),
(377,221,l),
(688,221,l),
(688,60,l),
(434,60,l),
(434,-10,l)
);
}
);
width = 830;
},
{
anchors = (
{
name = ogonek;
pos = (386,0);
},
{
name = top;
pos = (363,380);
}
);
backgroundImage = {
imagePath = "../reference/@Celes/lowercase/a.png";
locked = 1;
pos = (30,0);
scale = (14,14);
};
guides = (
{
angle = 44.6441;
pos = (193,403);
},
{
angle = 52.9472;
pos = (118,-100);
}
);
layerId = m005;
shapes = (
{
closed = 1;
nodes = (
(153,410,l),
(193,450,l),
(193,490,l),
(112,410,l)
);
},
{
closed = 1;
nodes = (
(193,0,l),
(193,145,l),
(320,-10,l),
(320,30,l),
(193,192,l),
(193,410,l),
(153,370,l),
(153,-54,l)
);
},
{
closed = 1;
nodes = (
(42,-200,l),
(113,-105,l),
(113,-32,l),
(17,-200,l)
);
},
{
closed = 1;
nodes = (
(500,403,l),
(528,433,l),
(243,433,l),
(243,403,l)
);
},
{
closed = 1;
nodes = (
(488,-10,l),
(528,27,l),
(528,230,l),
(486,261,l),
(318,261,l),
(290,231,l),
(488,231,l),
(488,20,l),
(370,20,l),
(370,-10,l)
);
}
);
width = 560;
},
{
anchors = (
{
name = ogonek;
pos = (466,0);
},
{
name = top;
pos = (513,380);
}
);
backgroundImage = {
imagePath = "../reference/@Celes/lowercase/a.png";
locked = 1;
pos = (180,0);
scale = (14,14);
};
guides = (
{
angle = 31.4119;
pos = (233,403);
},
{
angle = 46.3186;
pos = (138,-100);
}
);
layerId = m006;
shapes = (
{
closed = 1;
nodes = (
(167,410,l),
(233,450,l),
(233,490,l),
(102,410,l)
);
},
{
closed = 1;
nodes = (
(233,0,l),
(233,136,l),
(387,-10,l),
(387,40,l),
(233,185,l),
(233,410,l),
(193,385,l),
(193,-42,l)
);
},
{
closed = 1;
nodes = (
(52,-200,l),
(143,-95,l),
(143,-29,l),
(17,-200,l)
);
},
{
closed = 1;
nodes = (
(760,403,l),
(788,433,l),
(293,433,l),
(293,403,l)
);
},
{
closed = 1;
nodes = (
(728,-10,l),
(768,27,l),
(768,250,l),
(726,281,l),
(438,281,l),
(410,251,l),
(728,251,l),
(728,20,l),
(447,20,l),
(447,-10,l)
);
}
);
width = 820;
}
);
unicode = 97;
},
{
color = 3;
glyphname = ae;
kernLeft = a;
kernRight = e;
lastChange = "2024-11-24 06:18:38 +0000";
layers = (
{
layerId = m01;
shapes = (
{
alignment = -1;
ref = a;
},
{
closed = 1;
nodes = (
(933,303,l),
(933,361,l),
(868,443,l),
(565,443,l),
(505,373,l),
(833,373,l),
(833,303,l)
);
},
{
closed = 1;
nodes = (
(972,193,l),
(1037,263,l),
(675,263,l),
(610,193,l)
);
},
{
closed = 1;
nodes = (
(833,153,l),
(833,50,l),
(614,50,l),
(519,-20,l),
(825,-20,l),
(933,53,l),
(933,153,l)
);
}
);
width = 1051;
},
{
layerId = m002;
shapes = (
{
alignment = -1;
ref = a;
},
{
closed = 1;
nodes = (
(1083,308,l),
(1083,377,l),
(1006,458,l),
(664,458,l),
(586,358,l),
(923,358,l),
(923,308,l)
);
},
{
closed = 1;
nodes = (
(1110,178,l),
(1202,278,l),
(827,278,l),
(735,178,l)
);
},
{
closed = 1;
nodes = (
(923,148,l),
(923,90,l),
(786,90,l),
(643,-10,l),
(962,-10,l),
(1083,103,l),
(1083,148,l)
);
}
);
width = 1221;
},
{
layerId = m004;
shapes = (
{
alignment = -1;
ref = a;
},
{
closed = 1;
nodes = (
(1273,303,l),
(1273,361,l),
(1208,443,l),
(738,443,l),
(676,373,l),
(1173,373,l),
(1173,303,l)
);
},
{
closed = 1;
nodes = (
(1372,193,l),
(1437,263,l),
(945,263,l),
(880,193,l)
);
},
{
closed = 1;
nodes = (
(1173,153,l),
(1173,60,l),
(814,60,l),
(731,-10,l),
(1165,-10,l),
(1273,62,l),
(1273,153,l)
);
}
);
width = 1451;
},
{
layerId = m005;
shapes = (
{
alignment = -1;
ref = a;
},
{
closed = 1;
nodes = (
(863,283,l),
(863,393,l),
(823,433,l),
(494,433,l),
(461,403,l),
(823,403,l),
(823,283,l)
);
},
{
closed = 1;
nodes = (
(966,213,l),
(994,243,l),
(611,243,l),
(583,213,l)
);
},
{
closed = 1;
nodes = (
(823,173,l),
(823,20,l),
(566,20,l),
(538,-10,l),
(817,-10,l),
(863,23,l),
(863,173,l)
);
}
);
width = 1021;
},
{
layerId = m006;
shapes = (
{
alignment = -1;
ref = a;
},
{
closed = 1;
nodes = (
(1243,283,l),
(1243,393,l),
(1203,433,l),
(722,433,l),
(705,403,l),
(1203,403,l),
(1203,283,l)
);
},
{
closed = 1;
nodes = (
(1386,213,l),
(1414,243,l),
(821,243,l),
(793,213,l)
);
},
{
closed = 1;
nodes = (
(1203,173,l),
(1203,20,l),
(799,20,l),
(771,-10,l),
(1197,-10,l),
(1243,23,l),
(1243,173,l)
);
}
);
width = 1441;
}
);
metricLeft = a;
metricRight = e;
unicode = 230;
},
{
color = 3;
glyphname = b;
kernLeft = b;
kernRight = b;
lastChange = "2024-11-24 04:50:58 +0000";
layers = (
{
guides = (
{
angle = 41.8125;
pos = (247,314);
}
);
layerId = m01;
shapes = (
{
closed = 1;
nodes = (
(411,181,l),
(476,251,l),
(347,251,l),
(347,405,l),
(247,316,l),
(247,251,l),
(129,251,l),
(347,446,l),
(347,700,l),
(182,580,l),
(247,580,l),
(247,430,l),
(29,239,l),
(29,181,l)
);
},
{
closed = 1;
nodes = (
(39,141,l),
(131,-10,l),
(345,-10,l),
(496,135,l),
(446,135,l),
(339,60,l),
(197,60,l),
(148,141,l)
);
}
);
width = 520;
},
{
guides = (
{
angle = 41.9377;
pos = (287,299);
}
);
layerId = m002;
shapes = (
{
closed = 1;
nodes = (
(466,166,l),
(558,266,l),
(447,266,l),
(447,456,l),
(287,312,l),
(287,266,l),
(191,266,l),
(447,496,l),
(447,700,l),
(206,550,l),
(287,550,l),
(287,468,l),
(29,241,l),
(29,166,l)
);
},
{
closed = 1;
nodes = (
(43,136,l),
(170,-10,l),
(461,-10,l),
(614,150,l),
(514,150,l),
(426,90,l),
(278,90,l),
(221,136,l)
);
}
);
width = 640;
},
{
guides = (
{
angle = 31.9557;
pos = (347,339);
}
);
layerId = m004;
shapes = (
{
closed = 1;
nodes = (
(611,191,l),
(676,261,l),
(447,261,l),
(447,415,l),
(347,353,l),
(347,261,l),
(136,261,l),
(447,455,l),
(447,700,l),
(232,580,l),
(347,580,l),
(347,465,l),
(29,249,l),
(29,191,l)
);
},
{
closed = 1;
nodes = (
(47,151,l),
(171,-10,l),
(525,-10,l),
(696,145,l),
(646,145,l),
(519,60,l),
(237,60,l),
(168,151,l)
);
}
);
width = 720;
},
{
guides = (
{
angle = 45.5209;
pos = (257,362);
}
);
layerId = m005;
shapes = (
{
closed = 1;
nodes = (
(415,188,l),
(443,218,l),
(297,218,l),
(297,400,l),
(257,359,l),
(257,218,l),
(79,218,l),
(297,440,l),
(297,700,l),
(216,620,l),
(257,620,l),
(257,444,l),
(30,227,l),
(30,188,l)
);
},
{
closed = 1;
nodes = (
(55,148,l),
(167,-10,l),
(347,-10,l),
(458,125,l),
(432,125,l),
(331,20,l),
(192,20,l),
(104,148,l)
);
}
);
width = 480;
},
{
guides = (
{
angle = 33.307;
pos = (357,366);
}
);
layerId = m006;
shapes = (
{
closed = 1;
nodes = (
(615,208,l),
(643,238,l),
(397,238,l),
(397,403,l),
(357,377,l),
(357,238,l),
(85,238,l),
(397,443,l),
(397,700,l),
(266,620,l),
(357,620,l),
(357,450,l),
(30,247,l),
(30,208,l)
);
},
{
closed = 1;
nodes = (
(59,168,l),
(197,-10,l),
(517,-10,l),
(658,135,l),
(632,135,l),
(501,20,l),
(222,20,l),
(110,168,l)
);
}
);
width = 690;
}
);
unicode = 98;
},
{
color = 1;
glyphname = c;
kernLeft = c;
kernRight = RxH;
lastChange = "2024-11-24 04:51:45 +0000";
layers = (
{
anchors = (
{
name = ogonek;
pos = (384,0);
},
{
name = top;
pos = (241,390);
}
);
backgroundImage = {
imagePath = "../reference/@Celes/lowercase/c.png";
locked = 1;
pos = (-227,-399);
scale = (14,14);
};
guides = (
{
angle = 34.992;
pos = (355,161);
}
);
layerId = m01;
shapes = (
{
closed = 1;
nodes = (
(455,440,l),
(455,490,l),
(290,370,l),
(355,370,l)
);
},
{
closed = 1;
nodes = (
(31,204,l),
(355,204,l),
(455,274,l),
(455,400,l),
(355,330,l),
(355,274,l),
(131,274,l)
);
},
{
closed = 1;
nodes = (
(355,164,l),
(355,-30,l),
(455,30,l),
(455,234,l)
);
},
{
closed = 1;
nodes = (
(31,164,l),
(31,-15,l),
(232,-200,l),
(282,-200,l),
(131,-11,l),
(131,164,l)
);
}
);
width = 490;
},
{
anchors = (
{
name = ogonek;
pos = (454,20);
},
{
name = top;
pos = (301,390);
}
);
backgroundImage = {
imagePath = "../reference/@Celes/lowercase/c.png";
locked = 1;
pos = (-10,0);
scale = (14,14);
};
guides = (
{
angle = 211.4875;
pos = (555,252);
}
);
layerId = m002;
shapes = (
{
closed = 1;
nodes = (
(555,410,l),
(555,490,l),
(314,340,l),
(395,340,l)
);
},
{
closed = 1;
nodes = (
(31,189,l),
(395,189,l),
(555,287,l),
(555,380,l),
(395,289,l),
(395,289,l),
(147,289,l)
);
},
{
closed = 1;
nodes = (
(395,149,l),
(395,-30,l),
(555,66,l),
(555,247,l)
);
},
{
closed = 1;
nodes = (
(31,159,l),
(31,-17,l),
(246,-200,l),
(355,-200,l),
(191,-10,l),
(191,159,l)
);
}
);
width = 590;
},
{
anchors = (
{
name = ogonek;
pos = (584,0);
},
{
name = top;
pos = (361,390);
}
);
backgroundImage = {
imagePath = "../reference/@Celes/lowercase/c.png";
locked = 1;
pos = (-10,0);
scale = (14,14);
};
guides = (
{
angle = 30.3432;
pos = (655,369);
},
{
angle = 207.4744;
pos = (655,214);
}
);
layerId = m004;
shapes = (
{
closed = 1;
nodes = (
(655,440,l),
(655,490,l),
(450,370,l),
(535,370,l)
);
},
{
closed = 1;
nodes = (
(31,204,l),
(555,204,l),
(655,256,l),
(655,400,l),
(555,341,l),
(555,274,l),
(131,274,l)
);
},
{
closed = 1;
nodes = (
(555,164,l),
(555,-30,l),
(655,30,l),
(655,216,l)
);
},
{
closed = 1;
nodes = (
(31,164,l),
(31,-15,l),
(252,-200,l),
(302,-200,l),
(131,9,l),
(131,164,l)
);
}
);
width = 710;
},
{
anchors = (
{
name = ogonek;
pos = (374,0);
},
{
name = top;
pos = (221,390);
}
);
backgroundImage = {
imagePath = "../reference/@Celes/lowercase/c.png";
locked = 1;
pos = (-30,0);
scale = (14,14);
};
guides = (
{
angle = 44.6441;
pos = (405,410);
},
{
angle = 212.0054;
pos = (405,186);
}
);
layerId = m005;
shapes = (
{
closed = 1;
nodes = (
(405,450,l),
(405,490,l),
(324,410,l),
(365,410,l)
);
},
{
closed = 1;
nodes = (
(41,214,l),
(365,214,l),
(405,239,l),
(405,410,l),
(365,370,l),
(365,244,l),
(80,244,l)
);
},
{
closed = 1;
nodes = (
(365,174,l),
(365,-30,l),
(405,0,l),
(405,199,l)
);
},
{
closed = 1;
nodes = (
(41,174,l),
(41,-39,l),
(225,-200,l),
(251,-200,l),
(81,-22,l),
(81,174,l)
);
}
);
width = 440;
},
{
anchors = (
{
name = ogonek;
pos = (564,0);
},
{
name = top;
pos = (321,390);
}
);
backgroundImage = {
imagePath = "../reference/@Celes/lowercase/c.png";
locked = 1;
pos = (70,0);
scale = (14,14);
};
guides = (
{
angle = 31.4119;
pos = (595,401);
},
{
angle = 209.8989;
pos = (595,205);
}
);
layerId = m006;
shapes = (
{
closed = 1;
nodes = (
(595,450,l),
(595,490,l),
(464,410,l),
(529,410,l)
);
},
{
closed = 1;
nodes = (
(41,214,l),
(555,214,l),
(595,237,l),
(595,410,l),
(555,386,l),
(555,244,l),
(80,244,l)
);
},
{
closed = 1;
nodes = (
(555,174,l),
(555,-30,l),
(595,0,l),
(595,197,l)
);
},
{
closed = 1;
nodes = (
(41,174,l),
(41,-29,l),
(225,-200,l),
(251,-200,l),
(81,-12,l),
(81,174,l)
);
}
);
width = 640;
}
);
unicode = 99;
},
{
color = 1;
glyphname = d;
kernLeft = b;
kernRight = d;
lastChange = "2024-11-24 04:56:06 +0000";
layers = (
{
backgroundImage = {
imagePath = "../reference/@Celes/lowercase/d.png";
locked = 1;
pos = (-208,-424);
scale = (14,14);
};
guides = (
{
angle = 214.992;
pos = (254,530);
}
);
layerId = m01;
shapes = (
{
closed = 1;
nodes = (
(254,579,l),
(354,649,l),
(354,699,l),
(168,579,l)
);
},
{
closed = 1;
nodes = (
(354,100,l),
(354,609,l),
(254,539,l),
(254,100,l)
);
},
{
closed = 1;
nodes = (
(190,70,l),
(131,134,l),
(131,266,l),
(214,347,l),
(214,419,l),
(31,260,l),
(31,103,l),
(190,-10,l)
);
},
{
closed = 1;
nodes = (
(421,-10,l),
(486,60,l),
(230,60,l),
(230,-10,l)
);
},
{
closed = 1;
nodes = (
(537,342,l),
(394,419,l),
(394,347,l),
(469,290,l)
);
}
);
width = 560;
},
{
backgroundImage = {
imagePath = "../reference/@Celes/lowercase/d.png";
locked = 1;
pos = (93,-291);
scale = (14,14);
};
guides = (
{
angle = 203.6294;
pos = (464,583);
}
);
layerId = m002;
shapes = (
{
closed = 1;
nodes = (
(304,550,l),
(464,620,l),
(464,700,l),
(198,550,l)
);
},
{
closed = 1;
nodes = (
(464,120,l),
(464,580,l),
(304,510,l),
(304,120,l)
);
},
{
closed = 1;
nodes = (
(236,100,l),
(191,135,l),
(191,263,l),
(274,332,l),
(274,432,l),
(31,263,l),
(31,81,l),
(236,-10,l)
);
},
{
closed = 1;
nodes = (
(519,-10,l),
(611,90,l),
(266,90,l),
(266,-10,l)
);
},
{
closed = 1;
nodes = (
(665,338,l),
(494,432,l),
(494,332,l),
(562,259,l)
);
}
);
width = 690;
},
{
backgroundImage = {
imagePath = "../reference/@Celes/lowercase/d.png";
locked = 1;
pos = (173,-291);
scale = (14,14);
};
guides = (
{
angle = 29.0546;
pos = (484,563);
}
);
layerId = m004;
shapes = (
{
closed = 1;
nodes = (
(358,579,l),
(484,649,l),
(484,699,l),
(268,579,l)
);
},
{
closed = 1;
nodes = (
(484,100,l),
(484,609,l),
(384,553,l),
(384,100,l)
);
},
{
closed = 1;
nodes = (
(270,68,l),
(131,134,l),
(131,266,l),
(334,354,l),
(334,424,l),
(31,280,l),
(31,103,l),
(270,-10,l)
);
},
{
closed = 1;
nodes = (
(611,-10,l),
(676,60,l),
(320,60,l),
(320,-10,l)
);
},
{
closed = 1;
nodes = (
(757,342,l),
(534,424,l),
(534,354,l),
(689,290,l)
);
}
);
width = 780;
},
{
backgroundImage = {
imagePath = "../reference/@Celes/lowercase/d.png";
locked = 1;
pos = (33,-291);
scale = (14,14);
};
guides = (
{
angle = 39.8056;
pos = (294,605);
}
);
layerId = m005;
shapes = (
{
closed = 1;
nodes = (
(246,620,l),
(294,660,l),
(294,700,l),
(198,620,l)
);
},
{
closed = 1;
nodes = (
(294,60,l),
(294,620,l),
(254,587,l),
(254,60,l)
);
},
{
closed = 1;
nodes = (
(183,30,l),
(71,125,l),
(71,295,l),
(204,414,l),
(204,444,l),
(31,305,l),
(31,108,l),
(183,-10,l)
);
},
{
closed = 1;
nodes = (
(375,-10,l),
(403,20,l),
(233,20,l),
(233,-10,l)
);
},
{
closed = 1;
nodes = (
(465,359,l),
(344,444,l),
(344,414,l),
(465,319,l)
);
}
);
width = 500;
},
{
backgroundImage = {
imagePath = "../reference/@Celes/lowercase/d.png";
locked = 1;
pos = (153,-291);
scale = (14,14);
};
guides = (
{
angle = 28.7203;
pos = (414,615);
}
);
layerId = m006;
shapes = (
{
closed = 1;
nodes = (
(341,620,l),
(414,660,l),
(414,700,l),
(268,620,l)
);
},
{
closed = 1;
nodes = (
(414,60,l),
(414,620,l),
(374,598,l),
(374,60,l)
);
},
{
closed = 1;
nodes = (
(229,30,l),
(81,125,l),
(81,295,l),
(314,414,l),
(314,444,l),
(41,305,l),
(41,108,l),
(229,-10,l)
);
},
{
closed = 1;
nodes = (
(585,-10,l),
(613,20,l),
(289,20,l),
(289,-10,l)
);
},
{
closed = 1;
nodes = (
(705,359,l),
(474,444,l),
(474,414,l),
(705,319,l)
);
}
);
width = 740;
}
);
unicode = 100;
},
{
color = 3;
glyphname = eth;
kernLeft = b;
kernRight = d;
lastChange = "2024-11-24 06:26:03 +0000";
layers = (
{
layerId = m01;
shapes = (
{
locked = 1;
ref = d;
},
{
closed = 1;
nodes = (
(398,449,l),
(463,499,l),
(215,499,l),
(150,449,l)
);
},
{
closed = 1;
nodes = (
(354,519,l),
(354,499,l),
(254,499,l),
(254,519,l)
);
},
{
closed = 1;
nodes = (
(354,449,l),
(354,429,l),
(254,429,l),
(254,449,l)
);
}
);
width = 560;
},
{
layerId = m002;
shapes = (
{
locked = 1;
ref = d;
},
{
closed = 1;
nodes = (
(488,445,l),
(553,495,l),
(285,495,l),
(220,445,l)
);
},
{
closed = 1;
nodes = (
(464,510,l),
(464,495,l),
(304,495,l),
(304,510,l)
);
},
{
closed = 1;
nodes = (
(464,445,l),
(464,430,l),
(304,430,l),
(304,445,l)
);
}
);
width = 690;
},
{
layerId = m004;
shapes = (
{
locked = 1;
ref = d;
},
{
closed = 1;
nodes = (
(608,459,l),
(673,509,l),
(255,509,l),
(190,459,l)
);
},
{
closed = 1;
nodes = (
(484,529,l),
(484,509,l),
(384,509,l),
(384,529,l)
);
},
{
closed = 1;
nodes = (
(484,459,l),
(484,439,l),
(384,439,l),
(384,459,l)
);
}
);
width = 780;
},
{
layerId = m005;
shapes = (
{
locked = 1;
ref = d;
},
{
closed = 1;
nodes = (
(372,499,l),
(400,529,l),
(181,529,l),
(153,499,l)
);
},
{
closed = 1;
nodes = (
(294,559,l),
(294,529,l),
(254,529,l),
(254,559,l)
);
},
{
closed = 1;
nodes = (
(294,499,l),
(294,469,l),
(254,469,l),
(254,499,l)
);
}
);
width = 500;
},
{
layerId = m006;
shapes = (
{
locked = 1;
ref = d;
},
{
closed = 1;
nodes = (
(542,509,l),
(570,539,l),
(251,539,l),
(223,509,l)
);
},
{
closed = 1;
nodes = (
(414,569,l),
(414,539,l),
(374,539,l),
(374,569,l)
);
},
{
closed = 1;
nodes = (
(414,509,l),
(414,479,l),
(374,479,l),
(374,509,l)
);
}
);
width = 740;
}
);
metricLeft = d;
metricRight = d;
unicode = 240;
},
{
color = 1;
glyphname = e;
kernLeft = e;
kernRight = e;
lastChange = "2024-11-24 05:00:20 +0000";
layers = (
{
anchors = (
{
name = top;
pos = (307,390);
}
);
backgroundImage = {
imagePath = "../reference/@Celes/lowercase/e.png";
locked = 1;
pos = (-188,-413);
scale = (14,14);
};
guides = (
{
angle = 55.8542;
pos = (16,288);
}
);
layerId = m01;
shapes = (
{
closed = 1;
nodes = (
(66,288,l),
(137,380,l),
(84,380,l),
(16,288,l)
);
},
{
closed = 1;
nodes = (
(502,303,l),
(502,408,l),
(437,490,l),
(153,490,l),
(106,420,l),
(402,420,l),
(402,303,l)
);
},
{
closed = 1;
nodes = (
(541,193,l),
(606,263,l),
(214,263,l),
(149,193,l)
);
},
{
closed = 1;
nodes = (
(394,-20,l),
(502,153,l),
(402,153,l),
(333,40,l),
(185,40,l),
(141,-20,l)
);
}
);
width = 620;
},
{
anchors = (
{
name = top;
pos = (367,390);
}
);
backgroundImage = {
imagePath = "../reference/@Celes/lowercase/e.png";
locked = 1;
pos = (118,-253);
scale = (14,14);
};
guides = (
{
angle = 233.9412;
pos = (94,382);
}
);
layerId = m002;
shapes = (
{
closed = 1;
nodes = (
(125,273,l),
(191,360,l),
(81,360,l),
(15,273,l)
);
},
{
closed = 1;
nodes = (
(592,308,l),
(592,409,l),
(516,490,l),
(173,490,l),
(98,390,l),
(432,390,l),
(432,308,l)
);
},
{
closed = 1;
nodes = (
(639,178,l),
(731,278,l),
(236,278,l),
(144,178,l)
);
},
{
closed = 1;
nodes = (
(471,-10,l),
(592,148,l),
(432,148,l),
(382,80,l),
(228,80,l),
(136,-10,l)
);
}
);
width = 750;
},
{
anchors = (
{
name = top;
pos = (407,390);
}
);
backgroundImage = {
imagePath = "../reference/@Celes/lowercase/e.png";
locked = 1;
pos = (178,-253);
scale = (14,14);
};
guides = (
{
angle = 227.2083;
pos = (110,389);
}
);
layerId = m004;
shapes = (
{
closed = 1;
nodes = (
(66,288,l),
(182,380,l),
(104,380,l),
(16,288,l)
);
},
{
closed = 1;
nodes = (
(662,303,l),
(662,408,l),
(597,490,l),
(203,490,l),
(134,420,l),
(562,420,l),
(562,303,l)
);
},
{
closed = 1;
nodes = (
(741,193,l),
(806,263,l),
(284,263,l),
(219,193,l)
);
},
{
closed = 1;
nodes = (
(544,-10,l),
(662,153,l),
(562,153,l),
(491,50,l),
(206,50,l),
(141,-10,l)
);
}
);
width = 820;
},
{
anchors = (
{
name = top;
pos = (287,390);
}
);
backgroundImage = {
imagePath = "../reference/@Celes/lowercase/e.png";
locked = 1;
pos = (58,-253);
scale = (14,14);
};
guides = (
{
angle = 50.4016;
pos = (103,395);
}
);
layerId = m005;
shapes = (
{
closed = 1;
nodes = (
(53,299,l),
(168,420,l),
(128,420,l),
(24,299,l)
);
},
{
closed = 1;
nodes = (
(472,293,l),
(472,461,l),
(438,490,l),
(182,490,l),
(154,460,l),
(432,460,l),
(432,293,l)
);
},
{
closed = 1;
nodes = (
(535,223,l),
(563,253,l),
(210,253,l),
(182,223,l)
);
},
{
closed = 1;
nodes = (
(389,-10,l),
(472,183,l),
(432,183,l),
(358,20,l),
(152,20,l),
(124,-10,l)
);
}
);
width = 590;
},
{
anchors = (
{
name = top;
pos = (387,390);
}
);
backgroundImage = {
imagePath = "../reference/@Celes/lowercase/e.png";
locked = 1;
pos = (158,-253);
scale = (14,14);
};
guides = (
{
angle = 43.9691;
pos = (123,395);
}
);
layerId = m006;
shapes = (
{
closed = 1;
nodes = (
(55,299,l),
(193,420,l),
(153,420,l),
(24,299,l)
);
},
{
closed = 1;
nodes = (
(622,293,l),
(622,461,l),
(588,490,l),
(222,490,l),
(185,460,l),
(582,460,l),
(582,293,l)
);
},
{
closed = 1;
nodes = (
(765,223,l),
(793,253,l),
(260,253,l),
(232,223,l)
);
},
{
closed = 1;
nodes = (
(520,-10,l),
(622,183,l),
(582,183,l),
(494,20,l),
(162,20,l),
(134,-10,l)
);
}
);
width = 820;
}
);
unicode = 101;
},
{
color = 1;
glyphname = f;
kernLeft = LxD;
kernRight = f;
lastChange = "2024-11-24 06:13:24 +0000";
layers = (
{
backgroundImage = {
imagePath = "../reference/@Celes/lowercase/f.png";
locked = 1;
pos = (-226,-375);
scale = (14,14);
};
guides = (
{
angle = 214.992;
pos = (101,332);
}
);
layerId = m01;
shapes = (
{
closed = 1;
nodes = (
(101,370,l),
(201,440,l),
(201,490,l),
(15,370,l)
);
},
{
closed = 1;
nodes = (
(201,-170,l),
(201,400,l),
(101,330,l),
(101,-230,l)
);
},
{
closed = 1;
nodes = (
(503,233,l),
(394,325,l),
(241,325,l),
(241,255,l),
(376,255,l),
(503,183,l)
);
}
);
width = 530;
},
{
backgroundImage = {
imagePath = "../reference/@Celes/lowercase/f.png";
locked = 1;
pos = (-30,0);
scale = (14,14);
};
guides = (
{
angle = 203.6294;
pos = (281,377);
}
);
layerId = m002;
shapes = (
{
closed = 1;
nodes = (
(121,340,l),
(281,410,l),
(281,490,l),
(15,340,l)
);
},
{
closed = 1;
nodes = (
(281,-134,l),
(281,370,l),
(121,300,l),
(121,-230,l)
);
},
{
closed = 1;
nodes = (
(653,246,l),
(528,350,l),
(311,350,l),
(311,250,l),
(486,250,l),
(653,158,l)
);
}
);
width = 680;
},
{
backgroundImage = {
imagePath = "../reference/@Celes/lowercase/f.png";
locked = 1;
pos = (-20,0);
scale = (14,14);
};
guides = (
{
angle = 27.9671;
pos = (241,375);
}
);
layerId = m004;
shapes = (
{
closed = 1;
nodes = (
(109,370,l),
(241,440,l),
(241,490,l),
(15,370,l)
);
},
{
closed = 1;
nodes = (
(241,-170,l),
(241,400,l),
(141,347,l),
(141,-230,l)
);
},
{
closed = 1;
nodes = (
(743,213,l),
(564,325,l),
(291,325,l),
(291,255,l),
(546,255,l),
(743,163,l)
);
}
);
width = 770;
},
{
backgroundImage = {
imagePath = "../reference/@Celes/lowercase/f.png";
locked = 1;
pos = (-60,0);
scale = (14,14);
};
guides = (
{
angle = 39.8056;
pos = (121,400);
}
);
layerId = m005;
shapes = (
{
closed = 1;
nodes = (
(73,410,l),
(121,450,l),
(121,490,l),
(25,410,l)
);
},
{
closed = 1;
nodes = (
(121,-200,l),
(121,410,l),
(81,377,l),
(81,-230,l)
);
},
{
closed = 1;
nodes = (
(453,219,l),
(331,305,l),
(171,305,l),
(171,275,l),
(323,275,l),
(453,194,l)
);
}
);
width = 490;
},
{
backgroundImage = {
imagePath = "../reference/@Celes/lowercase/f.png";
locked = 1;
pos = (50,0);
scale = (14,14);
};
guides = (
{
angle = 28.7203;
pos = (171,390);
}
);
layerId = m006;
shapes = (
{
closed = 1;
nodes = (
(98,410,l),
(171,450,l),
(171,490,l),
(25,410,l)
);
},
{
closed = 1;
nodes = (
(171,-200,l),
(171,410,l),
(131,388,l),
(131,-230,l)
);
},
{
closed = 1;
nodes = (
(713,219,l),
(521,305,l),
(231,305,l),
(231,275,l),
(513,275,l),
(713,194,l)
);
}
);
width = 750;
}
);
unicode = 102;
},
{
color = 1;
glyphname = g;
kernLeft = g;
kernRight = g;
lastChange = "2024-11-24 05:01:37 +0000";
layers = (
{
backgroundImage = {
imagePath = "../reference/@Celes/lowercase/g.png";
locked = 1;
pos = (-206,-379);
scale = (14,14);
};
layerId = m01;
shapes = (
{
closed = 1;
nodes = (
(490,410,l),
(555,480,l),
(130,480,l),
(65,410,l)
);
},
{
closed = 1;
nodes = (
(247,-200,l),
(135,-20,l),
(135,278,l),
(204,370,l),
(128,370,l),
(35,247,l),
(35,-24,l),
(197,-200,l)
);
},
{
closed = 1;
nodes = (
(431,30,l),
(431,370,l),
(331,370,l),
(331,-30,l)
);
}
);
width = 570;
},
{
backgroundImage = {
imagePath = "../reference/@Celes/lowercase/g.png";
locked = 1;
pos = (-10,0);
scale = (14,14);
};
layerId = m002;
shapes = (
{
closed = 1;
nodes = (
(608,380,l),
(700,480,l),
(132,480,l),
(40,380,l)
);
},
{
closed = 1;
nodes = (
(317,-200,l),
(195,-19,l),
(195,257,l),
(273,350,l),
(129,350,l),
(35,248,l),
(35,-26,l),
(210,-200,l)
);
},
{
closed = 1;
nodes = (
(561,66,l),
(561,350,l),
(401,350,l),
(401,-30,l)
);
}
);
width = 720;
},
{
backgroundImage = {
imagePath = "../reference/@Celes/lowercase/g.png";
locked = 1;
pos = (-10,0);
scale = (14,14);
};
layerId = m004;
shapes = (
{
closed = 1;
nodes = (
(690,410,l),
(755,480,l),
(110,480,l),
(45,410,l)
);
},
{
closed = 1;
nodes = (
(277,-200,l),
(135,10,l),
(135,178,l),
(304,370,l),
(215,370,l),
(35,207,l),
(35,-54,l),
(227,-200,l)
);
},
{
closed = 1;
nodes = (
(591,30,l),
(591,370,l),
(491,370,l),
(491,-30,l)
);
}
);
width = 770;
},
{
backgroundImage = {
imagePath = "../reference/@Celes/lowercase/g.png";
locked = 1;
pos = (-30,0);
scale = (14,14);
};
layerId = m005;
shapes = (
{
closed = 1;
nodes = (
(484,450,l),
(512,480,l),
(96,480,l),
(68,450,l)
);
},
{
closed = 1;
nodes = (
(218,-200,l),
(85,30,l),
(85,257,l),
(209,410,l),
(176,410,l),
(45,252,l),
(45,11,l),
(193,-200,l)
);
},
{
closed = 1;
nodes = (
(381,0,l),
(381,410,l),
(341,410,l),
(341,-30,l)
);
}
);
width = 540;
},
{
backgroundImage = {
imagePath = "../reference/@Celes/lowercase/g.png";
locked = 1;
pos = (100,0);
scale = (14,14);
};
layerId = m006;
shapes = (
{
closed = 1;
nodes = (
(754,450,l),
(782,480,l),
(96,480,l),
(68,450,l)
);
},
{
closed = 1;
nodes = (
(228,-200,l),
(85,-20,l),
(85,217,l),
(272,410,l),
(241,410,l),
(45,212,l),
(45,-39,l),
(203,-200,l)
);
},
{
closed = 1;
nodes = (
(571,0,l),
(571,410,l),
(531,410,l),
(531,-30,l)
);
}
);
width = 810;
}
);
unicode = 103;
},
{
color = 3;
glyphname = h;
kernLeft = LCH;
kernRight = h;
lastChange = "2024-11-24 05:05:23 +0000";
layers = (
{
guides = (
{
angle = 37.3432;
pos = (101,310);
},
{
angle = 217.6656;
pos = (259,203);
}
);
layerId = m01;
shapes = (
{
closed = 1;
nodes = (
(201,362,l),
(201,700,l),
(15,579,l),
(101,579,l),
(101,286,l)
);
},
{
closed = 1;
nodes = (
(201,40,l),
(201,216,l),
(543,480,l),
(409,480,l),
(101,245,l),
(101,-30,l)
);
},
{
closed = 1;
nodes = (
(525,89,l),
(525,237,l),
(477,273,l),
(330,273,l),
(239,203,l),
(425,203,l),
(425,123,l),
(341,35,l),
(341,-17,l)
);
}
);
width = 560;
},
{
guides = (
{
angle = 33.183;
pos = (121,321);
},
{
angle = 33.1511;
pos = (345,188);
}
);
layerId = m002;
shapes = (
{
closed = 1;
nodes = (
(281,407,l),
(281,700,l),
(16,549,l),
(121,549,l),
(121,302,l)
);
},
{
closed = 1;
nodes = (
(281,82,l),
(281,227,l),
(676,485,l),
(462,485,l),
(121,262,l),
(121,-30,l)
);
},
{
closed = 1;
nodes = (
(665,85,l),
(665,254,l),
(601,302,l),
(458,302,l),
(305,202,l),
(505,202,l),
(505,125,l),
(421,73,l),
(421,-20,l)
);
}
);
width = 700;
},
{
guides = (
{
angle = 26.1899;
pos = (141,321);
},
{
angle = 25.8387;
pos = (312,223);
}
);
layerId = m004;
shapes = (
{
closed = 1;
nodes = (
(241,359,l),
(241,700,l),
(15,579,l),
(141,579,l),
(141,310,l)
);
},
{
closed = 1;
nodes = (
(241,40,l),
(241,234,l),
(749,480,l),
(570,480,l),
(141,269,l),
(141,-30,l)
);
},
{
closed = 1;
nodes = (
(765,69,l),
(765,237,l),
(697,293,l),
(446,293,l),
(302,223,l),
(665,223,l),
(665,103,l),
(461,35,l),
(461,-17,l)
);
}
);
width = 800;
},
{
guides = (
{
angle = 35.9915;
pos = (121,352);
},
{
angle = 36.0274;
pos = (153,243);
}
);
layerId = m005;
shapes = (
{
closed = 1;
nodes = (
(121,342,l),
(121,700,l),
(24,619,l),
(81,619,l),
(81,313,l)
);
},
{
closed = 1;
nodes = (
(121,0,l),
(121,256,l),
(429,480,l),
(366,480,l),
(81,273,l),
(81,-30,l)
);
},
{
closed = 1;
nodes = (
(445,78,l),
(445,250,l),
(414,273,l),
(186,273,l),
(144,243,l),
(405,243,l),
(405,98,l),
(292,5,l),
(292,-20,l)
);
}
);
width = 480;
},
{
guides = (
{
angle = 25.1641;
pos = (131,305);
},
{
angle = 25.9038;
pos = (231,243);
}
);
layerId = m006;
shapes = (
{
closed = 1;
nodes = (
(171,329,l),
(171,700,l),
(24,619,l),
(131,619,l),
(131,310,l)
);
},
{
closed = 1;
nodes = (
(171,0,l),
(171,243,l),
(659,480,l),
(578,480,l),
(131,270,l),
(131,-30,l)
);
},
{
closed = 1;
nodes = (
(685,88,l),
(685,250,l),
(654,273,l),
(303,273,l),
(241,243,l),
(645,243,l),
(645,108,l),
(432,5,l),
(432,-20,l)
);
}
);
width = 720;
}
);
unicode = 104;
},
{
color = 1;
glyphname = i;
kernLeft = LxH;
kernRight = RxH;
lastChange = "2024-11-24 00:46:24 +0000";
layers = (
{
anchors = (
{
name = top;
pos = (123,390);
}
);
backgroundImage = {
imagePath = "../reference/@Celes/lowercase/i.png";
locked = 1;
pos = (-418,-371);
scale = (14,14);
};
guides = (
{
angle = 34.992;
pos = (80,292);
}
);
layerId = m01;
shapes = (
{
closed = 1;
nodes = (
(180,440,l),
(180,490,l),
(15,370,l),
(80,370,l)
);
},
{
closed = 1;
nodes = (
(80,330,l),
(80,-30,l),
(180,30,l),
(180,400,l)
);
}
);
width = 225;
},
{
anchors = (
{
name = top;
pos = (183,400);
}
);
backgroundImage = {
imagePath = "../reference/@Celes/lowercase/i.png";
locked = 1;
pos = (-20,0);
scale = (14,14);
};
guides = (
{
angle = 23.6294;
pos = (260,328);
}
);
layerId = m002;
shapes = (
{
closed = 1;
nodes = (
(260,410,l),
(260,490,l),
(19,340,l),
(100,340,l)
);
},
{
closed = 1;
nodes = (
(100,300,l),
(100,-30,l),
(260,66,l),
(260,370,l)
);
}
);
width = 305;
},
{
anchors = (
{
name = top;
pos = (183,390);
}
);
backgroundImage = {
imagePath = "../reference/@Celes/lowercase/i.png";
locked = 1;
pos = (-10,0);
scale = (14,14);
};
guides = (
{
angle = 30.3432;
pos = (240,326);
}
);
layerId = m004;
shapes = (
{
closed = 1;
nodes = (
(240,440,l),
(240,490,l),
(35,370,l),
(120,370,l)
);
},
{
closed = 1;
nodes = (
(140,341,l),
(140,-30,l),
(240,30,l),
(240,400,l)
);
}
);
width = 335;
},
{
anchors = (
{
name = top;
pos = (73,390);
}
);
backgroundImage = {
imagePath = "../reference/@Celes/lowercase/i.png";
locked = 1;
pos = (-60,0);
scale = (14,14);
};
guides = (
{
angle = 44.6441;
pos = (100,381);
}
);
layerId = m005;
shapes = (
{
closed = 1;
nodes = (
(100,450,l),
(100,490,l),
(19,410,l),
(60,410,l)
);
},
{
closed = 1;
nodes = (
(60,370,l),
(60,-30,l),
(100,0,l),
(100,410,l)
);
}
);
width = 145;
},
{
anchors = (
{
name = top;
pos = (133,390);
}
);
backgroundImage = {
imagePath = "../reference/@Celes/lowercase/i.png";
locked = 1;
scale = (14,14);
};
guides = (
{
angle = 31.4119;
pos = (160,360);
}
);
layerId = m006;
shapes = (
{
closed = 1;
nodes = (
(160,450,l),
(160,490,l),
(29,410,l),
(94,410,l)
);
},
{
closed = 1;
nodes = (
(120,386,l),
(120,-30,l),
(160,0,l),
(160,410,l)
);
}
);
width = 235;
}
);
unicode = 105;
},
{
color = 3;
glyphname = j;
kernLeft = j;
kernRight = j;
lastChange = "2024-11-24 05:06:12 +0000";
layers = (
{
anchors = (
{
name = top;
pos = (223,390);
}
);
layerId = m01;
shapes = (
{
closed = 1;
nodes = (
(235,266,l),
(235,490,l),
(25,370,l),
(135,370,l),
(135,266,l)
);
},
{
closed = 1;
nodes = (
(94,226,l),
(29,156,l),
(135,156,l),
(135,88,l),
(225,-10,l),
(447,-10,l),
(538,131,l),
(488,131,l),
(417,60,l),
(288,60,l),
(235,120,l),
(235,156,l),
(302,156,l),
(367,226,l)
);
}
);
width = 550;
},
{
anchors = (
{
name = top;
pos = (313,400);
}
);
layerId = m002;
shapes = (
{
closed = 1;
nodes = (
(325,301,l),
(325,490,l),
(31,340,l),
(165,340,l),
(165,301,l)
);
},
{
closed = 1;
nodes = (
(113,271,l),
(44,171,l),
(165,171,l),
(165,86,l),
(267,-10,l),
(578,-10,l),
(688,171,l),
(581,171,l),
(510,90,l),
(325,90,l),
(325,141,l),
(325,171,l),
(400,171,l),
(492,271,l)
);
}
);
width = 700;
},
{
anchors = (
{
name = top;
pos = (323,390);
}
);
layerId = m004;
shapes = (
{
closed = 1;
nodes = (
(335,296,l),
(335,490,l),
(85,370,l),
(235,370,l),
(235,296,l)
);
},
{
closed = 1;
nodes = (
(94,256,l),
(29,186,l),
(235,186,l),
(235,108,l),
(365,-10,l),
(687,-10,l),
(778,141,l),
(728,141,l),
(657,60,l),
(428,60,l),
(335,140,l),
(335,186,l),
(472,186,l),
(537,256,l)
);
}
);
width = 790;
},
{
anchors = (
{
name = top;
pos = (193,390);
}
);
layerId = m005;
shapes = (
{
closed = 1;
nodes = (
(175,246,l),
(175,490,l),
(61,410,l),
(135,410,l),
(135,246,l)
);
},
{
closed = 1;
nodes = (
(50,206,l),
(22,176,l),
(135,176,l),
(135,93,l),
(231,-10,l),
(398,-10,l),
(493,131,l),
(470,131,l),
(378,20,l),
(261,20,l),
(175,115,l),
(175,176,l),
(276,176,l),
(304,206,l)
);
}
);
width = 520;
},
{
anchors = (
{
name = top;
pos = (283,390);
}
);
layerId = m006;
shapes = (
{
closed = 1;
nodes = (
(265,276,l),
(265,490,l),
(101,410,l),
(225,410,l),
(225,276,l)
);
},
{
closed = 1;
nodes = (
(60,236,l),
(32,206,l),
(225,206,l),
(225,93,l),
(351,-10,l),
(628,-10,l),
(723,131,l),
(700,131,l),
(608,20,l),
(371,20,l),
(265,105,l),
(265,206,l),
(426,206,l),
(454,236,l)
);
}
);
width = 750;
}
);
unicode = 106;
},
{
color = 3;
glyphname = k;
kernLeft = k;
kernRight = k;
lastChange = "2024-11-24 06:14:12 +0000";
layers = (
{
guides = (
{
angle = 51.5987;
pos = (135,164);
}
);
layerId = m01;
shapes = (
{
closed = 1;
nodes = (
(235,290,l),
(235,490,l),
(25,370,l),
(135,370,l),
(135,164,l)
);
},
{
closed = 1;
nodes = (
(538,117,l),
(538,260,l),
(449,330,l),
(307,330,l),
(135,113,l),
(205,113,l),
(332,260,l),
(438,260,l),
(438,147,l),
(275,85,l),
(375,45,l)
);
},
{
closed = 1;
nodes = (
(449,-200,l),
(375,-111,l),
(375,5,l),
(275,45,l),
(275,-99,l),
(399,-200,l)
);
}
);
width = 570;
},
{
guides = (
{
angle = 49.3605;
pos = (165,149);
}
);
layerId = m002;
shapes = (
{
closed = 1;
nodes = (
(325,335,l),
(325,490,l),
(31,340,l),
(165,340,l),
(165,149,l)
);
},
{
closed = 1;
nodes = (
(708,107,l),
(708,260,l),
(631,345,l),
(377,345,l),
(165,98,l),
(264,98,l),
(441,245,l),
(548,245,l),
(548,137,l),
(355,52,l),
(515,12,l)
);
},
{
closed = 1;
nodes = (
(603,-200,l),
(515,-95,l),
(515,-18,l),
(355,22,l),
(355,-87,l),
(494,-200,l)
);
}
);
width = 740;
},
{
guides = (
{
angle = 46.7936;
pos = (175,143);
}
);
layerId = m004;
shapes = (
{
closed = 1;
nodes = (
(275,249,l),
(275,490,l),
(25,370,l),
(175,370,l),
(175,143,l)
);
},
{
closed = 1;
nodes = (
(778,149,l),
(778,270,l),
(689,340,l),
(407,340,l),
(175,93,l),
(252,93,l),
(452,270,l),
(678,270,l),
(678,191,l),
(415,92,l),
(515,52,l)
);
},
{
closed = 1;
nodes = (
(634,-200,l),
(515,-65,l),
(515,12,l),
(415,52,l),
(415,-89,l),
(584,-200,l)
);
}
);
width = 810;
},
{
guides = (
{
angle = 54.8041;
pos = (135,250);
}
);
layerId = m005;
shapes = (
{
closed = 1;
nodes = (
(135,240,l),
(135,470,l),
(21,390,l),
(95,390,l),
(95,183,l)
);
},
{
closed = 1;
nodes = (
(458,120,l),
(458,280,l),
(418,310,l),
(241,310,l),
(95,133,l),
(132,133,l),
(259,280,l),
(418,280,l),
(418,149,l),
(235,91,l),
(275,61,l)
);
},
{
closed = 1;
nodes = (
(367,-200,l),
(275,-82,l),
(275,21,l),
(235,51,l),
(235,-92,l),
(341,-200,l)
);
}
);
width = 490;
},
{
guides = (
{
angle = 48.0587;
pos = (185,251);
}
);
layerId = m006;
shapes = (
{
closed = 1;
nodes = (
(185,228,l),
(185,470,l),
(21,390,l),
(145,390,l),
(145,183,l)
);
},
{
closed = 1;
nodes = (
(688,150,l),
(688,280,l),
(648,310,l),
(331,310,l),
(145,133,l),
(181,133,l),
(349,280,l),
(648,280,l),
(648,169,l),
(395,71,l),
(435,51,l)
);
},
{
closed = 1;
nodes = (
(567,-200,l),
(435,-68,l),
(435,11,l),
(395,31,l),
(395,-87,l),
(541,-200,l)
);
}
);
width = 720;
}
);
unicode = 107;
},
{
color = 1;
glyphname = l;
kernLeft = l;
kernRight = L;
lastChange = "2024-11-24 05:11:41 +0000";
layers = (
{
backgroundImage = {
imagePath = "../reference/@Celes/lowercase/l.png";
locked = 1;
pos = (49,-350);
scale = (14,14);
};
guides = (
{
angle = 34.992;
pos = (263,0);
}
);
layerId = m01;
shapes = (
{
closed = 1;
nodes = (
(277,300,l),
(277,658,l),
(256,700,l),
(156,700,l),
(177,658,l),
(177,300,l)
);
},
{
closed = 1;
nodes = (
(277,70,l),
(277,190,l),
(386,190,l),
(451,260,l),
(89,260,l),
(24,190,l),
(177,190,l),
(177,0,l)
);
},
{
closed = 1;
nodes = (
(217,0,l),
(424,0,l),
(489,70,l),
(317,70,l)
);
}
);
width = 510;
},
{
backgroundImage = {
imagePath = "../reference/@Celes/lowercase/l.png";
locked = 1;
pos = (99,-350);
scale = (14,14);
};
guides = (
{
angle = 32.0054;
pos = (361,0);
}
);
layerId = m002;
shapes = (
{
closed = 1;
nodes = (
(387,325,l),
(387,643,l),
(359,700,l),
(198,700,l),
(227,643,l),
(227,325,l)
);
},
{
closed = 1;
nodes = (
(387,100,l),
(387,195,l),
(504,195,l),
(596,295,l),
(121,295,l),
(29,195,l),
(227,195,l),
(227,0,l)
);
},
{
closed = 1;
nodes = (
(277,0,l),
(572,0,l),
(664,100,l),
(437,100,l)
);
}
);
width = 690;
},
{
backgroundImage = {
imagePath = "../reference/@Celes/lowercase/l.png";
locked = 1;
pos = (149,-350);
scale = (14,14);
};
guides = (
{
angle = 34.992;
pos = (382,0);
}
);
layerId = m004;
shapes = (
{
closed = 1;
nodes = (
(377,360,l),
(377,658,l),
(356,700,l),
(256,700,l),
(277,658,l),
(277,360,l)
);
},
{
closed = 1;
nodes = (
(377,70,l),
(377,250,l),
(586,250,l),
(651,320,l),
(89,320,l),
(24,250,l),
(277,250,l),
(277,0,l)
);
},
{
closed = 1;
nodes = (
(327,0,l),
(684,0,l),
(749,70,l),
(427,70,l)
);
}
);
width = 770;
},
{
backgroundImage = {
imagePath = "../reference/@Celes/lowercase/l.png";
locked = 1;
pos = (19,-350);
scale = (14,14);
};
guides = (
{
angle = 36.8699;
pos = (227,0);
}
);
layerId = m005;
shapes = (
{
closed = 1;
nodes = (
(217,310,l),
(217,660,l),
(195,700,l),
(157,700,l),
(177,655,l),
(177,310,l)
);
},
{
closed = 1;
nodes = (
(217,30,l),
(217,240,l),
(350,240,l),
(378,270,l),
(55,270,l),
(27,240,l),
(177,240,l),
(177,0,l)
);
},
{
closed = 1;
nodes = (
(217,0,l),
(388,0,l),
(416,30,l),
(257,30,l)
);
}
);
width = 440;
},
{
backgroundImage = {
imagePath = "../reference/@Celes/lowercase/l.png";
locked = 1;
pos = (99,-350);
scale = (14,14);
};
guides = (
{
angle = 36.8699;
pos = (319,0);
}
);
layerId = m006;
shapes = (
{
closed = 1;
nodes = (
(297,340,l),
(297,660,l),
(275,700,l),
(237,700,l),
(257,655,l),
(257,340,l)
);
},
{
closed = 1;
nodes = (
(297,30,l),
(297,270,l),
(510,270,l),
(538,300,l),
(55,300,l),
(27,270,l),
(257,270,l),
(257,0,l)
);
},
{
closed = 1;
nodes = (
(307,0,l),
(618,0,l),
(646,30,l),
(347,30,l)
);
}
);
width = 670;
}
);
unicode = 108;
},
{
color = 1;
glyphname = m;
kernLeft = M;
kernRight = M;
lastChange = "2024-11-24 05:12:25 +0000";
layers = (
{
backgroundImage = {
imagePath = "../reference/@Celes/lowercase/m.png";
locked = 1;
pos = (-82,-438);
scale = (14,14);
};
guides = (
{
angle = 214.992;
pos = (139,519);
}
);
layerId = m01;
shapes = (
{
closed = 1;
nodes = (
(139,580,l),
(239,650,l),
(239,700,l),
(29,580,l)
);
},
{
closed = 1;
nodes = (
(239,610,l),
(139,540,l),
(139,110,l),
(239,110,l)
);
},
{
closed = 1;
nodes = (
(270,0,l),
(335,70,l),
(90,70,l),
(25,0,l)
);
},
{
closed = 1;
nodes = (
(615,0,l),
(580,70,l),
(531,70,l),
(360,460,l),
(288,460,l),
(288,390,l),
(454,0,l)
);
},
{
closed = 1;
nodes = (
(851,0,l),
(816,70,l),
(767,70,l),
(566,460,l),
(494,460,l),
(494,390,l),
(690,0,l)
);
}
);
width = 870;
},
{
backgroundImage = {
imagePath = "../reference/@Celes/lowercase/m.png";
locked = 1;
pos = (-32,-438);
scale = (14,14);
};
guides = (
{
angle = 203.6294;
pos = (319,561);
}
);
layerId = m002;
shapes = (
{
closed = 1;
nodes = (
(159,550,l),
(319,620,l),
(319,700,l),
(25,550,l)
);
},
{
closed = 1;
nodes = (
(319,580,l),
(159,510,l),
(159,130,l),
(319,130,l)
);
},
{
closed = 1;
nodes = (
(338,0,l),
(430,100,l),
(122,100,l),
(30,0,l)
);
},
{
closed = 1;
nodes = (
(733,0,l),
(683,100,l),
(635,100,l),
(474,480,l),
(354,480,l),
(354,380,l),
(510,0,l)
);
},
{
closed = 1;
nodes = (
(999,0,l),
(949,100,l),
(901,100,l),
(720,480,l),
(600,480,l),
(600,380,l),
(776,0,l)
);
}
);
width = 1020;
},
{
backgroundImage = {
imagePath = "../reference/@Celes/lowercase/m.png";
locked = 1;
pos = (18,-438);
scale = (14,14);
};
guides = (
{
angle = 25.641;
pos = (339,541);
}
);
layerId = m004;
shapes = (
{
closed = 1;
nodes = (
(194,580,l),
(339,650,l),
(339,700,l),
(89,580,l)
);
},
{
closed = 1;
nodes = (
(339,610,l),
(239,562,l),
(239,110,l),
(339,110,l)
);
},
{
closed = 1;
nodes = (
(420,0,l),
(485,70,l),
(90,70,l),
(25,0,l)
);
},
{
closed = 1;
nodes = (
(855,0,l),
(820,70,l),
(731,70,l),
(490,460,l),
(418,460,l),
(418,390,l),
(654,0,l)
);
},
{
closed = 1;
nodes = (
(1151,0,l),
(1116,70,l),
(1027,70,l),
(766,460,l),
(694,460,l),
(694,390,l),
(950,0,l)
);
}
);
width = 1170;
},
{
backgroundImage = {
imagePath = "../reference/@Celes/lowercase/m.png";
locked = 1;
pos = (-102,-438);
scale = (14,14);
};
guides = (
{
angle = 35.0594;
pos = (189,579);
}
);
layerId = m005;
shapes = (
{
closed = 1;
nodes = (
(132,620,l),
(189,660,l),
(189,700,l),
(75,620,l)
);
},
{
closed = 1;
nodes = (
(189,620,l),
(149,592,l),
(149,70,l),
(189,70,l)
);
},
{
closed = 1;
nodes = (
(274,0,l),
(302,30,l),
(56,30,l),
(28,0,l)
);
},
{
closed = 1;
nodes = (
(584,0,l),
(569,30,l),
(489,30,l),
(298,410,l),
(270,410,l),
(270,380,l),
(456,0,l)
);
},
{
closed = 1;
nodes = (
(820,0,l),
(805,30,l),
(725,30,l),
(514,410,l),
(486,410,l),
(486,380,l),
(692,0,l)
);
}
);
width = 840;
},
{
backgroundImage = {
imagePath = "../reference/@Celes/lowercase/m.png";
locked = 1;
pos = (18,-438);
scale = (14,14);
};
guides = (
{
angle = 26.0033;
pos = (259,565);
}
);
layerId = m006;
shapes = (
{
closed = 1;
nodes = (
(177,620,l),
(259,660,l),
(259,700,l),
(95,620,l)
);
},
{
closed = 1;
nodes = (
(259,620,l),
(219,600,l),
(219,70,l),
(259,70,l)
);
},
{
closed = 1;
nodes = (
(444,0,l),
(472,30,l),
(56,30,l),
(28,0,l)
);
},
{
closed = 1;
nodes = (
(804,0,l),
(789,30,l),
(679,30,l),
(438,430,l),
(410,430,l),
(410,400,l),
(646,0,l)
);
},
{
closed = 1;
nodes = (
(1090,0,l),
(1075,30,l),
(965,30,l),
(704,430,l),
(676,430,l),
(676,400,l),
(932,0,l)
);
}
);
width = 1110;
}
);
unicode = 109;
},
{
color = 1;
glyphname = n;
kernLeft = n;
kernRight = n;
lastChange = "2024-11-25 00:43:02 +0000";
layers = (
{
anchors = (
{
name = top;
pos = (376,380);
}
);
annotations = (
{
pos = (632,40);
type = Arrow;
},
{
pos = (531,114);
type = Arrow;
},
{
pos = (642.909,101.548);
text = "";
type = Text;
}
);
backgroundImage = {
imagePath = "../reference/@Celes/lowercase/n.png";
locked = 1;
pos = (-13,-438);
scale = (14,14);
};
layerId = m01;
shapes = (
{
closed = 1;
nodes = (
(481,-10,l),
(609,59,l),
(609,289,l),
(517,410,l),
(600,410,l),
(665,480,l),
(450,480,l),
(385,410,l),
(449,410,l),
(509,295,l),
(509,124,l),
(408,60,l),
(342,60,l),
(282,-10,l)
);
},
{
closed = 1;
nodes = (
(260,309,l),
(260,490,l),
(95,370,l),
(160,370,l),
(160,309,l)
);
},
{
closed = 1;
nodes = (
(86,269,l),
(21,199,l),
(160,199,l),
(160,-30,l),
(260,30,l),
(260,199,l),
(333,199,l),
(398,269,l)
);
}
);
width = 690;
},
{
anchors = (
{
name = top;
pos = (486,380);
}
);
annotations = (
{
pos = (632,40);
type = Arrow;
},
{
pos = (531,114);
type = Arrow;
},
{
pos = (642.909,101.548);
text = "";
type = Text;
}
);
backgroundImage = {
imagePath = "../reference/@Celes/lowercase/n.png";
locked = 1;
pos = (37,-438);
scale = (14,14);
};
layerId = m002;
shapes = (
{
closed = 1;
nodes = (
(759,-10,l),
(759,-10,l),
(759,290,l),
(689,380,l),
(738,380,l),
(830,480,l),
(552,480,l),
(460,380,l),
(561,380,l),
(599,294,l),
(599,90,l),
(599,90,l),
(454,90,l),
(368,-10,l)
);
},
{
closed = 1;
nodes = (
(360,314,l),
(360,490,l),
(119,340,l),
(200,340,l),
(200,314,l)
);
},
{
closed = 1;
nodes = (
(118,284,l),
(26,184,l),
(200,184,l),
(200,-30,l),
(360,66,l),
(360,184,l),
(451,184,l),
(543,284,l)
);
}
);
width = 860;
},
{
anchors = (
{
name = top;
pos = (476,380);
}
);
annotations = (
{
pos = (632,40);
type = Arrow;
},
{
pos = (531,114);
type = Arrow;
},
{
pos = (642.909,101.548);
text = "";
type = Text;
}
);
backgroundImage = {
imagePath = "../reference/@Celes/lowercase/n.png";
locked = 1;
pos = (87,-438);
scale = (14,14);
};
layerId = m004;
shapes = (
{
closed = 1;
nodes = (
(641,-10,l),
(809,81,l),
(809,264,l),
(663,410,l),
(840,410,l),
(905,480,l),
(550,480,l),
(485,410,l),
(595,410,l),
(709,259,l),
(709,133,l),
(602,60,l),
(442,60,l),
(382,-10,l)
);
},
{
closed = 1;
nodes = (
(330,309,l),
(330,490,l),
(125,370,l),
(230,370,l),
(230,309,l)
);
},
{
closed = 1;
nodes = (
(86,269,l),
(21,199,l),
(230,199,l),
(230,-30,l),
(330,30,l),
(330,199,l),
(473,199,l),
(538,269,l)
);
}
);
width = 930;
},
{
anchors = (
{
name = top;
pos = (356,380);
}
);
annotations = (
{
pos = (632,40);
type = Arrow;
},
{
pos = (531,114);
type = Arrow;
},
{
pos = (642.909,101.548);
text = "";
type = Text;
}
);
backgroundImage = {
imagePath = "../reference/@Celes/lowercase/n.png";
locked = 1;
pos = (-33,-438);
scale = (14,14);
};
layerId = m005;
shapes = (
{
closed = 1;
nodes = (
(451,-10,l),
(559,48,l),
(559,332,l),
(484,450,l),
(584,450,l),
(612,480,l),
(426,480,l),
(398,450,l),
(448,450,l),
(519,332,l),
(519,66,l),
(431,20,l),
(309,20,l),
(283,-10,l)
);
},
{
closed = 1;
nodes = (
(210,289,l),
(210,490,l),
(119,410,l),
(170,410,l),
(170,289,l)
);
},
{
closed = 1;
nodes = (
(52,249,l),
(24,219,l),
(170,219,l),
(170,-30,l),
(210,0,l),
(210,219,l),
(317,219,l),
(345,249,l)
);
}
);
width = 640;
},
{
anchors = (
{
name = top;
pos = (476,380);
}
);
annotations = (
{
pos = (632,40);
type = Arrow;
},
{
pos = (531,114);
type = Arrow;
},
{
pos = (642.909,101.548);
text = "";
type = Text;
}
);
backgroundImage = {
imagePath = "../reference/@Celes/lowercase/n.png";
locked = 1;
pos = (87,-438);
scale = (14,14);
};
layerId = m006;
shapes = (
{
closed = 1;
nodes = (
(621,-10,l),
(749,68,l),
(749,332,l),
(623,450,l),
(814,450,l),
(842,480,l),
(516,480,l),
(488,450,l),
(576,450,l),
(709,323,l),
(709,86,l),
(601,20,l),
(409,20,l),
(383,-10,l)
);
},
{
closed = 1;
nodes = (
(270,289,l),
(270,490,l),
(129,410,l),
(230,410,l),
(230,289,l)
);
},
{
closed = 1;
nodes = (
(52,249,l),
(24,219,l),
(230,219,l),
(230,-30,l),
(270,0,l),
(270,219,l),
(437,219,l),
(465,249,l)
);
}
);
width = 870;
}
);
unicode = 110;
},
{
color = 1;
glyphname = o;
kernLeft = o;
kernRight = o;
lastChange = "2024-11-25 00:43:17 +0000";
layers = (
{
anchors = (
{
name = top;
pos = (276,390);
}
);
backgroundImage = {
imagePath = "../reference/@Celes/lowercase/o.png";
locked = 1;
pos = (-13,-395);
scale = (14,14);
};
layerId = m01;
shapes = (
{
closed = 1;
nodes = (
(404,40,l),
(255,40,l),
(125,181,l),
(125,400,l),
(35,337,l),
(35,116,l),
(153,-10,l),
(346,-10,l)
);
},
{
closed = 1;
nodes = (
(494,146,l),
(494,385,l),
(399,490,l),
(198,490,l),
(128,440,l),
(301,440,l),
(404,329,l),
(404,80,l)
);
}
);
width = 530;
},
{
anchors = (
{
name = top;
pos = (326,380);
}
);
backgroundImage = {
imagePath = "../reference/@Celes/lowercase/o.png";
locked = 1;
pos = (17,-395);
scale = (14,14);
};
layerId = m002;
shapes = (
{
closed = 1;
nodes = (
(444,70,l),
(303,70,l),
(175,183,l),
(175,390,l),
(35,321,l),
(35,114,l),
(166,-10,l),
(380,-10,l)
);
},
{
closed = 1;
nodes = (
(594,147,l),
(594,374,l),
(487,490,l),
(265,490,l),
(175,410,l),
(346,410,l),
(454,287,l),
(454,90,l)
);
}
);
width = 630;
},
{
anchors = (
{
name = top;
pos = (376,380);
}
);
backgroundImage = {
imagePath = "../reference/@Celes/lowercase/o.png";
locked = 1;
pos = (87,-395);
scale = (14,14);
};
layerId = m004;
shapes = (
{
closed = 1;
nodes = (
(586,40,l),
(255,40,l),
(125,181,l),
(125,420,l),
(35,343,l),
(35,116,l),
(153,-10,l),
(535,-10,l)
);
},
{
closed = 1;
nodes = (
(704,141,l),
(704,385,l),
(609,490,l),
(225,490,l),
(155,440,l),
(504,440,l),
(614,318,l),
(614,72,l)
);
}
);
width = 740;
},
{
anchors = (
{
name = top;
pos = (246,380);
}
);
backgroundImage = {
imagePath = "../reference/@Celes/lowercase/o.png";
locked = 1;
pos = (-43,-395);
scale = (14,14);
};
layerId = m005;
shapes = (
{
closed = 1;
nodes = (
(386,20,l),
(205,20,l),
(75,166,l),
(75,440,l),
(35,408,l),
(35,141,l),
(169,-10,l),
(358,-10,l)
);
},
{
closed = 1;
nodes = (
(434,70,l),
(434,343,l),
(315,490,l),
(130,490,l),
(97,460,l),
(283,460,l),
(394,321,l),
(394,38,l)
);
}
);
width = 470;
},
{
anchors = (
{
name = top;
pos = (346,380);
}
);
backgroundImage = {
imagePath = "../reference/@Celes/lowercase/o.png";
locked = 1;
pos = (57,-395);
scale = (14,14);
};
layerId = m006;
shapes = (
{
closed = 1;
nodes = (
(582,20,l),
(195,20,l),
(75,156,l),
(75,442,l),
(35,410,l),
(35,141,l),
(169,-10,l),
(549,-10,l)
);
},
{
closed = 1;
nodes = (
(634,71,l),
(634,353,l),
(495,490,l),
(137,490,l),
(101,460,l),
(473,460,l),
(594,341,l),
(594,42,l)
);
}
);
width = 670;
}
);
unicode = 111;
},
{
color = 0;
glyphname = oslash;
kernLeft = o;
kernRight = o;
lastChange = "2024-11-24 07:35:11 +0000";
layers = (
{
guides = (
{
angle = 132.8591;
pos = (353,345);
},
{
angle = -47.3244;
pos = (190,151);
},
{
angle = 133.1221;
pos = (94,13);
},
{
angle = -47.8624;
pos = (447,478);
},
{
angle = 270;
pos = (155,291);
},
{
angle = 90;
pos = (374,205);
},
{
angle = 55.6307;
pos = (227,240);
},
{
angle = 55.6307;
pos = (327,240);
}
);
layerId = m01;
shapes = (
{
closed = 1;
nodes = (
(374,307,l),
(374,322,l),
(321,379,l),
(176,166,l),
(176,166,l),
(234,104,l)
);
},
{
closed = 1;
nodes = (
(139,-35,l),
(139,-35,l),
(81,27,l),
(39,-35,l)
);
},
{
closed = 1;
nodes = (
(518,520,l),
(409,520,l),
(409,520,l),
(471,451,l)
);
},
{
ref = o;
}
);
width = 530;
},
{
guides = (
{
angle = 131.2847;
pos = (430,309);
},
{
angle = -41.4385;
pos = (269,167);
},
{
angle = 136.5724;
pos = (131,12);
},
{
angle = -47.3111;
pos = (571,472);
},
{
angle = 270;
pos = (235,287);
},
{
angle = 90;
pos = (454,189);
},
{
angle = 48.4434;
pos = (276,243);
},
{
angle = 48.4434;
pos = (437,243);
}
);
layerId = m002;
shapes = (
{
closed = 1;
nodes = (
(454,262,l),
(454,282,l),
(382,362,l),
(235,197,l),
(235,197,l),
(326,117,l)
);
},
{
closed = 1;
nodes = (
(181,-35,l),
(181,-35,l),
(98,43,l),
(30,-35,l)
);
},
{
closed = 1;
nodes = (
(683,520,l),
(527,520,l),
(527,520,l),
(606,434,l)
);
},
{
pos = (30,0);
ref = o;
}
);
width = 700;
},
{
guides = (
{
angle = 132.0391;
pos = (559,339);
},
{
angle = -47.3244;
pos = (190,151);
},
{
angle = 133.1221;
pos = (94,13);
},
{
angle = -47.8624;
pos = (657,478);
},
{
angle = 270;
pos = (155,301);
},
{
angle = 90;
pos = (584,195);
},
{
angle = 39.7786;
pos = (334,241);
},
{
angle = 219.7786;
pos = (434,241);
}
);
layerId = m004;
shapes = (
{
closed = 1;
nodes = (
(556,342,l),
(556,342,l),
(513,390,l),
(206,134,l),
(206,134,l),
(249,87,l)
);
},
{
closed = 1;
nodes = (
(123,-18,l),
(123,-18,l),
(79,29,l),
(23,-18,l)
);
},
{
closed = 1;
nodes = (
(747,502,l),
(635,502,l),
(635,502,l),
(683,449,l)
);
},
{
ref = o;
}
);
width = 760;
},
{
guides = (
{
angle = 128.6095;
pos = (339,356);
},
{
angle = -48.3178;
pos = (140,138);
},
{
angle = 131.5864;
pos = (102,31);
},
{
angle = -51.009;
pos = (375,462);
},
{
angle = 90;
pos = (364,185);
},
{
angle = 270;
pos = (105,308);
},
{
angle = 54.0048;
pos = (239,245);
},
{
angle = 234.0048;
pos = (274,245);
}
);
layerId = m005;
shapes = (
{
closed = 1;
nodes = (
(347,346,l),
(347,346,l),
(329,369,l),
(152,125,l),
(152,125,l),
(171,103,l)
);
},
{
closed = 1;
nodes = (
(81,-20,l),
(111,21,l),
(92,42,l),
(46,-20,l)
);
},
{
closed = 1;
nodes = (
(466,510,l),
(431,510,l),
(386,448,l),
(405,425,l)
);
},
{
ref = o;
}
);
width = 470;
},
{
guides = (
{
angle = 135.4774;
pos = (534,361);
},
{
angle = -44.5848;
pos = (565,462);
},
{
angle = -48.5763;
pos = (135,128);
},
{
angle = 131.5864;
pos = (102,26);
},
{
angle = 270;
pos = (105,299);
},
{
angle = 90;
pos = (564,192);
},
{
angle = 42.176;
pos = (314,245);
},
{
angle = 222.176;
pos = (359,245);
}
);
layerId = m006;
shapes = (
{
closed = 1;
nodes = (
(511,383,l),
(511,383,l),
(490,404,l),
(157,103,l),
(157,103,l),
(177,80,l)
);
},
{
closed = 1;
nodes = (
(66,-20,l),
(109,18,l),
(89,41,l),
(21,-20,l)
);
},
{
closed = 1;
nodes = (
(651,510,l),
(606,510,l),
(560,468,l),
(581,446,l)
);
},
{
ref = o;
}
);
width = 670;
},
{
associatedMasterId = m005;
layerId = "C2642737-2381-414F-B60A-AD175D19F889";
name = "Nov 24, 24 at 02:23";
shapes = (
{
ref = o;
},
{
closed = 1;
nodes = (
(81,-20,l),
(466,510,l),
(431,510,l),
(46,-20,l)
);
}
);
width = 470;
},
{
associatedMasterId = m006;
layerId = "4AF54244-F1E4-416C-8B72-8391E16685DE";
name = "Nov 24, 24 at 02:23";
shapes = (
{
ref = o;
},
{
closed = 1;
nodes = (
(66,-20,l),
(651,510,l),
(606,510,l),
(21,-20,l)
);
}
);
width = 670;
},
{
associatedMasterId = m01;
layerId = "6D50E9BE-91ED-4768-A596-FFC61CCAB03C";
name = "Nov 24, 24 at 02:23";
shapes = (
{
ref = o;
},
{
closed = 1;
nodes = (
(135,-40,l),
(518,520,l),
(418,520,l),
(35,-40,l)
);
}
);
width = 530;
},
{
associatedMasterId = m004;
layerId = "2E6A48AC-75EF-4D3E-A5BB-B54FF8A09EE8";
name = "Nov 24, 24 at 02:23";
shapes = (
{
ref = o;
},
{
closed = 1;
nodes = (
(120,-20,l),
(747,502,l),
(647,502,l),
(20,-20,l)
);
}
);
width = 760;
},
{
associatedMasterId = m002;
layerId = "E6E80525-457B-420D-B3A8-37344926B3FE";
name = "Nov 24, 24 at 02:23";
shapes = (
{
pos = (30,0);
ref = o;
},
{
closed = 1;
nodes = (
(191,-35,l),
(683,520,l),
(522,520,l),
(30,-35,l)
);
}
);
width = 700;
}
);
unicode = 248;
},
{
color = 3;
glyphname = oe;
kernLeft = o;
kernRight = e;
lastChange = "2024-08-28 13:00:25 +0000";
layers = (
{
layerId = m01;
shapes = (
{
ref = o;
},
{
closed = 1;
nodes = (
(782,-10,l),
(890,105,l),
(890,408,l),
(825,490,l),
(541,490,l),
(414,288,l),
(464,288,l),
(561,420,l),
(790,420,l),
(790,60,l),
(574,60,l),
(509,-10,l)
);
},
{
closed = 1;
nodes = (
(929,193,l),
(994,263,l),
(602,263,l),
(537,193,l)
);
}
);
width = 1008;
},
{
layerId = m002;
shapes = (
{
ref = o;
},
{
closed = 1;
nodes = (
(909,-10,l),
(1030,103,l),
(1030,409,l),
(954,490,l),
(631,490,l),
(463,273,l),
(573,273,l),
(690,390,l),
(870,390,l),
(870,90,l),
(666,90,l),
(574,-10,l)
);
},
{
closed = 1;
nodes = (
(1057,178,l),
(1149,278,l),
(734,278,l),
(642,178,l)
);
}
);
width = 1168;
},
{
layerId = m004;
shapes = (
{
ref = o;
},
{
closed = 1;
nodes = (
(1162,-10,l),
(1270,105,l),
(1270,408,l),
(1205,490,l),
(771,490,l),
(624,288,l),
(674,288,l),
(791,420,l),
(1170,420,l),
(1170,60,l),
(804,60,l),
(739,-10,l)
);
},
{
closed = 1;
nodes = (
(1369,193,l),
(1434,263,l),
(872,263,l),
(807,193,l)
);
}
);
width = 1448;
},
{
layerId = m005;
shapes = (
{
ref = o;
},
{
closed = 1;
nodes = (
(817,10,l),
(860,51,l),
(860,457,l),
(817,490,l),
(535,490,l),
(402,308,l),
(427,308,l),
(551,460,l),
(820,460,l),
(820,40,l),
(540,40,l),
(512,10,l)
);
},
{
closed = 1;
nodes = (
(943,223,l),
(971,253,l),
(588,253,l),
(560,223,l)
);
}
);
width = 998;
},
{
layerId = m006;
shapes = (
{
ref = o;
},
{
closed = 1;
nodes = (
(1157,10,l),
(1200,51,l),
(1200,457,l),
(1157,490,l),
(775,490,l),
(602,338,l),
(627,338,l),
(791,460,l),
(1160,460,l),
(1160,40,l),
(750,40,l),
(722,10,l)
);
},
{
closed = 1;
nodes = (
(1333,223,l),
(1361,253,l),
(818,253,l),
(790,223,l)
);
}
);
width = 1388;
}
);
metricLeft = o;
metricRight = e;
unicode = 339;
},
{
color = 1;
glyphname = p;
kernLeft = p;
kernRight = p;
lastChange = "2024-11-24 06:13:36 +0000";
layers = (
{
backgroundImage = {
imagePath = "../reference/@Celes/lowercase/p.png";
locked = 1;
pos = (-30,0);
scale = (14,14);
};
guides = (
{
angle = 205.1735;
pos = (101,323);
}
);
layerId = m01;
shapes = (
{
closed = 1;
nodes = (
(101,392,l),
(201,439,l),
(201,489,l),
(23,392,l)
);
},
{
closed = 1;
nodes = (
(252,-10,l),
(252,60,l),
(252,80,l),
(201,143,l),
(201,399,l),
(101,352,l),
(101,103,l),
(252,-10,l)
);
},
{
closed = 1;
nodes = (
(392,-72,l),
(392,-10,l),
(462,-10,l),
(565,75,l),
(565,249,l),
(499,321,l),
(372,321,l),
(292,227,l),
(292,-63,l),
(201,-145,l),
(201,-215,l)
);
},
{
closed = 1;
nodes = (
(392,251,l),
(465,251,l),
(465,251,l),
(465,60,l),
(392,60,l)
);
}
);
width = 590;
},
{
backgroundImage = {
imagePath = "../reference/@Celes/lowercase/p.png";
locked = 1;
pos = (30,0);
scale = (14,14);
};
guides = (
{
angle = 196.3702;
pos = (291,382);
}
);
layerId = m002;
shapes = (
{
closed = 1;
nodes = (
(134,363,l),
(294,410,l),
(294,490,l),
(32,363,l)
);
},
{
closed = 1;
nodes = (
(332,-10,l),
(332,97,l),
(332,115,l),
(294,144,l),
(294,370,l),
(134,323,l),
(134,101,l),
(284,-10,l)
);
},
{
closed = 1;
nodes = (
(522,-68,l),
(522,-10,l),
(623,-10,l),
(735,81,l),
(735,280,l),
(625,366,l),
(454,366,l),
(362,258,l),
(362,-54,l),
(261,-157,l),
(261,-230,l)
);
},
{
closed = 1;
nodes = (
(522,233,l),
(522,233,l),
(575,233,l),
(575,90,l),
(522,90,l)
);
}
);
width = 770;
},
{
backgroundImage = {
imagePath = "../reference/@Celes/lowercase/p.png";
locked = 1;
pos = (110,0);
scale = (14,14);
};
guides = (
{
angle = 23.9869;
pos = (241,374);
}
);
layerId = m004;
shapes = (
{
closed = 1;
nodes = (
(135,392,l),
(241,439,l),
(241,489,l),
(23,392,l)
);
},
{
closed = 1;
nodes = (
(384,-10,l),
(384,60,l),
(352,60,l),
(241,143,l),
(241,399,l),
(141,355,l),
(141,103,l),
(300,-10,l)
);
},
{
closed = 1;
nodes = (
(534,-115,l),
(534,-10,l),
(712,-10,l),
(815,80,l),
(815,269,l),
(708,341,l),
(514,341,l),
(434,247,l),
(434,-82,l),
(281,-145,l),
(281,-215,l)
);
},
{
closed = 1;
nodes = (
(534,271,l),
(634,271,l),
(715,226,l),
(715,60,l),
(534,60,l)
);
}
);
width = 840;
},
{
backgroundImage = {
imagePath = "../reference/@Celes/lowercase/p.png";
locked = 1;
pos = (-80,0);
scale = (14,14);
};
guides = (
{
angle = 203.0255;
pos = (121,400);
}
);
layerId = m005;
shapes = (
{
closed = 1;
nodes = (
(81,433,l),
(121,450,l),
(121,490,l),
(29,433,l)
);
},
{
closed = 1;
nodes = (
(232,-10,l),
(232,20,l),
(199,20,l),
(121,124,l),
(121,410,l),
(81,393,l),
(81,108,l),
(176,-10,l)
);
},
{
closed = 1;
nodes = (
(322,-86,l),
(322,-10,l),
(442,-10,l),
(485,30,l),
(485,248,l),
(396,311,l),
(322,311,l),
(282,265,l),
(282,-70,l),
(152,-185,l),
(152,-210,l)
);
},
{
closed = 1;
nodes = (
(322,281,l),
(373,281,l),
(445,231,l),
(445,20,l),
(322,20,l)
);
}
);
width = 520;
},
{
backgroundImage = {
imagePath = "../reference/@Celes/lowercase/p.png";
locked = 1;
pos = (40,0);
scale = (14,14);
};
guides = (
{
angle = 21.8709;
pos = (171,383);
}
);
layerId = m006;
shapes = (
{
closed = 1;
nodes = (
(128,433,l),
(171,450,l),
(171,490,l),
(29,433,l)
);
},
{
closed = 1;
nodes = (
(372,-10,l),
(372,20,l),
(309,20,l),
(171,124,l),
(171,410,l),
(131,394,l),
(131,108,l),
(286,-10,l)
);
},
{
closed = 1;
nodes = (
(472,-94,l),
(472,-10,l),
(702,-10,l),
(745,30,l),
(745,228,l),
(656,311,l),
(472,311,l),
(432,278,l),
(432,-71,l),
(262,-185,l),
(262,-210,l)
);
},
{
closed = 1;
nodes = (
(472,281,l),
(633,281,l),
(705,211,l),
(705,20,l),
(472,20,l)
);
}
);
width = 780;
}
);
unicode = 112;
},
{
color = 3;
glyphname = q;
kernLeft = q;
kernRight = RxH;
lastChange = "2024-11-24 06:13:45 +0000";
layers = (
{
guides = (
{
angle = 214.992;
pos = (363,338);
}
);
layerId = m01;
shapes = (
{
closed = 1;
nodes = (
(120,260,l),
(279,260,l),
(323,217,l),
(323,290,l),
(286,330,l),
(129,330,l),
(20,199,l),
(20,67,l),
(120,0,l)
);
},
{
closed = 1;
nodes = (
(115,-200,l),
(261,-60,l),
(260,4,l),
(160,70,l),
(160,70,l),
(160,0,l),
(160,0,l),
(161,-70,l),
(65,-200,l)
);
},
{
closed = 1;
nodes = (
(463,30,l),
(463,400,l),
(363,330,l),
(363,-30,l)
);
},
{
closed = 1;
nodes = (
(363,370,l),
(463,440,l),
(463,490,l),
(298,370,l)
);
}
);
width = 500;
},
{
guides = (
{
angle = 203.6294;
pos = (443,305);
}
);
layerId = m002;
shapes = (
{
closed = 1;
nodes = (
(180,235,l),
(334,235,l),
(413,173,l),
(413,276,l),
(323,355,l),
(141,355,l),
(20,243,l),
(20,103,l),
(180,0,l)
);
},
{
closed = 1;
nodes = (
(242,-200,l),
(370,-62,l),
(370,21,l),
(210,100,l),
(210,100,l),
(210,0,l),
(210,0,l),
(210,-69,l),
(135,-200,l)
);
},
{
closed = 1;
nodes = (
(603,66,l),
(603,370,l),
(443,300,l),
(443,-30,l)
);
},
{
closed = 1;
nodes = (
(443,340,l),
(603,410,l),
(603,490,l),
(386,340,l)
);
}
);
width = 640;
},
{
guides = (
{
angle = 30.3432;
pos = (663,391);
}
);
layerId = m004;
shapes = (
{
closed = 1;
nodes = (
(120,270,l),
(359,270,l),
(513,183,l),
(513,258,l),
(396,340,l),
(104,340,l),
(20,240,l),
(20,67,l),
(120,0,l)
);
},
{
closed = 1;
nodes = (
(235,-200,l),
(406,-112,l),
(405,18,l),
(341,70,l),
(170,70,l),
(170,0,l),
(305,0,l),
(306,-84,l),
(185,-200,l)
);
},
{
closed = 1;
nodes = (
(663,30,l),
(663,400,l),
(563,341,l),
(563,-30,l)
);
},
{
closed = 1;
nodes = (
(543,370,l),
(663,440,l),
(663,490,l),
(458,370,l)
);
}
);
width = 700;
},
{
guides = (
{
angle = 44.6441;
pos = (413,390);
}
);
layerId = m005;
shapes = (
{
closed = 1;
nodes = (
(80,270,l),
(274,270,l),
(323,218,l),
(323,251,l),
(289,300,l),
(83,300,l),
(40,264,l),
(40,31,l),
(80,0,l)
);
},
{
closed = 1;
nodes = (
(113,-200,l),
(235,-89,l),
(235,0,l),
(201,30,l),
(130,30,l),
(130,0,l),
(195,0,l),
(195,-73,l),
(86,-200,l)
);
},
{
closed = 1;
nodes = (
(413,0,l),
(413,410,l),
(373,370,l),
(373,-30,l)
);
},
{
closed = 1;
nodes = (
(373,410,l),
(413,450,l),
(413,490,l),
(332,410,l)
);
}
);
width = 460;
},
{
guides = (
{
angle = 31.4119;
pos = (623,390);
}
);
layerId = m006;
shapes = (
{
closed = 1;
nodes = (
(80,280,l),
(374,280,l),
(523,198,l),
(523,231,l),
(389,310,l),
(73,310,l),
(40,274,l),
(40,31,l),
(80,0,l)
);
},
{
closed = 1;
nodes = (
(203,-200,l),
(355,-89,l),
(355,0,l),
(321,30,l),
(140,30,l),
(140,0,l),
(315,0,l),
(315,-73,l),
(176,-200,l)
);
},
{
closed = 1;
nodes = (
(623,0,l),
(623,410,l),
(583,386,l),
(583,-30,l)
);
},
{
closed = 1;
nodes = (
(557,410,l),
(623,450,l),
(623,490,l),
(492,410,l)
);
}
);
width = 670;
}
);
unicode = 113;
},
{
color = 1;
glyphname = r;
kernLeft = LxH;
kernRight = r;
lastChange = "2024-11-24 06:15:49 +0000";
layers = (
{
backgroundImage = {
imagePath = "../reference/@Celes/lowercase/r.png";
locked = 1;
pos = (-10,0);
scale = (14,14);
};
guides = (
{
angle = 37.4316;
pos = (80,251);
}
);
layerId = m01;
shapes = (
{
closed = 1;
nodes = (
(180,328,l),
(180,490,l),
(15,370,l),
(80,370,l),
(80,251,l)
);
},
{
closed = 1;
nodes = (
(415,0,l),
(506,77,l),
(506,270,l),
(433,335,l),
(242,335,l),
(80,211,l),
(80,-30,l),
(180,30,l),
(180,168,l),
(281,265,l),
(406,265,l),
(406,70,l),
(320,70,l),
(245,0,l)
);
},
{
closed = 1;
nodes = (
(245,-40,l),
(245,-153,l),
(301,-200,l),
(453,-200,l),
(518,-130,l),
(345,-130,l),
(345,-40,l)
);
}
);
width = 540;
},
{
backgroundImage = {
imagePath = "../reference/@Celes/lowercase/r.png";
locked = 1;
pos = (-10,0);
scale = (14,14);
};
guides = (
{
angle = 42.4847;
pos = (100,205);
}
);
layerId = m002;
shapes = (
{
closed = 1;
nodes = (
(260,352,l),
(260,490,l),
(19,340,l),
(100,340,l),
(100,205,l)
);
},
{
closed = 1;
nodes = (
(580,0,l),
(686,75,l),
(686,241,l),
(602,350,l),
(302,350,l),
(100,165,l),
(100,-30,l),
(260,66,l),
(260,144,l),
(349,250,l),
(526,250,l),
(526,100,l),
(393,100,l),
(305,0,l)
);
},
{
closed = 1;
nodes = (
(305,-30,l),
(305,-140,l),
(376,-200,l),
(561,-200,l),
(653,-100,l),
(465,-100,l),
(465,-30,l)
);
}
);
width = 710;
},
{
backgroundImage = {
imagePath = "../reference/@Celes/lowercase/r.png";
locked = 1;
pos = (-10,0);
scale = (14,14);
};
guides = (
{
angle = 30.7355;
pos = (120,243);
}
);
layerId = m004;
shapes = (
{
closed = 1;
nodes = (
(220,302,l),
(220,490,l),
(15,370,l),
(120,370,l),
(120,243,l)
);
},
{
closed = 1;
nodes = (
(665,0,l),
(756,77,l),
(756,266,l),
(683,335,l),
(342,335,l),
(120,203,l),
(120,-30,l),
(220,30,l),
(220,156,l),
(381,265,l),
(656,265,l),
(656,70,l),
(440,70,l),
(365,0,l)
);
},
{
closed = 1;
nodes = (
(365,-40,l),
(365,-153,l),
(421,-200,l),
(713,-200,l),
(778,-130,l),
(465,-130,l),
(465,-40,l)
);
}
);
width = 800;
},
{
backgroundImage = {
imagePath = "../reference/@Celes/lowercase/r.png";
locked = 1;
pos = (-50,0);
scale = (14,14);
};
guides = (
{
angle = 44.2623;
pos = (70,230);
}
);
layerId = m005;
shapes = (
{
closed = 1;
nodes = (
(110,269,l),
(110,490,l),
(29,410,l),
(70,410,l),
(70,230,l)
);
},
{
closed = 1;
nodes = (
(396,0,l),
(436,36,l),
(436,265,l),
(396,305,l),
(188,305,l),
(70,190,l),
(70,-30,l),
(110,0,l),
(110,178,l),
(206,275,l),
(396,275,l),
(396,30,l),
(278,30,l),
(235,0,l)
);
},
{
closed = 1;
nodes = (
(235,-40,l),
(235,-167,l),
(275,-200,l),
(397,-200,l),
(425,-170,l),
(275,-170,l),
(275,-40,l)
);
}
);
width = 470;
},
{
backgroundImage = {
imagePath = "../reference/@Celes/lowercase/r.png";
locked = 1;
pos = (80,0);
scale = (14,14);
};
guides = (
{
angle = 38.5051;
pos = (120,211);
}
);
layerId = m006;
shapes = (
{
closed = 1;
nodes = (
(160,243,l),
(160,490,l),
(29,410,l),
(120,410,l),
(120,211,l)
);
},
{
closed = 1;
nodes = (
(646,0,l),
(686,34,l),
(686,275,l),
(646,315,l),
(301,315,l),
(120,171,l),
(120,-30,l),
(160,0,l),
(160,160,l),
(316,285,l),
(646,285,l),
(646,30,l),
(408,30,l),
(365,0,l)
);
},
{
closed = 1;
nodes = (
(365,-40,l),
(365,-167,l),
(405,-200,l),
(677,-200,l),
(705,-170,l),
(405,-170,l),
(405,-40,l)
);
}
);
width = 730;
}
);
unicode = 114;
},
{
color = 1;
glyphname = s;
kernLeft = LxH;
kernRight = s;
lastChange = "2024-11-24 06:16:26 +0000";
layers = (
{
anchors = (
{
name = top;
pos = (284,390);
}
);
backgroundImage = {
imagePath = "../reference/@Celes/lowercase/s.png";
locked = 1;
pos = (-10,0);
scale = (14,14);
};
guides = (
{
angle = 38.7966;
pos = (180,278);
}
);
layerId = m01;
shapes = (
{
closed = 1;
nodes = (
(180,281,l),
(180,490,l),
(15,370,l),
(80,370,l),
(80,201,l)
);
},
{
closed = 1;
nodes = (
(80,161,l),
(80,-30,l),
(180,30,l),
(180,150,l),
(294,255,l),
(397,255,l),
(397,60,l),
(320,60,l),
(255,-10,l),
(426,-10,l),
(497,60,l),
(497,248,l),
(433,325,l),
(284,325,l)
);
}
);
width = 530;
},
{
anchors = (
{
name = top;
pos = (386,390);
}
);
backgroundImage = {
imagePath = "../reference/@Celes/lowercase/s.png";
locked = 1;
pos = (-10,0);
scale = (14,14);
};
guides = (
{
angle = 36.4981;
pos = (260,318);
}
);
layerId = m002;
shapes = (
{
closed = 1;
nodes = (
(260,343,l),
(260,490,l),
(19,340,l),
(100,340,l),
(100,225,l)
);
},
{
closed = 1;
nodes = (
(100,185,l),
(100,-30,l),
(260,66,l),
(260,169,l),
(351,250,l),
(497,250,l),
(497,90,l),
(422,90,l),
(330,-10,l),
(573,-10,l),
(657,73,l),
(657,249,l),
(582,350,l),
(323,350,l)
);
}
);
width = 690;
},
{
anchors = (
{
name = top;
pos = (442,390);
}
);
backgroundImage = {
imagePath = "../reference/@Celes/lowercase/s.png";
locked = 1;
pos = (-10,0);
scale = (14,14);
};
guides = (
{
angle = 34.2285;
pos = (220,268);
}
);
layerId = m004;
shapes = (
{
closed = 1;
nodes = (
(220,267,l),
(220,490,l),
(15,370,l),
(120,370,l),
(120,199,l)
);
},
{
closed = 1;
nodes = (
(120,159,l),
(120,-30,l),
(220,30,l),
(220,155,l),
(378,255,l),
(637,255,l),
(637,60,l),
(460,60,l),
(395,-10,l),
(666,-10,l),
(737,60,l),
(737,248,l),
(673,325,l),
(364,325,l)
);
}
);
width = 770;
},
{
anchors = (
{
name = top;
pos = (244,390);
}
);
backgroundImage = {
imagePath = "../reference/@Celes/lowercase/s.png";
locked = 1;
pos = (-50,0);
scale = (14,14);
};
guides = (
{
angle = 43.9659;
pos = (70,209);
}
);
layerId = m005;
shapes = (
{
closed = 1;
nodes = (
(110,247,l),
(110,490,l),
(29,410,l),
(70,410,l),
(70,209,l)
);
},
{
closed = 1;
nodes = (
(70,169,l),
(70,-30,l),
(110,0,l),
(110,163,l),
(222,275,l),
(387,275,l),
(387,20,l),
(266,20,l),
(238,-10,l),
(387,-10,l),
(427,30,l),
(427,269,l),
(390,305,l),
(211,305,l)
);
}
);
width = 470;
},
{
anchors = (
{
name = top;
pos = (364,390);
}
);
backgroundImage = {
imagePath = "../reference/@Celes/lowercase/s.png";
locked = 1;
pos = (70,0);
scale = (14,14);
};
guides = (
{
angle = 37.1728;
pos = (160,222);
}
);
layerId = m006;
shapes = (
{
closed = 1;
nodes = (
(160,225,l),
(160,490,l),
(29,410,l),
(120,410,l),
(120,195,l)
);
},
{
closed = 1;
nodes = (
(120,155,l),
(120,-30,l),
(160,0,l),
(160,150,l),
(352,285,l),
(627,285,l),
(627,20,l),
(406,20,l),
(378,-10,l),
(627,-10,l),
(667,30,l),
(667,279,l),
(630,315,l),
(331,315,l)
);
}
);
width = 710;
}
);
unicode = 115;
},
{
color = 3;
glyphname = germandbls;
kernLeft = LxH;
kernRight = y;
lastChange = "2024-11-24 08:32:12 +0000";
layers = (
{
guides = (
{
angle = 34.992;
pos = (180,378);
},
{
angle = 235.0882;
pos = (407,209);
}
);
layerId = m01;
shapes = (
{
closed = 1;
nodes = (
(436,-10,l),
(507,60,l),
(507,279,l),
(457,279,l),
(407,209,l),
(407,209,l),
(407,60,l),
(310,60,l),
(245,-10,l)
);
},
{
closed = 1;
nodes = (
(180,30,l),
(180,400,l),
(80,330,l),
(80,-30,l)
);
},
{
closed = 1;
nodes = (
(80,370,l),
(180,440,l),
(180,490,l),
(15,370,l)
);
},
{
closed = 1;
nodes = (
(352,209,l),
(419,305,l),
(419,451,l),
(340,490,l),
(220,490,l),
(220,420,l),
(319,420,l),
(319,305,l),
(254,209,l)
);
}
);
width = 540;
},
{
guides = (
{
angle = 203.6294;
pos = (260,355);
},
{
angle = 31.366;
pos = (599,309);
},
{
pos = (487,201);
}
);
layerId = m002;
shapes = (
{
closed = 1;
nodes = (
(563,-10,l),
(647,73,l),
(647,277,l),
(611,277,l),
(487,201,l),
(487,201,l),
(487,90,l),
(392,90,l),
(300,-10,l)
);
},
{
closed = 1;
nodes = (
(260,66,l),
(260,370,l),
(100,300,l),
(100,-30,l)
);
},
{
closed = 1;
nodes = (
(100,340,l),
(260,410,l),
(260,490,l),
(19,340,l)
);
},
{
closed = 1;
nodes = (
(422,201,l),
(599,309,l),
(599,441,l),
(500,490,l),
(290,490,l),
(290,390,l),
(439,390,l),
(439,307,l),
(328,201,l)
);
}
);
width = 680;
},
{
guides = (
{
angle = 30.3432;
pos = (220,385);
},
{
angle = 224.3905;
pos = (614,348);
},
{
angle = 180;
pos = (576,220);
}
);
layerId = m004;
shapes = (
{
closed = 1;
nodes = (
(656,-10,l),
(727,60,l),
(727,290,l),
(596,290,l),
(524,220,l),
(627,220,l),
(627,60,l),
(410,60,l),
(345,-10,l)
);
},
{
closed = 1;
nodes = (
(220,30,l),
(220,400,l),
(120,341,l),
(120,-30,l)
);
},
{
closed = 1;
nodes = (
(100,370,l),
(220,440,l),
(220,490,l),
(15,370,l)
);
},
{
closed = 1;
nodes = (
(483,220,l),
(614,348,l),
(614,451,l),
(535,490,l),
(270,490,l),
(270,420,l),
(514,420,l),
(514,352,l),
(383,220,l)
);
}
);
width = 760;
},
{
guides = (
{
angle = 44.6441;
pos = (110,416);
},
{
angle = 216.4309;
pos = (357,245);
}
);
layerId = m005;
shapes = (
{
closed = 1;
nodes = (
(413,-10,l),
(447,28,l),
(447,275,l),
(397,275,l),
(357,245,l),
(407,245,l),
(407,20,l),
(246,20,l),
(218,-10,l)
);
},
{
closed = 1;
nodes = (
(110,0,l),
(110,410,l),
(70,370,l),
(70,-30,l)
);
},
{
closed = 1;
nodes = (
(70,410,l),
(110,450,l),
(110,490,l),
(29,410,l)
);
},
{
closed = 1;
nodes = (
(317,245,l),
(359,276,l),
(359,461,l),
(319,490,l),
(160,490,l),
(160,460,l),
(319,460,l),
(319,276,l),
(277,245,l)
);
}
);
width = 480;
},
{
guides = (
{
angle = 31.4119;
pos = (160,424);
},
{
angle = 217.5686;
pos = (530,275);
}
);
layerId = m006;
shapes = (
{
closed = 1;
nodes = (
(623,-10,l),
(657,18,l),
(657,295,l),
(569,295,l),
(530,265,l),
(617,265,l),
(617,20,l),
(366,20,l),
(338,-10,l)
);
},
{
closed = 1;
nodes = (
(160,0,l),
(160,410,l),
(120,386,l),
(120,-30,l)
);
},
{
closed = 1;
nodes = (
(94,410,l),
(160,450,l),
(160,490,l),
(29,410,l)
);
},
{
closed = 1;
nodes = (
(490,265,l),
(529,295,l),
(529,461,l),
(489,490,l),
(220,490,l),
(220,460,l),
(489,460,l),
(489,296,l),
(447,265,l)
);
}
);
width = 690;
}
);
unicode = 223;
},
{
color = 1;
glyphname = t;
kernLeft = t;
kernRight = RxH;
lastChange = "2024-11-24 06:13:56 +0000";
layers = (
{
backgroundImage = {
imagePath = "../reference/@Celes/lowercase/t.png";
locked = 1;
pos = (-352,-387);
scale = (14,14);
};
guides = (
{
angle = 214.992;
pos = (320,320);
}
);
layerId = m01;
shapes = (
{
closed = 1;
nodes = (
(121,248,l),
(280,248,l),
(280,318,l),
(132,318,l),
(29,229,l),
(29,179,l)
);
},
{
closed = 1;
nodes = (
(320,370,l),
(420,440,l),
(420,490,l),
(234,370,l)
);
},
{
closed = 1;
nodes = (
(420,-170,l),
(420,400,l),
(320,330,l),
(320,-230,l)
);
}
);
width = 460;
},
{
backgroundImage = {
imagePath = "../reference/@Celes/lowercase/t.png";
locked = 1;
pos = (-322,-387);
scale = (14,14);
};
guides = (
{
angle = 203.6294;
pos = (560,332);
}
);
layerId = m002;
shapes = (
{
closed = 1;
nodes = (
(160,213,l),
(370,213,l),
(370,313,l),
(151,313,l),
(29,213,l),
(29,128,l)
);
},
{
closed = 1;
nodes = (
(400,340,l),
(560,410,l),
(560,490,l),
(294,340,l)
);
},
{
closed = 1;
nodes = (
(560,-134,l),
(560,370,l),
(400,300,l),
(400,-230,l)
);
}
);
width = 600;
},
{
backgroundImage = {
imagePath = "../reference/@Celes/lowercase/t.png";
locked = 1;
pos = (-252,-387);
scale = (14,14);
};
guides = (
{
angle = 27.9671;
pos = (620,326);
}
);
layerId = m004;
shapes = (
{
closed = 1;
nodes = (
(161,238,l),
(470,238,l),
(470,308,l),
(172,308,l),
(29,229,l),
(29,179,l)
);
},
{
closed = 1;
nodes = (
(488,370,l),
(620,440,l),
(620,490,l),
(394,370,l)
);
},
{
closed = 1;
nodes = (
(620,-170,l),
(620,400,l),
(520,347,l),
(520,-230,l)
);
}
);
width = 660;
},
{
backgroundImage = {
imagePath = "../reference/@Celes/lowercase/t.png";
locked = 1;
pos = (-352,-387);
scale = (14,14);
};
guides = (
{
angle = 39.8056;
pos = (390,386);
}
);
layerId = m005;
shapes = (
{
closed = 1;
nodes = (
(134,268,l),
(300,268,l),
(300,298,l),
(122,298,l),
(29,211,l),
(29,185,l)
);
},
{
closed = 1;
nodes = (
(342,410,l),
(390,450,l),
(390,490,l),
(294,410,l)
);
},
{
closed = 1;
nodes = (
(390,-200,l),
(390,410,l),
(350,377,l),
(350,-230,l)
);
}
);
width = 430;
},
{
backgroundImage = {
imagePath = "../reference/@Celes/lowercase/t.png";
locked = 1;
pos = (-252,-387);
scale = (14,14);
};
guides = (
{
angle = 28.7203;
pos = (590,368);
}
);
layerId = m006;
shapes = (
{
closed = 1;
nodes = (
(204,278,l),
(490,278,l),
(490,308,l),
(192,308,l),
(29,231,l),
(29,205,l)
);
},
{
closed = 1;
nodes = (
(517,410,l),
(590,450,l),
(590,490,l),
(444,410,l)
);
},
{
closed = 1;
nodes = (
(590,-200,l),
(590,410,l),
(550,388,l),
(550,-230,l)
);
}
);
width = 630;
}
);
unicode = 116;
},
{
color = 1;
glyphname = u;
kernLeft = o;
kernRight = o;
lastChange = "2024-11-24 05:40:43 +0000";
layers = (
{
anchors = (
{
name = top;
pos = (327,390);
}
);
backgroundImage = {
imagePath = "../reference/@Celes/lowercase/u.png";
locked = 1;
pos = (-235,-438);
scale = (14,14);
};
layerId = m01;
shapes = (
{
closed = 1;
nodes = (
(110,420,l),
(110,490,l),
(20,490,l),
(110,420,l)
);
},
{
closed = 1;
nodes = (
(226,80,l),
(144,163,l),
(144,262,l),
(205,399,l),
(205,490,l),
(150,490,l),
(150,420,l),
(44,274,l),
(44,107,l),
(226,-10,l)
);
},
{
closed = 1;
nodes = (
(426,-10,l),
(590,144,l),
(590,436,l),
(541,480,l),
(391,480,l),
(266,352,l),
(266,125,l),
(366,185,l),
(366,352,l),
(414,410,l),
(490,410,l),
(490,302,l),
(406,302,l),
(406,232,l),
(490,232,l),
(490,162,l),
(380,60,l),
(266,60,l),
(266,-10,l)
);
}
);
width = 620;
},
{
anchors = (
{
name = top;
pos = (417,400);
}
);
backgroundImage = {
imagePath = "../reference/@Celes/lowercase/u.png";
locked = 1;
pos = (-185,-438);
scale = (14,14);
};
layerId = m002;
shapes = (
{
closed = 1;
nodes = (
(158,390,l),
(158,490,l),
(25,490,l),
(158,390,l)
);
},
{
closed = 1;
nodes = (
(272,110,l),
(224,164,l),
(224,299,l),
(285,386,l),
(285,490,l),
(188,490,l),
(188,390,l),
(64,275,l),
(64,79,l),
(272,-10,l)
);
},
{
closed = 1;
nodes = (
(618,-10,l),
(760,106,l),
(760,438,l),
(697,480,l),
(464,480,l),
(326,354,l),
(326,109,l),
(486,204,l),
(486,351,l),
(512,380,l),
(600,380,l),
(600,317,l),
(516,317,l),
(516,217,l),
(600,217,l),
(600,164,l),
(523,90,l),
(302,90,l),
(302,-10,l)
);
}
);
width = 800;
},
{
anchors = (
{
name = top;
pos = (467,390);
}
);
backgroundImage = {
imagePath = "../reference/@Celes/lowercase/u.png";
locked = 1;
pos = (-95,-438);
scale = (14,14);
};
layerId = m004;
shapes = (
{
closed = 1;
nodes = (
(175,420,l),
(175,490,l),
(20,490,l),
(102,420,l)
);
},
{
closed = 1;
nodes = (
(296,70,l),
(184,143,l),
(184,262,l),
(295,379,l),
(295,490,l),
(225,490,l),
(225,420,l),
(84,274,l),
(84,87,l),
(296,-10,l)
);
},
{
closed = 1;
nodes = (
(642,-10,l),
(830,93,l),
(830,406,l),
(751,480,l),
(531,480,l),
(406,352,l),
(406,105,l),
(506,165,l),
(506,352,l),
(574,410,l),
(730,410,l),
(730,302,l),
(556,302,l),
(556,232,l),
(730,232,l),
(730,142,l),
(570,60,l),
(346,60,l),
(346,-10,l)
);
}
);
width = 860;
},
{
anchors = (
{
name = top;
pos = (317,390);
}
);
backgroundImage = {
imagePath = "../reference/@Celes/lowercase/u.png";
locked = 1;
pos = (-245,-438);
scale = (14,14);
};
layerId = m005;
shapes = (
{
closed = 1;
nodes = (
(106,460,l),
(106,490,l),
(22,490,l),
(48,460,l)
);
},
{
closed = 1;
nodes = (
(181,40,l),
(104,138,l),
(104,314,l),
(195,430,l),
(195,490,l),
(156,490,l),
(156,430,l),
(64,320,l),
(64,112,l),
(181,-10,l)
);
},
{
closed = 1;
nodes = (
(420,-10,l),
(550,138,l),
(550,450,l),
(517,480,l),
(367,480,l),
(286,342,l),
(286,139,l),
(326,163,l),
(326,338,l),
(386,450,l),
(510,450,l),
(510,273,l),
(376,273,l),
(376,243,l),
(510,243,l),
(510,156,l),
(388,20,l),
(231,20,l),
(231,-10,l)
);
}
);
width = 580;
},
{
anchors = (
{
name = top;
pos = (457,390);
}
);
backgroundImage = {
imagePath = "../reference/@Celes/lowercase/u.png";
locked = 1;
pos = (-105,-438);
scale = (14,14);
};
layerId = m006;
shapes = (
{
closed = 1;
nodes = (
(170,460,l),
(170,490,l),
(22,490,l),
(48,460,l)
);
},
{
closed = 1;
nodes = (
(281,30,l),
(144,118,l),
(144,309,l),
(275,439,l),
(275,490,l),
(230,490,l),
(230,448,l),
(104,315,l),
(104,102,l),
(281,-10,l)
);
},
{
closed = 1;
nodes = (
(600,-10,l),
(790,108,l),
(790,440,l),
(757,470,l),
(507,470,l),
(426,392,l),
(426,139,l),
(466,163,l),
(466,388,l),
(526,440,l),
(750,440,l),
(750,293,l),
(526,293,l),
(526,263,l),
(750,263,l),
(750,126,l),
(578,20,l),
(341,20,l),
(341,-10,l)
);
}
);
width = 820;
}
);
unicode = 117;
},
{
color = 1;
glyphname = v;
kernLeft = n;
kernRight = v;
lastChange = "2024-11-24 05:44:56 +0000";
layers = (
{
backgroundImage = {
imagePath = "../reference/@Celes/lowercase/v.png";
locked = 1;
pos = (-220,-432);
scale = (14,14);
};
layerId = m01;
shapes = (
{
closed = 1;
nodes = (
(264,490,l),
(99,370,l),
(164,370,l),
(164,249,l),
(90,249,l),
(25,179,l),
(164,179,l),
(164,-30,l),
(264,30,l),
(264,179,l),
(288,179,l),
(326,249,l),
(264,249,l)
);
},
{
closed = 1;
nodes = (
(610,-10,l),
(610,203,l),
(304,379,l),
(304,309,l),
(510,189,l),
(510,-10,l)
);
},
{
closed = 1;
nodes = (
(470,60,l),
(375,60,l),
(470,-10,l),
(470,-10,l)
);
}
);
width = 650;
},
{
backgroundImage = {
imagePath = "../reference/@Celes/lowercase/v.png";
locked = 1;
pos = (-160,-432);
scale = (14,14);
};
layerId = m002;
shapes = (
{
closed = 1;
nodes = (
(334,490,l),
(93,340,l),
(174,340,l),
(174,264,l),
(112,264,l),
(20,164,l),
(174,164,l),
(174,-30,l),
(334,66,l),
(334,164,l),
(390,164,l),
(390,264,l),
(334,264,l)
);
},
{
closed = 1;
nodes = (
(790,-10,l),
(790,267,l),
(364,407,l),
(364,306,l),
(630,222,l),
(630,-10,l)
);
},
{
closed = 1;
nodes = (
(600,90,l),
(491,90,l),
(600,-10,l),
(600,-10,l)
);
}
);
width = 830;
},
{
backgroundImage = {
imagePath = "../reference/@Celes/lowercase/v.png";
locked = 1;
pos = (-90,-432);
scale = (14,14);
};
layerId = m004;
shapes = (
{
closed = 1;
nodes = (
(294,490,l),
(79,370,l),
(194,370,l),
(194,249,l),
(90,249,l),
(25,179,l),
(194,179,l),
(194,-30,l),
(294,30,l),
(294,179,l),
(356,179,l),
(398,249,l),
(294,249,l)
);
},
{
closed = 1;
nodes = (
(850,-10,l),
(850,265,l),
(344,394,l),
(344,314,l),
(750,221,l),
(750,-10,l)
);
},
{
closed = 1;
nodes = (
(700,60,l),
(586,60,l),
(651,-10,l),
(700,-10,l)
);
}
);
width = 890;
},
{
backgroundImage = {
imagePath = "../reference/@Celes/lowercase/v.png";
locked = 1;
pos = (-270,-432);
scale = (14,14);
};
layerId = m005;
shapes = (
{
closed = 1;
nodes = (
(184,490,l),
(103,410,l),
(144,410,l),
(144,209,l),
(56,209,l),
(28,179,l),
(144,179,l),
(144,-30,l),
(184,0,l),
(184,179,l),
(262,179,l),
(290,209,l),
(184,209,l)
);
},
{
closed = 1;
nodes = (
(530,-10,l),
(530,179,l),
(234,375,l),
(234,340,l),
(490,161,l),
(490,-10,l)
);
},
{
closed = 1;
nodes = (
(440,20,l),
(349,20,l),
(377,-10,l),
(440,-10,l)
);
}
);
width = 570;
},
{
backgroundImage = {
imagePath = "../reference/@Celes/lowercase/v.png";
locked = 1;
pos = (-140,-432);
scale = (14,14);
};
layerId = m006;
shapes = (
{
closed = 1;
nodes = (
(234,490,l),
(103,410,l),
(194,410,l),
(194,229,l),
(56,229,l),
(28,199,l),
(194,199,l),
(194,-30,l),
(234,0,l),
(234,199,l),
(331,199,l),
(352,229,l),
(234,229,l)
);
},
{
closed = 1;
nodes = (
(790,-10,l),
(790,229,l),
(294,390,l),
(294,357,l),
(750,211,l),
(750,-10,l)
);
},
{
closed = 1;
nodes = (
(690,20,l),
(559,20,l),
(587,-10,l),
(690,-10,l)
);
}
);
width = 830;
}
);
unicode = 118;
},
{
color = 1;
glyphname = w;
kernLeft = LxH;
kernRight = RxH;
lastChange = "2024-11-24 05:51:03 +0000";
layers = (
{
anchors = (
{
name = top;
pos = (390,390);
}
);
backgroundImage = {
imagePath = "../reference/@Celes/lowercase/w.png";
locked = 1;
pos = (20,0);
scale = (14,14);
};
guides = (
{
angle = 214.992;
pos = (90,323);
}
);
layerId = m01;
shapes = (
{
closed = 1;
nodes = (
(90,370,l),
(190,440,l),
(190,490,l),
(25,370,l)
);
},
{
closed = 1;
nodes = (
(190,30,l),
(190,400,l),
(90,330,l),
(90,-30,l)
);
},
{
closed = 1;
nodes = (
(437,45,l),
(437,490,l),
(272,370,l),
(337,370,l),
(337,-15,l)
);
},
{
closed = 1;
nodes = (
(297,-15,l),
(297,60,l),
(212,60,l),
(297,-15,l)
);
},
{
closed = 1;
nodes = (
(682,45,l),
(682,490,l),
(517,370,l),
(582,370,l),
(582,-15,l)
);
},
{
closed = 1;
nodes = (
(542,-15,l),
(542,60,l),
(457,60,l),
(542,-15,l)
);
}
);
width = 730;
},
{
anchors = (
{
name = top;
pos = (470,400);
}
);
backgroundImage = {
imagePath = "../reference/@Celes/lowercase/w.png";
locked = 1;
pos = (70,0);
scale = (14,14);
};
guides = (
{
angle = 203.6294;
pos = (270,346);
}
);
layerId = m002;
shapes = (
{
closed = 1;
nodes = (
(110,340,l),
(270,410,l),
(270,490,l),
(29,340,l)
);
},
{
closed = 1;
nodes = (
(270,66,l),
(270,370,l),
(110,300,l),
(110,-30,l)
);
},
{
closed = 1;
nodes = (
(537,53,l),
(537,490,l),
(296,340,l),
(377,340,l),
(377,-20,l)
);
},
{
closed = 1;
nodes = (
(357,-20,l),
(357,100,l),
(284,100,l),
(357,-20,l)
);
},
{
closed = 1;
nodes = (
(812,53,l),
(812,490,l),
(571,340,l),
(652,340,l),
(652,-20,l)
);
},
{
closed = 1;
nodes = (
(632,-20,l),
(632,100,l),
(549,100,l),
(632,-20,l)
);
}
);
width = 870;
},
{
anchors = (
{
name = top;
pos = (510,390);
}
);
backgroundImage = {
imagePath = "../reference/@Celes/lowercase/w.png";
locked = 1;
pos = (140,0);
scale = (14,14);
};
guides = (
{
angle = 30.3432;
pos = (230,337);
}
);
layerId = m004;
shapes = (
{
closed = 1;
nodes = (
(110,370,l),
(230,440,l),
(230,490,l),
(25,370,l)
);
},
{
closed = 1;
nodes = (
(230,30,l),
(230,400,l),
(130,341,l),
(130,-30,l)
);
},
{
closed = 1;
nodes = (
(557,45,l),
(557,490,l),
(352,370,l),
(457,370,l),
(457,-15,l)
);
},
{
closed = 1;
nodes = (
(407,-15,l),
(407,65,l),
(277,65,l),
(342,-15,l)
);
},
{
closed = 1;
nodes = (
(892,45,l),
(892,490,l),
(687,370,l),
(792,370,l),
(792,-15,l)
);
},
{
closed = 1;
nodes = (
(742,-15,l),
(742,65,l),
(612,65,l),
(677,-15,l)
);
}
);
width = 930;
},
{
anchors = (
{
name = top;
pos = (350,390);
}
);
backgroundImage = {
imagePath = "../reference/@Celes/lowercase/w.png";
locked = 1;
pos = (-20,0);
scale = (14,14);
};
guides = (
{
angle = 41.3194;
pos = (120,378);
}
);
layerId = m005;
shapes = (
{
closed = 1;
nodes = (
(74,410,l),
(120,450,l),
(120,490,l),
(29,410,l)
);
},
{
closed = 1;
nodes = (
(120,0,l),
(120,410,l),
(80,375,l),
(80,-30,l)
);
},
{
closed = 1;
nodes = (
(367,21,l),
(367,490,l),
(276,410,l),
(327,410,l),
(327,-15,l)
);
},
{
closed = 1;
nodes = (
(277,-15,l),
(277,15,l),
(167,15,l),
(200,-15,l)
);
},
{
closed = 1;
nodes = (
(612,21,l),
(612,490,l),
(521,410,l),
(572,410,l),
(572,-15,l)
);
},
{
closed = 1;
nodes = (
(522,-15,l),
(522,15,l),
(412,15,l),
(445,-15,l)
);
}
);
width = 670;
},
{
anchors = (
{
name = top;
pos = (450,390);
}
);
backgroundImage = {
imagePath = "../reference/@Celes/lowercase/w.png";
locked = 1;
pos = (80,0);
scale = (14,14);
};
guides = (
{
angle = 29.5695;
pos = (170,352);
}
);
layerId = m006;
shapes = (
{
closed = 1;
nodes = (
(99,410,l),
(170,450,l),
(170,490,l),
(29,410,l)
);
},
{
closed = 1;
nodes = (
(170,0,l),
(170,410,l),
(130,387,l),
(130,-30,l)
);
},
{
closed = 1;
nodes = (
(497,21,l),
(497,490,l),
(336,410,l),
(457,410,l),
(457,-15,l)
);
},
{
closed = 1;
nodes = (
(397,-15,l),
(397,15,l),
(217,15,l),
(245,-15,l)
);
},
{
closed = 1;
nodes = (
(827,21,l),
(827,490,l),
(666,410,l),
(787,410,l),
(787,-15,l)
);
},
{
closed = 1;
nodes = (
(727,-15,l),
(727,15,l),
(547,15,l),
(575,-15,l)
);
}
);
width = 880;
}
);
unicode = 119;
},
{
color = 3;
glyphname = x;
kernLeft = x;
kernRight = x;
lastChange = "2024-11-24 05:57:01 +0000";
layers = (
{
backgroundImage = {
imagePath = "../reference/@Celes/lowercase/x.png";
locked = 1;
pos = (-324,-423);
scale = (14,14);
};
guides = (
{
angle = 119.2488;
pos = (482,-10);
}
);
layerId = m01;
shapes = (
{
closed = 1;
nodes = (
(481,-10,l),
(519,87,l),
(427,87,l)
);
},
{
closed = 1;
nodes = (
(86,-13,l),
(206,87,l),
(36,87,l),
(36,-13,l)
);
},
{
closed = 1;
nodes = (
(161,490,l),
(41,490,l),
(321,-10,l),
(441,-10,l)
);
}
);
width = 540;
},
{
backgroundImage = {
imagePath = "../reference/@Celes/lowercase/x.png";
locked = 1;
pos = (-294,-423);
scale = (14,14);
};
guides = (
{
angle = 123.5842;
pos = (567,-10);
}
);
layerId = m002;
shapes = (
{
closed = 1;
nodes = (
(580,-10,l),
(654,117,l),
(496,117,l)
);
},
{
closed = 1;
nodes = (
(171,-13,l),
(327,117,l),
(36,117,l),
(36,-13,l)
);
},
{
closed = 1;
nodes = (
(218,490,l),
(42,490,l),
(379,-10,l),
(550,-10,l)
);
}
);
width = 680;
},
{
backgroundImage = {
imagePath = "../reference/@Celes/lowercase/x.png";
locked = 1;
pos = (-224,-423);
scale = (14,14);
};
guides = (
{
angle = 132.5519;
pos = (641,-10);
}
);
layerId = m004;
shapes = (
{
closed = 1;
nodes = (
(670,-10,l),
(740,87,l),
(581,87,l)
);
},
{
closed = 1;
nodes = (
(146,-13,l),
(286,87,l),
(36,87,l),
(36,-13,l)
);
},
{
closed = 1;
nodes = (
(161,490,l),
(41,490,l),
(521,-10,l),
(620,-10,l)
);
}
);
width = 770;
},
{
backgroundImage = {
imagePath = "../reference/@Celes/lowercase/x.png";
locked = 1;
pos = (-324,-423);
scale = (14,14);
};
guides = (
{
angle = 118.8108;
pos = (430,-10);
}
);
layerId = m005;
shapes = (
{
closed = 1;
nodes = (
(427,-10,l),
(473,50,l),
(394,50,l)
);
},
{
closed = 1;
nodes = (
(64,-13,l),
(194,50,l),
(36,50,l),
(36,-13,l)
);
},
{
closed = 1;
nodes = (
(112,490,l),
(64,490,l),
(341,-10,l),
(387,-10,l)
);
}
);
width = 500;
},
{
backgroundImage = {
imagePath = "../reference/@Celes/lowercase/x.png";
locked = 1;
pos = (-234,-423);
scale = (14,14);
};
guides = (
{
angle = 134.2454;
pos = (684,-10);
}
);
layerId = m006;
shapes = (
{
closed = 1;
nodes = (
(656,-10,l),
(698,37,l),
(610,37,l)
);
},
{
closed = 1;
nodes = (
(94,-13,l),
(294,37,l),
(36,37,l),
(36,-13,l)
);
},
{
closed = 1;
nodes = (
(109,490,l),
(44,490,l),
(531,-10,l),
(596,-10,l)
);
}
);
width = 730;
}
);
unicode = 120;
},
{
color = 1;
glyphname = y;
kernLeft = LxD;
kernRight = y;
lastChange = "2024-11-24 05:58:46 +0000";
layers = (
{
anchors = (
{
name = top;
pos = (295,390);
}
);
backgroundImage = {
imagePath = "../reference/@Celes/lowercase/y.png";
locked = 1;
pos = (10,0);
scale = (14,14);
};
guides = (
{
angle = 214.992;
pos = (101,293);
}
);
layerId = m01;
shapes = (
{
closed = 1;
nodes = (
(101,370,l),
(201,440,l),
(201,490,l),
(15,370,l)
);
},
{
closed = 1;
nodes = (
(201,-170,l),
(201,400,l),
(101,330,l),
(101,-230,l)
);
},
{
closed = 1;
nodes = (
(525,346,l),
(525,451,l),
(446,490,l),
(373,490,l),
(296,420,l),
(425,420,l),
(425,303,l)
);
},
{
closed = 1;
nodes = (
(386,-10,l),
(530,89,l),
(530,208,l),
(241,322,l),
(241,270,l),
(430,206,l),
(430,108,l),
(368,60,l),
(261,97,l),
(261,47,l),
(386,-10,l)
);
}
);
width = 560;
},
{
anchors = (
{
name = top;
pos = (385,400);
}
);
backgroundImage = {
imagePath = "../reference/@Celes/lowercase/y.png";
locked = 1;
pos = (60,0);
scale = (14,14);
};
guides = (
{
angle = 203.6294;
pos = (281,316);
}
);
layerId = m002;
shapes = (
{
closed = 1;
nodes = (
(121,340,l),
(281,410,l),
(281,490,l),
(15,340,l)
);
},
{
closed = 1;
nodes = (
(281,-134,l),
(281,370,l),
(121,300,l),
(121,-230,l)
);
},
{
closed = 1;
nodes = (
(695,330,l),
(695,442,l),
(596,491,l),
(497,491,l),
(387,391,l),
(535,391,l),
(535,285,l)
);
},
{
closed = 1;
nodes = (
(561,-10,l),
(700,57,l),
(700,212,l),
(311,343,l),
(311,258,l),
(540,152,l),
(540,95,l),
(540,95,l),
(352,155,l),
(352,71,l),
(561,-10,l)
);
}
);
width = 730;
},
{
anchors = (
{
name = top;
pos = (435,390);
}
);
backgroundImage = {
imagePath = "../reference/@Celes/lowercase/y.png";
locked = 1;
pos = (150,0);
scale = (14,14);
};
guides = (
{
angle = 27.9671;
pos = (241,345);
}
);
layerId = m004;
shapes = (
{
closed = 1;
nodes = (
(110,370,l),
(241,440,l),
(241,490,l),
(15,370,l)
);
},
{
closed = 1;
nodes = (
(241,-170,l),
(241,400,l),
(141,347,l),
(141,-230,l)
);
},
{
closed = 1;
nodes = (
(745,314,l),
(745,451,l),
(666,490,l),
(513,490,l),
(416,420,l),
(645,420,l),
(645,251,l)
);
},
{
closed = 1;
nodes = (
(670,-10,l),
(770,57,l),
(770,187,l),
(291,331,l),
(291,270,l),
(670,161,l),
(670,60,l),
(521,60,l),
(372,120,l),
(372,70,l),
(498,-10,l)
);
}
);
width = 800;
},
{
anchors = (
{
name = top;
pos = (245,390);
}
);
backgroundImage = {
imagePath = "../reference/@Celes/lowercase/y.png";
locked = 1;
pos = (10,0);
scale = (14,14);
};
guides = (
{
angle = 39.8056;
pos = (121,391);
}
);
layerId = m005;
shapes = (
{
closed = 1;
nodes = (
(73,410,l),
(121,450,l),
(121,490,l),
(25,410,l)
);
},
{
closed = 1;
nodes = (
(121,-200,l),
(121,410,l),
(81,377,l),
(81,-230,l)
);
},
{
closed = 1;
nodes = (
(455,312,l),
(455,461,l),
(412,490,l),
(287,490,l),
(254,460,l),
(415,460,l),
(415,275,l)
);
},
{
closed = 1;
nodes = (
(377,-10,l),
(470,55,l),
(470,189,l),
(171,313,l),
(171,282,l),
(430,178,l),
(430,76,l),
(342,16,l),
(213,83,l),
(213,58,l),
(319,-10,l)
);
}
);
width = 500;
},
{
anchors = (
{
name = top;
pos = (365,390);
}
);
backgroundImage = {
imagePath = "../reference/@Celes/lowercase/y.png";
locked = 1;
pos = (130,0);
scale = (14,14);
};
guides = (
{
angle = 28.7203;
pos = (171,368);
}
);
layerId = m006;
shapes = (
{
closed = 1;
nodes = (
(98,410,l),
(171,450,l),
(171,490,l),
(25,410,l)
);
},
{
closed = 1;
nodes = (
(171,-200,l),
(171,410,l),
(131,388,l),
(131,-230,l)
);
},
{
closed = 1;
nodes = (
(675,268,l),
(675,461,l),
(632,490,l),
(437,490,l),
(404,460,l),
(635,460,l),
(635,235,l)
);
},
{
closed = 1;
nodes = (
(668,-10,l),
(710,20,l),
(710,179,l),
(231,313,l),
(231,280,l),
(670,158,l),
(670,20,l),
(482,20,l),
(333,103,l),
(333,78,l),
(459,-10,l)
);
}
);
width = 740;
}
);
unicode = 121;
},
{
color = 3;
glyphname = z;
kernLeft = z;
kernRight = z;
lastChange = "2024-11-24 06:08:49 +0000";
layers = (
{
anchors = (
{
name = top;
pos = (317,390);
}
);
guides = (
{
angle = 54.385;
pos = (503,329);
},
{
angle = 54.6175;
pos = (299,259);
}
);
layerId = m01;
shapes = (
{
closed = 1;
nodes = (
(405,410,l),
(455,480,l),
(144,480,l),
(79,410,l)
);
},
{
closed = 1;
nodes = (
(218,-10,l),
(566,480,l),
(495,480,l),
(147,-10,l)
);
},
{
closed = 1;
nodes = (
(127,-10,l),
(127,70,l),
(127,216,l),
(182,259,l),
(298,259,l),
(348,329,l),
(181,329,l),
(27,216,l),
(27,51,l),
(127,-10,l)
);
},
{
closed = 1;
nodes = (
(499,110,l),
(499,329,l),
(399,189,l),
(399,110,l)
);
},
{
closed = 1;
nodes = (
(538,0,l),
(603,70,l),
(345,70,l),
(280,0,l)
);
}
);
width = 620;
},
{
anchors = (
{
name = top;
pos = (390,390);
}
);
guides = (
{
angle = 54.7732;
pos = (330,244);
},
{
angle = 53.4683;
pos = (536,234);
}
);
layerId = m002;
shapes = (
{
closed = 1;
nodes = (
(442,380,l),
(513,480,l),
(156,480,l),
(64,380,l)
);
},
{
closed = 1;
nodes = (
(315,-10,l),
(678,480,l),
(553,480,l),
(207,-10,l)
);
},
{
closed = 1;
nodes = (
(187,-10,l),
(187,100,l),
(187,244,l),
(187,244,l),
(346,244,l),
(417,344,l),
(197,344,l),
(27,219,l),
(27,48,l),
(187,-10,l)
);
},
{
closed = 1;
nodes = (
(615,130,l),
(615,340,l),
(459,130,l),
(459,130,l)
);
},
{
closed = 1;
nodes = (
(676,0,l),
(768,100,l),
(457,100,l),
(383,0,l)
);
}
);
width = 790;
},
{
anchors = (
{
name = top;
pos = (434,390);
}
);
guides = (
{
angle = 45.0585;
pos = (424,259);
},
{
angle = 45.3529;
pos = (589,249);
}
);
layerId = m004;
shapes = (
{
closed = 1;
nodes = (
(575,410,l),
(645,480,l),
(144,480,l),
(79,410,l)
);
},
{
closed = 1;
nodes = (
(292,-10,l),
(776,480,l),
(685,480,l),
(196,-10,l)
);
},
{
closed = 1;
nodes = (
(146,-10,l),
(127,51,l),
(127,216,l),
(182,259,l),
(424,259,l),
(494,329,l),
(167,329,l),
(27,232,l),
(27,51,l),
(67,-10,l)
);
},
{
closed = 1;
nodes = (
(667,110,l),
(667,327,l),
(567,226,l),
(567,110,l)
);
},
{
closed = 1;
nodes = (
(748,0,l),
(813,70,l),
(475,70,l),
(410,0,l)
);
}
);
width = 830;
},
{
anchors = (
{
name = top;
pos = (297,390);
}
);
guides = (
{
angle = 49.2485;
pos = (298,259);
},
{
angle = 229.459;
pos = (413,233);
}
);
layerId = m005;
shapes = (
{
closed = 1;
nodes = (
(456,430,l),
(482,460,l),
(130,460,l),
(102,430,l)
);
},
{
closed = 1;
nodes = (
(165,-10,l),
(567,460,l),
(522,460,l),
(117,-10,l)
);
},
{
closed = 1;
nodes = (
(77,-10,l),
(77,29,l),
(77,210,l),
(141,259,l),
(309,259,l),
(335,289,l),
(127,289,l),
(37,218,l),
(37,21,l),
(61,-10,l)
);
},
{
closed = 1;
nodes = (
(453,70,l),
(453,280,l),
(413,233,l),
(413,70,l)
);
},
{
closed = 1;
nodes = (
(542,0,l),
(570,30,l),
(321,30,l),
(293,0,l)
);
}
);
width = 600;
},
{
anchors = (
{
name = top;
pos = (397,390);
}
);
guides = (
{
angle = 42.6627;
pos = (420,259);
},
{
angle = 42.4953;
pos = (547,259);
}
);
layerId = m006;
shapes = (
{
closed = 1;
nodes = (
(606,430,l),
(638,460,l),
(160,460,l),
(132,430,l)
);
},
{
closed = 1;
nodes = (
(214,-10,l),
(727,460,l),
(679,460,l),
(169,-10,l)
);
},
{
closed = 1;
nodes = (
(129,-10,l),
(87,50,l),
(87,210,l),
(162,259,l),
(420,259,l),
(453,289,l),
(140,289,l),
(47,218,l),
(47,42,l),
(87,-10,l)
);
},
{
closed = 1;
nodes = (
(587,70,l),
(587,296,l),
(547,259,l),
(547,70,l)
);
},
{
closed = 1;
nodes = (
(772,0,l),
(800,30,l),
(381,30,l),
(353,0,l)
);
}
);
width = 830;
}
);
unicode = 122;
},
{
glyphname = zero;
lastChange = "2024-11-24 23:10:33 +0000";
layers = (
{
guides = (
{
angle = 270;
pos = (172,358);
}
);
layerId = m01;
shapes = (
{
closed = 1;
nodes = (
(247,313,l),
(312,383,l),
(172,383,l),
(172,313,l)
);
},
{
alignment = -1;
ref = O;
}
);
width = 490;
},
{
guides = (
{
angle = 270;
pos = (222,336);
}
);
layerId = m002;
shapes = (
{
closed = 1;
nodes = (
(285,298,l),
(377,398,l),
(222,398,l),
(222,298,l)
);
},
{
alignment = -1;
ref = O;
}
);
width = 590;
},
{
guides = (
{
angle = 270;
pos = (182,356);
}
);
layerId = m004;
shapes = (
{
closed = 1;
nodes = (
(337,313,l),
(402,383,l),
(182,383,l),
(182,313,l)
);
},
{
alignment = -1;
ref = O;
}
);
width = 670;
},
{
guides = (
{
angle = 270;
pos = (102,382);
}
);
layerId = m005;
shapes = (
{
closed = 1;
nodes = (
(221,333,l),
(249,363,l),
(102,363,l),
(102,333,l)
);
},
{
alignment = -1;
pos = (-20,0);
ref = O;
}
);
width = 390;
},
{
guides = (
{
angle = 270;
pos = (112,372);
}
);
layerId = m006;
shapes = (
{
closed = 1;
nodes = (
(371,343,l),
(399,373,l),
(112,373,l),
(112,343,l)
);
},
{
alignment = -1;
pos = (-20,0);
ref = O;
}
);
width = 580;
}
);
unicode = 48;
},
